SplineFontDB: 3.0
FontName: Blob
FullName: Blob
FamilyName: Blob
Weight: Medium
Copyright: Created by Willem Sonke,,, with FontForge 2.0 (http://fontforge.sf.net)
UComments: "2012-1-14: Created." 
Version: 001.000
ItalicAngle: 0
UnderlinePosition: -102
UnderlineWidth: 51
Ascent: 819
Descent: 205
LayerCount: 2
Layer: 0 0 "Terug"  1
Layer: 1 0 "Fore"  0
NeedsXUIDChange: 1
XUID: [1021 173 1476005312 15126987]
FSType: 0
OS2Version: 4
OS2_WeightWidthSlopeOnly: 0
OS2_UseTypoMetrics: 1
CreationTime: 1326571224
ModificationTime: 1327778614
PfmFamily: 17
TTFWeight: 500
TTFWidth: 5
LineGap: 92
VLineGap: 0
OS2TypoAscent: 0
OS2TypoAOffset: 1
OS2TypoDescent: 0
OS2TypoDOffset: 1
OS2TypoLinegap: 92
OS2WinAscent: 0
OS2WinAOffset: 1
OS2WinDescent: 0
OS2WinDOffset: 1
HheadAscent: 0
HheadAOffset: 1
HheadDescent: 0
HheadDOffset: 1
OS2Vendor: 'PfEd'
OS2UnicodeRanges: 00000083.00000000.00000000.00000000
Lookup: 258 0 0 "IJ"  {"IJ-1" [153,15,0] "AJ" [153,15,0] } []
MarkAttachClasses: 1
DEI: 91125
LangName: 1033 
Encoding: UnicodeFull
UnicodeInterp: none
NameList: Adobe Glyph List
DisplaySize: -48
AntiAlias: 1
FitToEm: 1
WidthSeparation: 150
WinInfo: 8640 32 11
BeginPrivate: 0
EndPrivate
Grid
50.6 1331 m 0
 50.6 -717 l 0
EndSplineSet
TeXData: 1 0 0 1048576 524288 349525 0 1048576 349525 783286 444596 497025 792723 393216 433062 380633 303038 157286 324010 404750 52429 2506097 1059062 262144
BeginChars: 1114112 339

StartChar: A
Encoding: 65 65 0
Width: 638
VWidth: 0
InSpiro: 1
Flags: W
VStem: 373.726 129.939<38.3431 181.973>
LayerCount: 2
Fore
SplineSet
343.921 536.59 m 0
 372.175 524.517 395.894 501.186 406.358 472.297 c 0
 416.82 443.407 412.909 409.748 396.146 384 c 0
 383.664 364.832 364.884 350.141 343.921 340.992 c 0
 322.545 331.663 298.769 327.782 275.564 330.125 c 0
 252.358 332.468 229.664 341.328 211.824 356.352 c 0
 199.055 367.107 188.872 380.943 182.566 396.402 c 0
 176.26 411.862 173.854 428.882 175.536 445.492 c 0
 178.903 478.714 199.036 509.411 227.185 527.374 c 0
 244.294 538.293 264.17 544.771 284.405 546.334 c 0
 304.643 547.896 325.257 544.566 343.921 536.59 c 0
  Spiro
    343.92 536.59 o
    396.144 384 o
    343.92 340.992 o
    211.824 356.352 o
    227.184 527.374 o
    0 0 z
  EndSpiro
466.801 316.416 m 0
 472.894 335.669 482.29 353.678 491.377 371.712 c 0
 507.367 403.447 521.306 437.312 521.775 472.847 c 0
 522.241 508.379 509.301 543.602 487.296 571.505 c 0
 465.29 599.408 435.416 620.146 404.103 636.948 c 0
 372.788 653.749 339.932 667.484 307.057 680.975 c 0
 281.461 691.479 255.697 701.713 229.133 709.447 c 0
 202.569 717.182 174.949 722.206 147.313 720.91 c 0
 114.59 719.377 81.9648 708.337 56.7441 687.431 c 0
 31.5234 666.524 14.4961 636.17 9.17383 603.846 c 0
 3.85449 571.521 9.98438 538 22.8174 507.859 c 0
 35.6514 477.719 54.8574 450.814 73.585 423.936 c 0
 90.9512 399.012 107.987 373.34 117.677 344.55 c 0
 127.366 315.758 128.735 283.968 119.665 254.976 c 0
 111.256 228.098 94.5098 204.631 76.1348 183.29 c 0
 57.7588 161.947 37.5439 141.66 24.4326 116.736 c 0
 19.0566 106.517 14.9561 95.5693 12.9736 84.1934 c 0
 10.9912 72.8184 11.1699 61.0195 13.9854 49.8203 c 0
 16.8018 38.6221 22.2783 28.083 29.9561 19.458 c 0
 37.6338 10.833 47.4629 4.18555 58.2246 0 c 0
 77.2881 -7.41504 98.5811 -6.93262 118.713 -3.30762 c 0
 138.845 0.317383 158.451 6.37109 178.032 12.2881 c 0
 193.45 16.9473 208.909 21.7344 223.406 28.751 c 0
 237.902 35.7686 251.384 45.4307 260.978 58.3682 c 0
 267.463 67.1152 272.086 77.2148 274.611 87.8066 c 0
 277.136 98.3994 277.588 109.419 276.681 120.27 c 0
 274.864 141.973 267.74 162.857 264.049 184.32 c 0
 260.851 202.916 260.488 222.461 266.896 240.209 c 0
 273.302 257.956 286.829 273.362 304.333 280.409 c 0
 321.835 287.457 342.603 285.611 358.698 275.766 c 0
 374.795 265.92 385.73 248.778 390.001 230.4 c 0
 393.507 215.312 392.865 199.514 390.302 184.238 c 0
 387.738 168.962 383.331 154.066 379.695 139.009 c 0
 376.06 123.952 373.213 108.553 373.726 93.0723 c 0
 374.237 77.5908 378.295 62.0127 386.929 49.1523 c 0
 394.226 38.2812 404.763 29.5352 416.972 24.8076 c 0
 429.181 20.0801 442.932 19.4541 455.525 23.0303 c 0
 468.12 26.6064 479.439 34.3057 487.739 44.4307 c 0
 496.041 54.5547 501.334 66.9883 503.665 79.8721 c 0
 507.294 99.9365 503.845 120.701 497.65 140.126 c 0
 491.454 159.553 482.668 178.036 475.245 197.026 c 0
 467.822 216.017 461.825 235.737 459.989 256.044 c 0
 458.152 276.35 460.65 296.977 466.801 316.416 c 0
  Spiro
    466.8 316.416 o
    491.376 371.712 o
    307.056 680.974 o
    147.312 720.91 o
    73.5842 423.936 o
    119.664 254.976 o
    24.4322 116.736 o
    58.2242 0 o
    178.032 12.288 o
    260.976 58.368 o
    264.048 184.32 o
    390 230.4 o
    386.928 49.152 o
    503.664 79.872 o
    0 0 z
  EndSpiro
EndSplineSet
Validated: 41
EndChar

StartChar: B
Encoding: 66 66 1
Width: 592
VWidth: 0
InSpiro: 1
Flags: W
VStem: 84.9971 27.6309<444.85 501.291> 306.662 56.706<567.7 647.484>
LayerCount: 2
Fore
SplineSet
134.812 135.168 m 0
 139.919 126.442 147.632 119.343 156.528 114.536 c 0
 165.422 109.73 175.419 107.163 185.489 106.251 c 0
 205.627 104.429 225.833 108.581 245.404 113.664 c 0
 267.007 119.275 288.833 126.126 306.848 139.304 c 0
 315.856 145.894 323.719 154.238 328.828 164.16 c 0
 333.935 174.083 336.127 185.568 334.492 196.608 c 0
 332.813 207.946 327.107 218.58 318.857 226.536 c 0
 310.606 234.494 300.002 239.784 288.892 242.604 c 0
 266.671 248.239 243.143 244.866 220.828 239.616 c 0
 207.955 236.587 195.235 232.779 183.047 227.643 c 0
 170.861 222.504 159.154 215.902 149.451 206.913 c 0
 139.75 197.925 132.171 186.372 129.193 173.485 c 0
 126.215 160.599 128.131 146.583 134.812 135.168 c 0
  Spiro
    134.812 135.168 o
    245.404 113.664 o
    334.492 196.608 o
    220.828 239.616 o
    0 0 z
  EndSpiro
137.884 430.08 m 0
 146.956 427.893 156.8 429.951 164.702 434.915 c 0
 172.604 439.879 178.582 447.46 183.03 455.663 c 0
 191.928 472.068 195.884 490.865 205.468 506.88 c 0
 210.391 515.106 216.608 522.555 223.819 528.873 c 0
 231.03 535.192 239.16 540.38 247.509 545.094 c 0
 255.859 549.806 264.45 554.104 272.592 559.164 c 0
 280.735 564.227 288.46 570.137 294.556 577.536 c 0
 301.035 585.4 305.566 595.002 306.662 605.133 c 0
 307.756 615.264 305.32 625.777 299.673 634.259 c 0
 294.026 642.739 285.269 649.048 275.502 651.952 c 0
 265.736 654.857 255.098 654.4 245.404 651.264 c 0
 231.138 646.648 219.182 636.526 209.825 624.812 c 0
 200.468 613.098 193.335 599.799 186.113 586.66 c 0
 171.667 560.383 153.64 536.362 134.812 513.024 c 0
 129.543 506.492 124.459 499.764 120.404 492.414 c 0
 116.35 485.064 113.354 477.021 112.628 468.659 c 0
 111.901 460.297 113.574 451.628 118.027 444.515 c 0
 122.479 437.399 129.725 432.048 137.884 430.08 c 0
  Spiro
    137.884 430.08 o
    205.468 506.88 o
    294.556 577.536 o
    245.404 651.264 o
    134.812 513.024 o
    0 0 z
  EndSpiro
36.5078 36.8643 m 0
 24.6201 44.4248 15.1191 55.6592 9.59375 68.6201 c 0
 4.07129 81.5801 2.5 96.0508 4.0791 110.052 c 0
 7.23535 138.053 22.1191 163.165 36.5078 187.392 c 0
 48.4541 207.506 60.1914 227.859 68.75 249.631 c 0
 77.3076 271.402 82.707 294.387 84.9971 317.667 c 0
 89.5762 364.229 82.0449 411.01 79.5156 457.729 c 0
 75.6689 528.799 85.0088 603.066 122.524 663.552 c 0
 132.381 679.543 144.3 694.366 158.629 706.513 c 0
 172.959 718.66 189.686 728.067 207.71 733.361 c 0
 225.732 738.656 244.99 739.794 263.468 736.423 c 0
 281.949 733.053 299.583 725.188 314.479 713.743 c 0
 344.271 690.855 362.047 653.765 363.368 616.219 c 0
 364.687 578.673 350.315 541.033 325.276 513.024 c 0
 314.043 500.527 301.584 489.192 290.034 476.988 c 0
 278.483 464.783 267.838 451.465 260.764 436.224 c 0
 255.267 424.385 252 411.465 251.697 398.415 c 0
 251.394 385.365 254.061 372.271 259.33 360.328 c 0
 269.866 336.442 290.501 318.255 313.244 305.438 c 0
 335.987 292.618 360.949 284.22 384.164 272.277 c 0
 407.378 260.337 429.18 243.919 442.012 221.184 c 0
 453.919 200.092 457.17 174.195 450.307 150.969 c 0
 443.445 127.741 427.063 107.943 406.828 94.6338 c 0
 386.592 81.3232 362.903 74.1104 339.061 69.8408 c 0
 315.22 65.5723 290.997 63.959 266.908 61.4404 c 0
 218.878 56.418 172.44 42.4541 125.596 30.7197 c 0
 110.733 26.9971 95.5088 24.1621 80.1914 24.5107 c 0
 64.8721 24.8584 49.4365 28.6416 36.5078 36.8643 c 0
  Spiro
    36.5078 36.864 o
    36.5078 187.392 o
    79.5158 457.728 o
    122.524 663.552 o
    325.276 513.024 o
    260.764 436.224 o
    442.012 221.184 o
    266.908 61.44 o
    125.596 30.72 o
    0 0 z
  EndSpiro
EndSplineSet
Validated: 33
EndChar

StartChar: C
Encoding: 67 67 2
Width: 584
VWidth: 0
InSpiro: 1
Flags: W
LayerCount: 2
Fore
SplineSet
489.396 678.912 m 0
 480.742 704.344 461.663 725.245 439.556 740.507 c 0
 417.446 755.77 392.183 765.987 366.354 773.376 c 0
 314.696 788.155 260.296 794.207 206.772 789.504 c 0
 180.851 787.227 154.996 781.713 131.398 770.745 c 0
 107.799 759.778 86.7578 743.076 71.6045 721.92 c 0
 56.9688 701.484 48.0312 677.347 43.3965 652.641 c 0
 38.7627 627.935 38.0742 602.672 37.8125 577.536 c 0
 37.2266 520.992 34.4746 464.41 25.5244 408.576 c 0
 21.1953 381.568 16.3447 354.594 14.2422 327.321 c 0
 12.1416 300.05 13.0635 272.374 19.3809 245.76 c 0
 29.7061 202.263 54.6113 162.949 86.9648 132.096 c 0
 120.495 100.121 162.067 76.6807 206.772 64.5117 c 0
 247.671 53.3799 290.369 50.7637 332.725 49.1523 c 0
 356.9 48.2324 381.16 47.6738 405.252 49.8838 c 0
 429.344 52.0928 453.835 57.3447 474.037 70.6562 c 0
 487.977 79.8408 499.578 93.2607 504.255 109.285 c 0
 506.594 117.298 507.163 125.846 505.697 134.062 c 0
 504.231 142.278 500.721 150.126 495.541 156.672 c 0
 489.299 164.562 480.683 170.481 471.195 173.836 c 0
 461.71 177.191 451.434 178.03 441.426 176.991 c 0
 421.409 174.915 402.936 165.695 384.949 156.672 c 0
 368.864 148.602 352.577 140.609 335.163 136.071 c 0
 317.748 131.532 299.257 130.553 281.725 134.615 c 0
 264.192 138.676 247.889 147.754 235.05 160.364 c 0
 222.211 172.977 212.904 188.904 206.772 205.824 c 0
 197.134 232.42 195.025 261.035 191.602 289.116 c 0
 188.176 317.196 182.422 345.045 172.98 371.712 c 0
 165.72 392.226 156.738 412.188 151.328 433.267 c 0
 145.919 454.344 144.876 476.928 151.477 497.664 c 0
 157.732 517.317 170.324 534.41 184.804 549.101 c 0
 199.28 563.791 215.224 576.964 231.35 589.824 c 0
 242.938 599.065 254.892 608.034 268.221 614.519 c 0
 281.55 621.003 296.433 624.615 311.222 623.616 c 0
 324.619 622.711 337.536 618.117 349.533 612.085 c 0
 361.531 606.053 372.854 598.729 384.949 592.896 c 0
 398.425 586.396 413.132 581.876 428.09 582.125 c 0
 443.049 582.372 457.969 587.521 469.538 597.008 c 0
 481.107 606.493 489.12 620.081 492.364 634.688 c 0
 495.607 649.292 494.217 664.749 489.396 678.912 c 0
  Spiro
    489.397 678.912 o
    206.773 789.504 o
    71.6053 721.92 o
    37.8133 577.536 o
    25.5253 408.576 o
    19.3813 245.76 o
    86.9653 132.096 o
    206.773 64.512 o
    332.725 49.152 o
    474.037 70.656 o
    495.541 156.672 o
    384.949 156.672 o
    206.773 205.824 o
    172.981 371.712 o
    151.477 497.664 o
    231.349 589.824 o
    311.221 623.616 o
    384.949 592.896 o
    0 0 z
  EndSpiro
EndSplineSet
Validated: 41
EndChar

StartChar: D
Encoding: 68 68 3
Width: 691
VWidth: 0
InSpiro: 1
Flags: W
VStem: -0.90918 181.223<549.888 668.59>
LayerCount: 2
Fore
SplineSet
198.745 184.32 m 0
 206.958 176.683 216.972 171.04 227.685 167.73 c 0
 238.4 164.421 249.764 163.414 260.95 164.207 c 0
 283.322 165.793 304.676 174.21 324.697 184.32 c 0
 351.177 197.69 376.439 213.69 398.99 232.962 c 0
 421.541 252.234 440.834 276.135 450.649 304.128 c 0
 460.134 331.177 460.222 360.898 454.317 388.948 c 0
 448.413 416.996 437.454 443.708 426.073 470.016 c 0
 416.358 492.475 406.285 514.806 394.723 536.37 c 0
 383.159 557.936 369.791 578.811 352.345 595.968 c 0
 338.951 609.141 323.071 620.001 305.368 626.289 c 0
 287.665 632.576 268.17 634.116 249.894 629.764 c 0
 231.618 625.411 214.81 615.127 202.624 600.83 c 0
 190.438 586.533 183.012 568.479 180.313 549.888 c 0
 175.7 518.104 184.529 486.135 191.871 454.868 c 0
 199.213 423.602 203.564 391.179 198.745 359.424 c 0
 194.124 328.977 181.725 300.185 176.357 269.859 c 0
 173.673 254.697 173.027 238.991 176.434 223.975 c 0
 179.841 208.957 187.469 194.807 198.745 184.32 c 0
  Spiro
    198.745 184.32 o
    324.697 184.32 o
    450.649 304.128 o
    426.073 470.016 o
    352.345 595.968 o
    180.313 549.888 o
    198.745 359.424 o
    0 0 z
  EndSpiro
66.6494 771.072 m 0
 106.657 796.145 153.985 808.624 201.169 810.346 c 0
 248.351 812.068 295.807 800.316 336.985 777.216 c 0
 375.427 755.65 409.089 726.657 444.505 700.416 c 0
 472.037 680.016 500.561 660.543 524.377 635.904 c 0
 551.483 607.86 570.777 572.326 578.924 534.184 c 0
 587.07 496.043 585.213 456.398 579.673 417.792 c 0
 573.758 376.565 564.159 335.858 551.081 296.316 c 0
 538.003 256.774 520.762 218.336 496.729 184.32 c 0
 455.601 126.104 393.095 84.5664 324.697 64.5117 c 0
 284.8 52.8145 243.42 46.6855 201.964 43.5293 c 0
 181.235 41.9512 160.405 41.1982 139.656 42.4736 c 0
 118.907 43.749 98.0312 47.0771 78.9375 55.2959 c 0
 69.0518 59.5518 59.7012 65.1758 51.7178 72.3936 c 0
 43.7344 79.6123 37.1826 88.4482 32.8574 98.3037 c 0
 28.585 108.037 26.5166 118.682 26.4131 129.311 c 0
 26.3076 139.939 28.1123 150.521 30.8809 160.782 c 0
 36.4199 181.308 45.4414 200.746 51.2891 221.184 c 0
 56.8271 240.537 59.4023 260.698 59.2334 280.827 c 0
 59.0635 300.957 56.5889 320.985 54.3613 340.992 c 0
 49.1152 388.102 47.9854 435.762 39.001 482.304 c 0
 30.9268 524.125 14.1074 563.759 4.3623 605.223 c 0
 -0.509766 625.955 -3.13379 647.41 -0.90918 668.59 c 0
 1.31348 689.771 8.58203 710.462 20.5693 728.064 c 0
 32.4805 745.556 48.7168 759.834 66.6494 771.072 c 0
  Spiro
    66.649 771.072 o
    336.985 777.216 o
    444.505 700.416 o
    524.377 635.904 o
    579.673 417.792 o
    496.729 184.32 o
    324.697 64.512 o
    78.937 55.296 o
    32.857 98.304 o
    51.289 221.184 o
    54.361 340.992 o
    39.001 482.304 o
    20.569 728.064 o
    0 0 z
  EndSpiro
EndSplineSet
Validated: 33
EndChar

StartChar: E
Encoding: 69 69 4
Width: 615
VWidth: 0
InSpiro: 1
Flags: W
HStem: 70.1084 83.123<151.07 277.287> 640.49 161.277<177.037 324.255>
LayerCount: 2
Fore
SplineSet
442.813 761.856 m 0
 416.915 781.427 384.955 791.525 352.924 796.786 c 0
 320.892 802.045 288.262 802.822 255.818 801.768 c 0
 223.375 800.714 190.932 797.846 159.046 791.769 c 0
 127.158 785.689 95.417 776.209 68.0293 758.784 c 0
 52.0742 748.633 37.7656 735.626 27.3721 719.829 c 0
 16.9775 704.032 10.7803 685.5 9.66113 666.624 c 0
 8.68164 650.099 11.4844 633.513 16.2842 617.67 c 0
 21.084 601.825 27.7539 586.624 34.2373 571.392 c 0
 45.1299 545.8 55.123 519.553 59.2588 492.05 c 0
 63.3936 464.545 61.7041 436.293 55.3252 409.221 c 0
 42.5674 355.077 11.1514 306.49 0.445312 251.904 c 0
 -3.51172 231.73 -4.39551 210.808 -0.519531 190.618 c 0
 3.35547 170.43 12.0889 151.149 25.0215 135.168 c 0
 37.9844 119.148 54.9619 106.6 73.5518 97.708 c 0
 92.1416 88.8174 112.243 83.4277 132.541 79.8721 c 0
 171.635 73.0234 211.465 71.6094 251.125 70.1084 c 0
 290.785 68.6064 331.743 66.4297 369.085 79.8721 c 0
 383.25 84.9707 396.676 92.7197 406.896 103.775 c 0
 417.115 114.83 423.841 129.338 424.381 144.384 c 0
 424.812 156.389 421.286 168.502 414.457 178.384 c 0
 407.629 188.267 397.621 195.823 386.419 200.158 c 0
 375.216 204.492 362.92 205.66 350.974 204.398 c 0
 339.029 203.137 327.428 199.519 316.381 194.799 c 0
 294.289 185.36 274.212 171.636 252.001 162.48 c 0
 240.896 157.901 229.25 154.473 217.302 153.231 c 0
 205.354 151.989 193.125 152.984 181.693 156.672 c 0
 162.301 162.927 145.707 177.243 136.494 195.417 c 0
 127.281 213.592 125.296 235.032 129.469 254.976 c 0
 134.096 277.08 146.091 297.346 162.185 313.188 c 0
 178.28 329.027 198.356 340.113 218.558 350.208 c 0
 235.275 358.562 252.455 366.842 265.854 379.869 c 0
 272.553 386.384 278.194 394.067 281.834 402.674 c 0
 285.474 411.279 287.044 420.779 286.142 430.08 c 0
 285.056 441.256 280.379 451.964 273.396 460.758 c 0
 266.414 469.552 257.28 476.442 247.532 482.019 c 0
 228.038 493.169 205.938 499.731 187.837 513.024 c 0
 173.768 523.355 162.446 537.971 158.192 554.899 c 0
 153.938 571.829 157.026 590.417 166.333 605.184 c 0
 173.965 617.294 185.488 626.776 198.544 632.643 c 0
 211.601 638.51 226.089 640.84 240.398 640.49 c 0
 269.017 639.792 296.201 628.72 322.998 618.646 c 0
 349.794 608.572 377.952 599.51 406.477 601.942 c 0
 420.738 603.158 434.832 607.271 447.119 614.613 c 0
 459.406 621.955 469.781 632.537 476.605 645.12 c 0
 487.15 664.565 488.66 688.41 481.828 709.45 c 0
 474.995 730.489 460.462 748.52 442.813 761.856 c 0
  Spiro
    442.813 761.856 o
    68.0292 758.784 o
    9.66122 666.624 o
    34.2372 571.392 o
    0.445219 251.904 o
    25.0212 135.168 o
    132.541 79.872 o
    369.085 79.872 o
    424.381 144.384 o
    181.693 156.672 o
    129.469 254.976 o
    218.557 350.208 o
    286.141 430.08 o
    187.837 513.024 o
    166.333 605.184 o
    476.605 645.12 o
    0 0 z
  EndSpiro
EndSplineSet
Validated: 41
EndChar

StartChar: F
Encoding: 70 70 5
Width: 491
VWidth: 0
InSpiro: 1
Flags: W
VStem: 12.4209 98.3047<103.804 311.237>
LayerCount: 2
Fore
SplineSet
12.4209 150.528 m 0
 7.55566 183.354 15.2354 216.581 20.2939 249.377 c 0
 25.3535 282.174 28.2383 315.377 26.9775 348.537 c 0
 25.7168 381.698 20.7559 414.586 16.9502 447.552 c 0
 13.1436 480.517 10.9238 513.948 15.4932 546.816 c 0
 23.2422 602.562 52.4209 654.819 95.3652 691.2 c 0
 140.649 729.564 199.534 752.216 258.884 752.041 c 0
 288.559 751.954 318.417 745.965 345.034 732.844 c 0
 371.65 719.724 395.058 699.117 408.709 672.768 c 0
 421.697 647.699 425.067 617.164 414.924 590.815 c 0
 409.853 577.641 401.543 565.711 390.856 556.486 c 0
 380.17 547.262 367.163 540.798 353.413 537.6 c 0
 339.91 534.46 325.767 534.445 312.113 536.854 c 0
 298.461 539.262 285.31 544.041 272.785 549.985 c 0
 247.737 561.872 225.098 578.446 199.813 589.824 c 0
 181.989 597.845 162.524 603.154 143.026 601.795 c 0
 123.529 600.435 104.27 591.883 91.6289 576.975 c 0
 78.9902 562.067 73.7754 541.291 77.4443 522.094 c 0
 81.1143 502.897 93.084 486.117 107.653 473.088 c 0
 125.685 456.963 147.776 445.363 163.567 427.038 c 0
 171.462 417.875 177.598 407.024 180.205 395.213 c 0
 182.814 383.403 181.737 370.825 177.227 359.603 c 0
 173.555 350.469 167.737 342.3 160.919 335.199 c 0
 154.101 328.098 146.313 322.008 138.516 315.999 c 0
 130.717 309.99 122.873 303.99 115.871 297.069 c 0
 108.87 290.149 102.742 282.261 98.4375 273.408 c 0
 92.3926 260.978 90.2324 246.804 91.6426 233.054 c 0
 93.0527 219.304 97.792 206.134 102.92 193.299 c 0
 108.049 180.463 113.546 167.628 115.938 154.014 c 0
 118.328 140.401 117.281 125.832 110.726 113.664 c 0
 105.113 103.249 95.5049 94.9922 84.2529 91.3359 c 0
 73.002 87.6797 60.4131 88.6729 49.6465 93.5742 c 0
 38.8789 98.4766 30.002 107.072 23.8516 117.177 c 0
 17.7002 127.283 14.1553 138.825 12.4209 150.528 c 0
  Spiro
    12.4211 150.528 o
    15.4931 546.816 o
    95.3651 691.2 o
    408.709 672.768 o
    353.413 537.6 o
    199.813 589.824 o
    107.653 473.088 o
    177.226 359.603 o
    98.4371 273.408 o
    110.725 113.664 o
    0 0 z
  EndSpiro
EndSplineSet
Validated: 33
EndChar

StartChar: G
Encoding: 71 71 6
Width: 691
VWidth: 0
InSpiro: 1
Flags: W
HStem: 27.6484 45.4502<191.87 307.151> 659.47 116.927<204.354 337.338>
LayerCount: 2
Fore
SplineSet
521.125 706.561 m 0
 508.159 729.212 486.844 746.337 463.243 757.481 c 0
 439.641 768.626 413.691 774.18 387.687 776.396 c 0
 335.677 780.83 283.202 773.671 232.355 761.856 c 0
 186.232 751.139 140.485 735.266 102.098 707.542 c 0
 63.7109 679.818 34.752 638.882 23.4609 592.896 c 0
 13.8984 553.957 16.3408 513.17 20.3125 473.271 c 0
 24.2861 433.373 28.373 393.333 26.5322 353.28 c 0
 24.0322 298.87 10.6709 244.524 17.3154 190.464 c 0
 20.4189 165.228 28.2119 140.442 41.3369 118.665 c 0
 54.4609 96.8887 72.7812 78.3438 94.1172 64.5117 c 0
 120.386 47.4805 150.825 37.626 181.715 32.5303 c 0
 212.604 27.4355 244.072 26.6445 275.364 27.6484 c 0
 309.285 28.7363 343.255 31.8438 376.351 39.3477 c 0
 409.447 46.8525 441.884 59.335 468.899 79.8721 c 0
 499.654 103.25 522.443 137.716 528.848 175.812 c 0
 535.253 213.909 524.855 254.055 502.691 285.696 c 0
 487.307 307.661 466.844 325.803 444.213 340.189 c 0
 421.582 354.575 396.724 365.672 370.596 371.712 c 0
 356.768 374.909 342.522 376.58 328.354 375.745 c 0
 314.187 374.911 300.071 371.48 287.552 364.796 c 0
 275.032 358.111 264.219 348.098 257.126 335.806 c 0
 250.032 323.513 246.804 309.075 247.717 294.912 c 0
 248.606 281.083 253.334 267.682 260.133 255.606 c 0
 266.93 243.532 275.711 232.704 284.592 222.066 c 0
 293.474 211.431 302.507 200.842 309.832 189.079 c 0
 317.154 177.315 322.712 164.267 324.516 150.528 c 0
 326.897 132.398 322.227 113.269 310.938 98.8828 c 0
 299.651 84.4971 282.26 75.3418 264.112 73.0986 c 0
 245.966 70.8555 227.377 75.1729 211.03 83.3662 c 0
 194.683 91.5596 180.38 103.423 167.844 116.736 c 0
 140.347 145.939 119.774 181.482 106.613 219.374 c 0
 93.4531 257.266 89.7373 298.506 97.1875 337.92 c 0
 102.881 368.032 114.406 396.667 125.373 425.283 c 0
 136.341 453.899 145.875 483.1 152.483 513.024 c 0
 157.328 534.951 160.942 557.208 167.708 578.619 c 0
 174.471 600.032 185.067 620.747 201.636 635.904 c 0
 211.836 645.234 224.113 652.298 237.348 656.291 c 0
 250.584 660.283 264.678 661.203 278.391 659.47 c 0
 305.819 656.002 330.719 642.07 353.969 627.113 c 0
 377.22 612.155 400.401 595.979 427.075 588.709 c 0
 440.413 585.074 454.477 583.765 468.145 585.84 c 0
 481.812 587.914 495.002 593.438 505.764 602.112 c 0
 520.705 614.152 530.523 632.215 532.95 651.249 c 0
 535.378 670.282 530.656 689.908 521.125 706.561 c 0
  Spiro
    521.123 706.56 o
    232.354 761.856 o
    23.4584 592.896 o
    26.5304 353.28 o
    17.3144 190.464 o
    94.1144 64.512 o
    275.362 27.648 o
    468.899 79.872 o
    502.691 285.696 o
    370.595 371.712 o
    247.714 294.912 o
    324.515 150.528 o
    167.842 116.736 o
    97.1864 337.92 o
    152.482 513.024 o
    201.634 635.904 o
    505.763 602.112 o
    0 0 z
  EndSpiro
EndSplineSet
Validated: 41
EndChar

StartChar: H
Encoding: 72 72 7
Width: 671
VWidth: 0
InSpiro: 1
Flags: W
VStem: 375.187 191.185<120.201 291.773> 377.144 139.356<465.583 720.355> 377.925 150.863<270.337 315.795 467.525 721.252>
LayerCount: 2
Fore
SplineSet
67.9863 580.608 m 0x80
 60.8711 598.898 54.7461 617.684 51.7295 637.077 c 0
 48.7148 656.471 48.9023 676.545 54.1025 695.47 c 0
 59.3027 714.395 69.6865 732.066 84.6279 744.795 c 0
 99.5674 757.523 119.016 765.011 138.643 764.928 c 0
 159.661 764.839 180.421 755.95 195.288 741.095 c 0
 210.157 726.239 218.955 705.909 221.588 685.056 c 0
 225.639 652.965 215.661 620.988 206.464 589.979 c 0
 201.866 574.473 197.514 558.828 195.34 542.802 c 0
 193.164 526.776 193.233 510.317 197.011 494.592 c 0
 202.642 471.152 217.167 449.61 237.881 437.281 c 0
 258.594 424.952 284.746 422.424 307.603 430.08 c 0
 327.162 436.632 344.064 450.205 355.807 467.163 c 0
 367.549 484.12 374.235 504.23 377.144 524.651 c 0x40
 382.96 565.493 373.5 606.974 375.187 648.192 c 0x80
 376.107 670.682 380.912 693.596 393.367 712.346 c 0
 399.594 721.72 407.674 729.91 417.205 735.896 c 0
 426.733 741.884 437.694 745.616 448.916 746.496 c 0
 465.895 747.827 483.2 742.413 496.771 732.123 c 0
 510.344 721.834 520.123 707.02 525.835 690.975 c 0
 531.548 674.931 533.398 657.72 533.257 640.688 c 0
 533.115 623.657 531.076 606.701 528.788 589.824 c 0x20
 523.938 554.066 518.603 518.327 516.5 482.304 c 0
 515.184 459.799 514.926 437.208 516.5 414.72 c 0x40
 518.24 389.827 522.407 365.115 528.788 340.992 c 0x20
 537.579 307.755 550.826 275.812 559.281 242.487 c 0
 563.508 225.826 566.394 208.734 566.371 191.544 c 0x80
 566.346 174.354 563.328 157.061 556.435 141.312 c 0
 548.666 123.558 535.871 107.925 519.575 97.4346 c 0
 503.279 86.9453 483.617 81.7256 464.274 82.9443 c 0
 450.15 83.834 436.253 88.1084 424.065 95.3037 c 0
 411.88 102.498 401.451 112.593 393.653 124.403 c 0
 385.855 136.214 380.709 149.678 377.925 163.555 c 0x20
 375.141 177.43 374.703 191.681 375.187 205.824 c 0
 375.74 221.983 377.46 238.121 377.004 254.284 c 0
 376.549 270.446 373.668 286.836 365.971 301.056 c 0
 359.82 312.419 350.609 322.189 339.342 328.515 c 0
 328.075 334.841 314.886 337.637 302.008 336.571 c 0
 289.131 335.508 276.671 330.656 266.092 323.234 c 0
 255.514 315.812 246.8 305.911 240.019 294.912 c 0
 221.24 264.451 217.513 227.46 211.245 192.229 c 0
 208.111 174.613 204.232 157.04 197.707 140.38 c 0
 191.18 123.721 181.922 107.976 169.362 95.2324 c 0
 151.266 76.8672 125.829 65.3281 100.059 66.1709 c 0
 74.29 67.0127 49.3428 80.5117 34.1943 101.376 c 0
 19.583 121.501 14.1875 147.439 16.6084 172.19 c 0
 19.0303 196.941 28.668 220.468 40.5322 242.325 c 0
 52.3945 264.183 66.4531 284.773 78.8271 306.346 c 0
 91.2012 327.919 101.841 350.67 107.923 374.784 c 0
 116.648 409.387 115.169 446.139 106.06 480.643 c 0
 96.9531 515.146 80.9268 547.351 67.9863 580.608 c 0x80
  Spiro
    67.9879 580.608 o
    138.644 764.928 o
    221.588 685.056 o
    197.012 494.592 o
    307.604 430.08 o
    375.188 648.192 o
    448.916 746.496 o
    528.788 589.824 o
    516.5 482.304 o
    516.5 414.72 o
    528.788 340.992 o
    556.436 141.312 o
    464.276 82.944 o
    375.188 205.824 o
    365.972 301.056 o
    240.02 294.912 o
    169.364 95.232 o
    34.1959 101.376 o
    107.924 374.784 o
    0 0 z
  EndSpiro
EndSplineSet
Validated: 33
EndChar

StartChar: I
Encoding: 73 73 8
Width: 487
VWidth: 0
InSpiro: 1
Flags: W
VStem: 148.189 174.02<403.247 630.521>
LayerCount: 2
Fore
SplineSet
200.724 55.2959 m 0
 176.327 65.7148 155.012 83.085 139.283 104.448 c 0
 118.909 132.122 109.361 166.92 109.572 201.284 c 0
 109.783 235.649 118.837 269.274 128.09 302.37 c 0
 137.343 335.467 146.495 368.924 148.189 403.247 c 0
 149.881 437.57 143.517 472.184 130.068 503.808 c 0
 115.271 538.602 92.4619 569.378 75.6543 603.244 c 0
 67.248 620.179 60.4883 638.094 57.6543 656.784 c 0
 54.8203 675.476 56.0742 694.919 62.4844 712.704 c 0
 71.5889 737.968 91.3535 759.062 115.75 770.285 c 0
 140.148 781.51 168.393 783.172 194.579 777.216 c 0
 236.37 767.712 273.068 739.722 295.955 703.488 c 0
 309.868 681.464 318.78 656.345 322.209 630.521 c 0
 325.64 604.697 323.547 578.29 317.46 552.96 c 0
 302.65 491.341 264.516 437.178 250.598 375.351 c 0
 243.64 344.438 243.232 311.974 250.465 281.123 c 0
 257.698 250.271 272.568 221.877 286.74 193.536 c 0
 293.131 180.755 299.262 167.781 303.576 154.157 c 0
 307.89 140.533 310.321 126.165 309.144 111.922 c 0
 307.967 97.6797 303.029 83.6367 294.241 72.3672 c 0
 285.452 61.0986 272.891 52.8662 259.092 49.1523 c 0
 239.844 43.9717 219.056 47.4678 200.724 55.2959 c 0
  Spiro
    200.724 55.296 o
    139.284 104.448 o
    130.068 503.808 o
    62.484 712.704 o
    194.58 777.216 o
    295.956 703.488 o
    317.46 552.96 o
    286.74 193.536 o
    259.092 49.152 o
    0 0 z
  EndSpiro
EndSplineSet
Validated: 33
EndChar

StartChar: J
Encoding: 74 74 9
Width: 525
VWidth: 0
InSpiro: 1
Flags: W
LayerCount: 2
Fore
SplineSet
241.776 774.145 m 0
 255.446 792.731 277.306 805.072 300.298 807.013 c 0
 323.288 808.952 346.612 800.811 364.657 786.432 c 0
 389.5 766.635 404.26 736.177 410.037 704.94 c 0
 415.812 673.703 413.377 641.467 407.963 610.164 c 0
 397.137 547.561 376.966 486.794 367.729 423.936 c 0
 358.712 362.562 359.267 300.241 354.444 238.397 c 0
 349.624 176.553 335.802 114.225 303.217 61.4404 c 0
 277.6 19.9424 242.002 -14.457 204.455 -45.5801 c 0
 166.909 -76.7031 127.959 -106.134 91.249 -138.24 c 0
 64.0635 -162.016 37.9688 -187.048 10.0723 -209.983 c 0
 -17.8242 -232.921 -48.2383 -253.794 -82.6611 -264.723 c 0
 -99.8701 -270.186 -117.982 -273.058 -136.022 -272.274 c 0
 -154.062 -271.49 -172.01 -266.988 -187.959 -258.521 c 0
 -203.907 -250.053 -217.772 -237.594 -227.548 -222.41 c 0
 -237.321 -207.227 -242.924 -189.391 -243.599 -171.346 c 0
 -244.402 -149.897 -238.225 -128.379 -226.957 -110.11 c 0
 -215.688 -91.8428 -199.54 -76.8438 -181.319 -65.498 c 0
 -144.878 -42.8066 -101.506 -34.6885 -59.2793 -26.9619 c 0
 -12.3018 -18.3682 35.2881 -8.68652 77.376 13.8838 c 0
 119.461 36.4551 154.507 71.6787 177.265 113.664 c 0
 196.295 148.771 207.211 187.676 215.722 226.694 c 0
 224.229 265.711 231.188 305.054 239.729 344.064 c 0
 249.64 389.332 261.391 434.467 264.679 480.691 c 0
 267.967 526.915 259.927 573.314 245.873 617.472 c 0
 237.614 643.422 228.044 669.222 224.757 696.257 c 0
 223.114 709.771 223.134 723.562 225.769 736.921 c 0
 228.403 750.279 233.71 763.174 241.776 774.145 c 0
  Spiro
    241.777 774.144 o
    364.657 786.432 o
    367.729 423.936 o
    303.217 61.44 o
    91.249 -138.24 o
    -243.599 -171.346 o
    -59.279 -26.9622 o
    177.265 113.664 o
    239.729 344.064 o
    245.873 617.472 o
    0 0 z
  EndSpiro
EndSplineSet
Validated: 33
EndChar

StartChar: K
Encoding: 75 75 10
Width: 778
VWidth: 0
InSpiro: 1
Flags: W
HStem: 301.663 167.946<205.357 324.59>
VStem: 41.0127 142.481<53.3494 275.765>
LayerCount: 2
Fore
SplineSet
70.79 764.928 m 0
 77.1748 771.832 84.5947 777.838 92.9346 782.186 c 0
 101.274 786.533 110.542 789.172 119.941 789.504 c 0
 133.672 789.989 147.473 785.352 158.291 776.882 c 0
 169.107 768.412 176.881 756.405 181.382 743.424 c 0
 190.051 718.422 187.041 690.952 181.984 664.979 c 0
 176.93 639.003 170.019 613.198 169.094 586.752 c 0
 168.388 566.571 171.244 546.054 179.392 527.578 c 0
 187.541 509.102 201.055 492.898 218.246 482.304 c 0
 237.737 470.293 261.665 465.835 284.247 469.609 c 0
 306.83 473.384 327.725 485.1 344.062 501.14 c 0
 360.4 517.181 372.304 537.285 381.205 558.381 c 0
 390.104 579.476 396.167 601.633 402.565 623.616 c 0
 413.124 659.891 425.561 697.008 451.002 724.938 c 0
 463.723 738.901 479.548 750.232 497.358 756.525 c 0
 515.17 762.817 534.91 763.898 553.094 758.784 c 0
 570.323 753.938 585.965 743.521 596.94 729.384 c 0
 607.916 715.244 614.119 697.548 614.8 679.662 c 0
 615.481 661.776 610.736 643.87 602.283 628.093 c 0
 593.831 612.316 581.803 598.676 568.454 586.752 c 0
 548.869 569.259 526.408 555.229 506.765 537.802 c 0
 487.121 520.376 470.434 498.548 464.006 473.088 c 0
 459.777 456.342 460.051 438.527 464.477 421.832 c 0
 468.903 405.137 477.329 389.67 487.814 375.945 c 0
 508.79 348.497 537.185 327.837 562.31 304.128 c 0
 594.981 273.298 621.883 235.642 635.769 192.92 c 0
 642.711 171.559 646.728 149.184 646.861 126.722 c 0
 646.996 104.262 643.239 81.4131 632.966 61.4404 c 0
 625.054 46.0596 612.859 32.4922 597.204 25.1396 c 0
 581.548 17.7871 562.697 17.4238 546.949 24.5762 c 0
 538.438 28.4424 530.892 34.293 524.652 41.2559 c 0
 518.413 48.2178 513.453 56.251 509.331 64.6416 c 0
 501.085 81.4238 495.9 99.5293 488.582 116.736 c 0
 480.801 135.028 470.438 152.235 457.613 167.422 c 0
 444.789 182.609 429.931 195.941 414.854 208.896 c 0
 397.005 224.23 378.994 239.386 360.526 253.97 c 0
 342.059 268.552 322.797 282.52 301.189 291.84 c 0
 283.416 299.508 263.854 303.776 244.611 301.663 c 0
 225.369 299.551 206.806 290.698 193.67 276.48 c 0
 179.65 261.306 172.353 240.716 170.997 220.101 c 0
 169.639 199.485 173.708 178.946 177.721 158.68 c 0
 181.736 138.414 185.586 117.769 183.494 97.2139 c 0
 182.446 86.9375 179.904 76.7695 175.481 67.4336 c 0
 171.059 58.0986 164.734 49.6289 156.806 43.0078 c 0
 143.064 31.5342 124.416 26.1172 106.689 28.6191 c 0
 88.9639 31.1221 72.6973 41.2695 61.5732 55.2959 c 0
 53.0283 66.0713 47.3633 78.9688 44.2168 92.3564 c 0
 41.0703 105.743 40.3701 119.617 41.0127 133.354 c 0
 42.3008 160.828 48.5547 187.8 52.3574 215.04 c 0
 58.1768 256.72 56.7607 299.282 48.6826 340.584 c 0
 40.6055 381.887 28.0889 422.285 21.6377 463.872 c 0
 13.6699 515.238 15.2168 567.715 21.749 619.282 c 0
 25.0137 645.066 29.2812 670.787 36.2627 695.822 c 0
 43.2441 720.857 53.1416 745.848 70.79 764.928 c 0
  Spiro
    70.7896 764.928 o
    119.942 789.504 o
    181.382 743.424 o
    169.094 586.752 o
    218.246 482.304 o
    402.566 623.616 o
    553.094 758.784 o
    568.454 586.752 o
    464.006 473.088 o
    562.31 304.128 o
    632.966 61.44 o
    546.95 24.576 o
    488.582 116.736 o
    414.854 208.896 o
    301.19 291.84 o
    193.67 276.48 o
    156.806 43.008 o
    61.5736 55.296 o
    52.3576 215.04 o
    21.6376 463.872 o
    0 0 z
  EndSpiro
EndSplineSet
Validated: 33
EndChar

StartChar: L
Encoding: 76 76 11
Width: 718
VWidth: 0
InSpiro: 1
Flags: W
VStem: 92.001 149.591<366.727 743.017> 108.41 135.352<429.379 752.178>
LayerCount: 2
Fore
SplineSet
108.41 734.208 m 0x40
 115.337 746.123 124.879 756.638 136.606 763.875 c 0
 148.334 771.114 162.234 774.916 175.994 774.145 c 0
 193.81 773.144 210.859 764.309 222.674 750.938 c 0
 234.487 737.562 241.133 720.192 243.762 702.544 c 0x40
 249.019 667.246 240.349 631.535 237.435 595.968 c 0
 234.147 555.854 238.807 515.62 241.592 475.468 c 0
 244.376 435.315 240.665 394.627 228.219 356.352 c 0
 220.692 333.209 210.946 310.549 207.517 286.455 c 0
 205.802 274.408 205.798 262.026 208.556 250.175 c 0
 211.314 238.322 216.913 227.072 225.146 218.112 c 0
 233.958 208.522 245.71 201.718 258.369 198.658 c 0
 271.027 195.598 284.438 196.225 297.022 199.573 c 0
 322.194 206.27 343.248 223.097 363.387 239.616 c 0
 378.495 252.011 393.689 264.462 410.62 274.222 c 0
 427.552 283.982 446.245 291.004 465.676 293.104 c 0
 485.104 295.203 505.144 292.288 522.877 284.079 c 0
 540.613 275.87 555.898 262.405 566.139 245.76 c 0
 581.912 220.12 584.961 187.179 574.622 158.906 c 0
 564.283 130.634 541.231 107.882 513.914 95.2324 c 0
 477.319 78.2861 435.262 78.7695 395.056 81.9033 c 0
 354.85 85.0371 314.514 89.0195 274.299 86.0156 c 0
 238.931 83.374 204.101 75.7832 168.789 72.4717 c 0
 151.135 70.8164 133.281 70.417 115.706 72.7891 c 0
 98.1338 75.1602 80.8525 80.3848 65.4023 89.0879 c 0
 40.2686 103.247 20.7217 126.969 11.6055 154.337 c 0
 2.4873 181.706 3.58105 211.764 10.9688 239.648 c 0
 25.7441 295.419 62.3633 342.738 83.834 396.288 c 0
 105.188 449.547 108.785 508.461 101.833 565.42 c 0
 98.3574 593.899 93.1875 622.231 92.001 650.896 c 0x80
 90.8145 679.562 93.9932 709.402 108.41 734.208 c 0x40
  Spiro
    108.41 734.208 o
    175.994 774.144 o
    237.434 595.968 o
    228.218 356.352 o
    225.146 218.112 o
    363.386 239.616 o
    566.138 245.76 o
    513.914 95.232 o
    274.298 86.016 o
    65.4024 89.088 o
    83.8344 396.288 o
    0 0 z
  EndSpiro
EndSplineSet
Validated: 33
EndChar

StartChar: M
Encoding: 77 77 12
Width: 788
VWidth: 0
InSpiro: 1
Flags: W
VStem: 7.95215 92.6523<359.992 468.69>
LayerCount: 2
Fore
SplineSet
57.5635 153.6 m 0
 22.1514 210.424 12.9795 279.552 7.95215 346.318 c 0
 2.9248 413.085 2.47266 480.47 11.4844 546.816 c 0
 16.082 580.668 23.4395 614.291 35.8086 646.138 c 0
 48.1777 677.983 65.7891 708.476 91.3555 731.136 c 0
 103.089 741.535 116.509 750.142 131.181 755.665 c 0
 145.854 761.188 161.784 763.536 177.372 761.856 c 0
 197.592 759.677 216.91 750.506 231.67 736.515 c 0
 246.428 722.525 256.388 704.148 263.388 685.056 c 0
 270.178 666.537 274.546 647.151 282.232 628.987 c 0
 289.919 610.821 301.708 593.723 318.684 583.68 c 0
 328.879 577.649 340.671 574.317 352.516 574.265 c 0
 364.36 574.21 376.148 577.405 386.563 583.046 c 0
 407.395 594.33 421.786 614.699 432.348 635.904 c 0
 444.742 660.79 453.522 687.672 469.444 710.464 c 0
 477.405 721.858 487.08 732.146 498.51 740.06 c 0
 509.938 747.973 523.084 753.428 536.796 755.712 c 0
 553.069 758.423 569.949 756.643 585.626 751.507 c 0
 601.305 746.37 615.828 738.057 628.956 728.064 c 0
 649.263 712.607 666.606 693.235 679.645 671.299 c 0
 692.684 649.361 701.023 624.505 702.684 599.04 c 0
 704.032 578.371 700.997 557.556 695.095 537.702 c 0
 689.192 517.85 680.556 498.932 671.698 480.209 c 0
 662.843 461.485 653.792 442.796 646.985 423.234 c 0
 640.179 403.673 635.725 383.198 635.1 362.496 c 0
 634.211 333.041 641.437 303.782 652.796 276.591 c 0
 664.154 249.398 679.268 223.889 690.414 196.609 c 0
 701.562 169.331 708.338 139.233 702.525 110.343 c 0
 699.619 95.8984 693.603 82.0361 684.649 70.333 c 0
 675.697 58.6299 663.843 49.1758 650.46 43.0078 c 0
 633.062 34.9883 613.336 32.6211 594.304 34.7988 c 0
 575.271 36.9775 556.89 43.4355 539.868 52.2236 c 0
 517.157 63.9492 496.524 79.708 479.235 98.5312 c 0
 461.944 117.354 448.092 139.635 440.883 164.155 c 0
 433.672 188.677 433.569 215.315 441.188 239.712 c 0
 448.807 264.108 463.987 285.512 481.5 304.128 c 0
 493.206 316.572 505.903 328.078 517.219 340.878 c 0
 528.535 353.679 538.51 368.123 543.252 384.536 c 0
 547.995 400.95 546.943 419.376 538.385 434.163 c 0
 534.105 441.556 528.063 447.931 520.868 452.536 c 0
 513.674 457.143 505.361 459.957 496.86 460.8 c 0
 483.332 462.141 469.605 458.427 457.719 451.83 c 0
 445.832 445.233 435.67 435.947 426.104 426.288 c 0
 416.537 416.629 407.376 406.52 396.945 397.801 c 0
 386.516 389.08 374.703 381.799 361.692 377.856 c 0
 345.292 372.886 327.284 373.603 311.244 379.634 c 0
 295.204 385.664 281.407 396.591 269.6 409.01 c 0
 257.792 421.431 247.67 435.349 236.188 448.07 c 0
 224.708 460.793 211.521 472.4 195.804 479.232 c 0
 185.112 483.88 173.361 486.229 161.727 485.485 c 0
 150.093 484.742 138.651 480.88 129.04 474.28 c 0
 119.429 467.682 111.711 458.394 106.842 447.802 c 0
 101.972 437.209 99.9434 425.379 100.604 413.739 c 0
 101.927 390.459 113.886 368.81 129.637 351.617 c 0
 145.388 334.424 164.71 320.985 183.516 307.2 c 0
 207.974 289.272 232.114 269.777 248.234 244.094 c 0
 264.355 218.411 271.556 186.492 264.311 157.047 c 0
 257.065 127.602 235.207 102.123 207.139 90.6494 c 0
 179.069 79.1768 146.19 81.8008 119.004 95.2324 c 0
 93.3486 107.906 72.6982 129.314 57.5635 153.6 c 0
  Spiro
    57.5634 153.6 o
    11.4834 546.816 o
    91.3554 731.136 o
    177.371 761.856 o
    263.387 685.056 o
    318.683 583.68 o
    432.347 635.904 o
    536.795 755.712 o
    628.955 728.064 o
    702.683 599.04 o
    635.099 362.496 o
    650.459 43.008 o
    539.867 52.224 o
    481.499 304.128 o
    496.859 460.8 o
    361.691 377.856 o
    195.803 479.232 o
    183.515 307.2 o
    119.003 95.232 o
    0 0 z
  EndSpiro
EndSplineSet
Validated: 33
EndChar

StartChar: N
Encoding: 78 78 13
Width: 693
VWidth: 0
InSpiro: 1
Flags: W
VStem: 81.7139 144.367<114.118 203.768>
LayerCount: 2
Fore
SplineSet
94.1084 132.096 m 0
 83.4229 156.55 81.1787 183.877 81.7139 210.558 c 0
 82.25 237.239 85.4023 263.793 87.1289 290.424 c 0
 90.584 343.686 85.6768 397.639 69.5322 448.512 c 0
 54.8145 494.888 32.2617 539.048 24.0322 587.002 c 0
 19.917 610.979 19.7881 635.938 26.4863 659.325 c 0
 33.1865 682.712 46.9951 704.256 66.46 718.848 c 0
 87.0381 734.274 113.56 741.413 139.141 738.771 c 0
 164.723 736.129 188.927 724.062 207.772 706.561 c 0
 236.731 679.665 252.532 641.223 260.415 602.496 c 0
 268.3 563.77 268.797 523.706 278.428 485.376 c 0
 283.704 464.378 292.125 443.782 306.064 427.215 c 0
 320.003 410.646 339.844 398.597 361.372 396.288 c 0
 376.668 394.646 392.467 397.953 405.778 405.669 c 0
 419.087 413.385 429.777 425.381 436.406 439.265 c 0
 443.034 453.147 445.652 468.78 444.938 484.148 c 0
 444.224 499.517 440.271 514.609 434.623 528.92 c 0
 423.33 557.541 405.438 583.068 392.417 610.948 c 0
 385.908 624.887 380.613 639.49 378.052 654.66 c 0
 375.491 669.83 375.736 685.579 379.804 700.416 c 0
 383.908 715.382 391.968 729.324 403.321 739.902 c 0
 414.674 750.481 429.262 757.571 444.618 759.803 c 0
 459.976 762.034 475.962 759.396 489.906 752.586 c 0
 503.849 745.774 515.674 734.895 524.188 721.92 c 0
 533.72 707.393 539.121 690.383 541.17 673.129 c 0
 543.218 655.873 542.031 638.363 539.357 621.194 c 0
 534.006 586.855 523.351 553.513 518.044 519.168 c 0
 510.856 472.646 515.147 425.039 524.985 379.004 c 0
 534.823 332.969 548.179 286.36 542.62 239.616 c 0
 540.134 218.709 533.763 198.129 522.78 180.167 c 0
 511.796 162.204 496.166 147.001 477.546 137.175 c 0
 458.925 127.349 437.439 123.024 416.473 124.937 c 0
 395.505 126.849 375.234 134.944 358.3 147.456 c 0
 333.896 165.486 317.068 192.231 306.166 220.548 c 0
 295.266 248.865 290.009 279.154 278.428 307.2 c 0
 272.418 321.754 264.4 335.739 252.996 346.597 c 0
 241.591 357.455 226.575 364.875 210.844 365.568 c 0
 197.604 366.151 184.186 361.877 173.808 353.633 c 0
 163.429 345.39 156.245 333.385 153.263 320.471 c 0
 150.282 307.558 151.387 293.893 155.253 281.215 c 0
 159.12 268.539 165.64 256.812 173.092 245.853 c 0
 187.996 223.934 206.794 204.367 217.642 180.181 c 0
 223.066 168.089 226.393 154.915 226.081 141.665 c 0
 225.77 128.416 221.696 115.179 213.916 104.448 c 0
 206.557 94.2979 195.949 86.5391 184.037 82.6289 c 0
 172.124 78.7197 159.042 78.6602 146.979 82.0752 c 0
 134.915 85.4902 123.914 92.2861 114.979 101.079 c 0
 106.041 109.873 99.127 120.606 94.1084 132.096 c 0
  Spiro
    94.108 132.096 o
    69.532 448.512 o
    66.46 718.848 o
    207.772 706.56 o
    278.428 485.376 o
    361.372 396.288 o
    379.804 700.416 o
    524.188 721.92 o
    518.044 519.168 o
    542.62 239.616 o
    358.3 147.456 o
    278.428 307.2 o
    210.844 365.568 o
    213.916 104.448 o
    0 0 z
  EndSpiro
EndSplineSet
Validated: 33
EndChar

StartChar: O
Encoding: 79 79 14
Width: 627
VWidth: 0
InSpiro: 1
Flags: W
VStem: 2.44043 118.644<276.468 455.915>
LayerCount: 2
Fore
SplineSet
162.185 236.544 m 0
 185.514 213.983 216.563 200.768 248.2 193.536 c 0
 272.169 188.058 297.104 185.693 321.424 189.314 c 0
 345.741 192.934 369.436 203.426 386.44 221.184 c 0
 399.578 234.902 408.375 252.552 412.251 271.147 c 0
 416.126 289.741 415.271 309.086 411.842 327.768 c 0
 404.985 365.132 389.858 400.398 377.225 436.224 c 0
 368.085 462.14 359.537 488.517 345.73 512.275 c 0
 338.827 524.155 330.493 535.286 320.332 544.535 c 0
 310.171 553.784 298.157 561.082 285.064 565.248 c 0
 268.555 570.501 250.48 570.585 233.857 565.701 c 0
 217.233 560.818 202.21 551.164 189.909 538.963 c 0
 165.307 514.561 151.335 481.484 140.681 448.512 c 0
 129.144 412.805 120.336 375.669 121.084 338.152 c 0
 121.459 319.394 124.558 300.594 131.352 283.106 c 0
 138.147 265.617 148.697 249.587 162.185 236.544 c 0
  Spiro
    162.185 236.544 o
    248.201 193.536 o
    386.441 221.184 o
    377.225 436.224 o
    285.065 565.248 o
    140.681 448.512 o
    0 0 z
  EndSpiro
2.44043 436.224 m 0
 7.00781 471.46 18.3701 505.434 30.8008 538.717 c 0
 43.2334 572 55.8955 605.21 66.9531 638.976 c 0
 74.8799 663.186 82.2744 687.634 92.4424 710.991 c 0
 102.61 734.349 116.026 756.642 134.537 774.145 c 0
 149.76 788.538 168.275 799.455 188.304 805.604 c 0
 208.332 811.75 229.689 813.166 250.491 810.674 c 0
 292.096 805.69 330.82 786.183 364.937 761.856 c 0
 390.65 743.521 414.265 721.969 433.243 696.727 c 0
 452.223 671.484 465.942 642.23 472.456 611.328 c 0
 478.704 581.698 478.44 551.109 477.048 520.86 c 0
 475.655 490.611 473.845 460.314 475.528 430.08 c 0
 477.616 392.578 485.414 355.615 488.519 318.184 c 0
 490.071 299.468 490.189 280.549 487.323 261.988 c 0
 484.456 243.429 478.52 225.305 469.385 208.896 c 0
 458.299 188.983 442.645 171.856 424.996 157.436 c 0
 407.349 143.015 387.872 130.981 368.009 119.808 c 0
 341.585 104.943 314.377 91.166 285.572 81.708 c 0
 256.769 72.25 225.744 67.9775 195.977 73.7275 c 0
 166.105 79.499 138.677 95.3555 116.884 116.584 c 0
 95.0908 137.814 78.3975 163.728 63.8809 190.464 c 0
 43.4004 228.182 26.083 267.75 14.0508 308.948 c 0
 2.01758 350.146 -3.07715 393.661 2.44043 436.224 c 0
  Spiro
    2.44111 436.224 o
    66.9531 638.976 o
    134.537 774.144 o
    364.937 761.856 o
    472.457 611.328 o
    475.529 430.08 o
    469.385 208.896 o
    368.009 119.808 o
    195.977 73.728 o
    63.8811 190.464 o
    0 0 z
  EndSpiro
EndSplineSet
Validated: 33
EndChar

StartChar: P
Encoding: 80 80 15
Width: 566
VWidth: 0
InSpiro: 1
Flags: W
LayerCount: 2
Fore
SplineSet
134.096 482.304 m 0
 138.165 469.768 144.788 457.985 153.904 448.466 c 0
 163.019 438.947 174.674 431.773 187.438 428.488 c 0
 200.203 425.204 213.982 425.906 226.296 430.611 c 0
 238.607 435.316 249.287 443.951 256.976 454.656 c 0
 265.389 466.367 270.274 480.322 272.878 494.505 c 0
 275.479 508.688 276.076 523.196 275.408 537.6 c 0
 274.872 549.151 273.451 560.721 270.191 571.816 c 0
 266.934 582.912 261.673 593.546 253.904 602.112 c 0
 246.706 610.048 237.379 616.075 227.111 619.135 c 0
 216.844 622.195 205.75 622.282 195.355 619.68 c 0
 184.963 617.078 175.301 611.861 167.047 605.029 c 0
 158.794 598.198 151.908 589.788 146.384 580.608 c 0
 137.62 566.044 132.145 549.565 129.938 532.713 c 0
 127.73 515.858 128.848 498.472 134.096 482.304 c 0
  Spiro
    134.096 482.304 o
    256.976 454.656 o
    275.408 537.6 o
    253.904 602.112 o
    146.384 580.608 o
    0 0 z
  EndSpiro
26.5762 64.5117 m 0
 13.1123 80.4238 5.85352 100.94 3.47949 121.648 c 0
 1.10645 142.356 3.30469 163.336 6.89746 183.867 c 0
 14.0869 224.931 25.1289 265.537 26.5762 307.2 c 0
 28.5703 364.65 14.6191 421.812 17.3594 479.232 c 0
 18.8506 510.462 24.9365 541.274 31.7021 571.799 c 0
 38.4678 602.323 44.7656 632.945 51.1514 663.552 c 0
 54.4746 679.475 58.0986 695.394 63.7275 710.653 c 0
 69.3574 725.914 77.1777 740.511 88.0156 752.64 c 0
 101.469 767.696 119.551 778.487 139.132 783.407 c 0
 158.714 788.327 179.383 787.581 199.221 783.824 c 0
 238.895 776.309 276.197 759.475 315.344 749.568 c 0
 336.741 744.153 358.503 740.232 379.823 734.523 c 0
 401.144 728.812 422.341 720.807 439.378 706.776 c 0
 447.896 699.761 455.266 691.285 460.621 681.636 c 0
 465.976 671.985 469.271 661.179 470.019 650.167 c 0
 470.766 639.157 468.951 628.004 464.939 617.723 c 0
 460.931 607.441 454.765 598.079 447.439 589.824 c 0
 432.977 573.523 414.381 561.51 398.288 546.816 c 0
 385.068 534.747 373.653 520.68 364.935 505.047 c 0
 356.215 489.415 350.087 472.504 343.716 455.777 c 0
 337.344 439.05 330.401 422.324 319.883 407.842 c 0
 309.364 393.359 295.08 381.479 278.479 374.784 c 0
 259.312 367.053 238.041 366.532 217.424 367.957 c 0
 196.807 369.383 175.977 372.084 155.6 368.64 c 0
 135.506 365.243 116.22 355.303 103.492 339.387 c 0
 90.7646 323.472 85.1826 302.432 86.667 282.106 c 0
 88.1514 261.782 96.1562 242.458 106.067 224.652 c 0
 115.979 206.847 127.771 190.116 137.168 172.032 c 0
 143.202 160.417 148.243 148.213 151.107 135.44 c 0
 153.974 122.669 154.616 109.321 152.173 96.4619 c 0
 149.728 83.6025 144.146 71.2881 135.683 61.3037 c 0
 127.219 51.3193 115.894 43.7598 103.376 39.9355 c 0
 89.7549 35.7754 74.8477 36.0986 61.333 40.5908 c 0
 47.8164 45.083 35.7744 53.6396 26.5762 64.5117 c 0
  Spiro
    26.5758 64.512 o
    26.5758 307.2 o
    17.3598 479.232 o
    51.1518 663.552 o
    88.0158 752.64 o
    315.344 749.568 o
    447.44 589.824 o
    398.288 546.816 o
    278.48 374.784 o
    155.6 368.64 o
    137.168 172.032 o
    103.376 39.936 o
    0 0 z
  EndSpiro
EndSplineSet
Validated: 33
EndChar

StartChar: Q
Encoding: 81 81 16
Width: 858
VWidth: 0
InSpiro: 1
Flags: W
HStem: -104.655 147.78<753.96 830.628> 36.8643 123.642<158.05 411.608> 61.4404 96.7705<294.54 511.503>
LayerCount: 2
Fore
SplineSet
124.839 325.632 m 0x40
 145.593 375.006 185.506 413.707 226.215 448.512 c 0
 251.676 470.28 278.567 490.663 308.221 506.245 c 0
 337.874 521.826 370.899 532.117 404.391 531.456 c 0
 433.959 530.872 463.347 521.479 487.512 504.428 c 0
 511.676 487.378 530.28 463.096 542.631 436.224 c 0
 557.644 403.562 564.507 367.622 567.207 331.776 c 0
 569.241 304.782 568.685 277.266 561.522 251.159 c 0
 554.362 225.055 539.632 200.667 518.055 184.32 c 0
 504.628 174.147 488.914 167.166 472.551 163.162 c 0
 456.188 159.158 439.238 158.031 422.393 158.211 c 0x20
 388.703 158.572 355.138 162.934 321.447 162.816 c 0
 295.998 162.727 270.593 160.44 245.145 160.506 c 0
 219.697 160.57 193.681 163.723 170.919 175.104 c 0
 144.901 188.114 124.664 212.302 116.954 240.351 c 0
 109.245 268.399 113.566 298.815 124.839 325.632 c 0x40
  Spiro
    124.839 325.632 o
    226.215 448.512 o
    404.391 531.456 o
    542.631 436.224 o
    567.207 331.776 o
    518.055 184.32 o
    321.447 162.816 o
    170.919 175.104 o
    0 0 z
  EndSpiro
364.455 697.344 m 0
 328.614 703.829 290.993 703.388 256.524 691.62 c 0
 222.056 679.854 192.003 656.387 170.919 626.688 c 0
 154.845 604.046 143.651 578.357 133.305 552.59 c 0
 122.958 526.822 112.894 500.889 100.263 476.16 c 0
 78.7578 434.058 49.1836 396.312 29.6064 353.28 c 0
 13.6475 318.201 5.93945 279.027 10.4795 240.758 c 0
 15.0195 202.488 30.9883 165.944 54.1826 135.168 c 0
 78.9033 102.37 111.806 75.7266 149.17 58.6807 c 0
 186.536 41.6338 228.199 34.9004 269.223 36.8643 c 0x40
 305.372 38.5947 340.859 46.6826 376.405 53.4873 c 0
 411.949 60.292 448.28 65.3018 484.263 61.4404 c 0
 533.37 56.1699 579.185 32.5176 616.358 0 c 0
 648.413 -28.0391 675.742 -62.0117 711.978 -84.3867 c 0
 730.096 -95.5752 750.589 -103.526 771.854 -104.655 c 0
 793.116 -105.782 815.04 -99.6475 831.398 -86.0156 c 0
 846.994 -73.0195 856.932 -53.2939 857.459 -32.999 c 0
 857.987 -12.7051 849.096 7.42285 834.471 21.5039 c 0
 823.912 31.6699 810.646 38.7959 796.643 43.125 c 0xa0
 782.639 47.4531 767.925 49.0781 753.273 49.5186 c 0
 723.973 50.4004 694.341 46.9111 665.511 52.2236 c 0
 641.665 56.6182 618.481 67.5752 602.654 85.9434 c 0
 586.825 104.312 579.386 129.562 582.566 153.6 c 0
 585.002 172.009 593.244 189.369 604.618 204.045 c 0
 615.994 218.723 630.341 230.833 645.292 241.844 c 0
 675.198 263.865 708.101 283.366 730.022 313.344 c 0
 749.392 339.83 758.657 373.583 754.848 406.174 c 0
 751.039 438.765 735.307 469.088 714.663 494.592 c 0
 671.669 547.708 611.783 584.235 552.616 618.424 c 0
 493.447 652.611 431.699 685.177 364.455 697.344 c 0
  Spiro
    364.455 697.344 o
    170.919 626.688 o
    100.263 476.16 o
    29.607 353.28 o
    54.183 135.168 o
    269.223 36.864 o
    484.263 61.44 o
    616.359 0 o
    831.399 -86.016 o
    834.471 21.504 o
    665.511 52.224 o
    582.567 153.6 o
    730.023 313.344 o
    714.663 494.592 o
    0 0 z
  EndSpiro
EndSplineSet
Validated: 41
EndChar

StartChar: R
Encoding: 82 82 17
Width: 622
VWidth: 0
InSpiro: 1
Flags: W
HStem: 272.772 138.876<139.068 207.472>
VStem: 17.6191 81.8486<156.597 266.566> 29.2959 93.0371<77.0617 216.298 453.304 619.332>
LayerCount: 2
Fore
SplineSet
133.743 473.088 m 0x80
 140.521 457.853 150.281 443.836 162.896 432.93 c 0
 175.509 422.023 191.021 414.377 207.472 411.648 c 0
 222.659 409.129 238.49 410.83 252.889 416.281 c 0
 267.286 421.733 280.197 430.833 290.718 442.073 c 0
 311.757 464.555 323.298 494.779 327.279 525.312 c 0
 331.31 556.202 327.858 588.675 313.516 616.327 c 0
 306.344 630.153 296.356 642.602 283.945 652.014 c 0
 271.534 661.425 256.71 667.691 241.264 669.696 c 0
 219.559 672.513 197.061 666.68 178.769 654.659 c 0
 160.475 642.641 146.312 624.904 136.815 605.184 c 0
 126.972 584.741 121.853 562.113 121.232 539.432 c 0
 120.615 516.75 124.52 493.818 133.743 473.088 c 0x80
  Spiro
    133.743 473.088 o
    207.471 411.648 o
    327.279 525.312 o
    241.263 669.696 o
    136.815 605.184 o
    0 0 z
  EndSpiro
29.2959 104.448 m 0xa0
 18.3496 126.927 16.8027 152.809 17.6191 177.798 c 0
 18.4365 202.787 21.5205 227.641 23.6836 252.549 c 0
 28.0078 302.365 27.7852 352.451 26.2236 402.432 c 0
 23.8457 478.512 20.6895 555.759 38.5117 629.76 c 0
 46.7275 663.876 60.1348 697.171 81.5195 724.992 c 0
 108.68 760.327 148.91 785.146 192.54 794.239 c 0
 236.171 803.331 282.029 797.758 324.207 783.36 c 0
 375.228 765.945 422.378 736.555 459.375 697.344 c 0
 481.34 674.066 499.527 646.846 509.994 616.602 c 0
 520.462 586.357 522.727 553.041 514.507 522.111 c 0
 506.286 491.18 487.554 463.446 463.038 442.873 c 0
 438.522 422.299 408.81 409.148 379.504 396.288 c 0
 358.297 386.981 336.924 377.221 319.124 362.404 c 0
 301.326 347.588 287.608 327.045 284.271 304.128 c 0
 282.264 290.335 283.995 276.037 289.11 263.069 c 0
 294.227 250.104 302.631 238.549 312.865 229.086 c 0
 333.335 210.16 360.26 200.188 386.341 190.344 c 0
 412.422 180.499 439.2 169.244 457.635 148.331 c 0
 466.853 137.875 473.688 125.177 476.395 111.504 c 0
 479.102 97.8311 477.549 83.291 471.663 70.6562 c 0
 464.446 55.1611 450.775 42.9414 434.8 36.8643 c 0
 423.61 32.6074 411.408 31.2285 399.487 32.3291 c 0
 387.568 33.4287 375.938 36.958 365.112 42.0723 c 0
 343.468 52.2998 325.146 68.4785 308.848 86.0156 c 0
 286.759 109.785 267.869 136.377 250.798 163.971 c 0
 233.724 191.563 219.814 221.51 198.256 245.76 c 0
 188.232 257.033 175.924 266.806 161.452 271.065 c 0
 154.218 273.195 146.528 273.887 139.068 272.772 c 0
 131.61 271.658 124.417 268.717 118.384 264.192 c 0
 112.565 259.83 107.858 254.024 104.672 247.489 c 0
 101.483 240.954 99.8076 233.724 99.4678 226.46 c 0xc0
 98.7881 211.934 103.402 197.671 109.167 184.32 c 0
 113.448 174.405 118.354 164.762 122.333 154.724 c 0
 126.312 144.684 129.357 134.163 129.948 123.382 c 0
 130.539 112.599 128.568 101.563 123.423 92.0703 c 0
 118.275 82.5762 109.923 74.8018 99.9512 70.6562 c 0
 93.2891 67.8857 85.9785 66.7188 78.7793 67.1943 c 0
 71.5801 67.6699 64.5146 69.7715 58.1318 73.1357 c 0
 45.3672 79.8652 35.6123 91.4746 29.2959 104.448 c 0xa0
  Spiro
    29.2953 104.448 o
    26.2233 402.432 o
    38.5113 629.76 o
    81.5193 724.992 o
    324.207 783.36 o
    459.375 697.344 o
    379.503 396.288 o
    284.271 304.128 o
    471.663 70.656 o
    434.799 36.864 o
    308.847 86.016 o
    198.255 245.76 o
    118.383 264.192 o
    109.167 184.32 o
    99.9513 70.656 o
    0 0 z
  EndSpiro
EndSplineSet
Validated: 33
EndChar

StartChar: S
Encoding: 83 83 18
Width: 623
VWidth: 0
InSpiro: 1
Flags: W
HStem: 522.24 221.184<203.819 437.293>
LayerCount: 2
Fore
SplineSet
428.076 712.704 m 0
 355.948 735.392 279.412 741.725 203.819 743.424 c 0
 166.507 744.263 128.514 741.418 93.5693 728.31 c 0
 58.626 715.202 27.1953 690.679 10.2842 657.408 c 0
 -0.19043 636.8 -4.9375 613.329 -3.33105 590.268 c 0
 -1.72559 567.206 6.14551 544.729 18.4941 525.185 c 0
 43.1914 486.1 84.4277 460.354 127.02 442.368 c 0
 166.838 425.553 208.784 414.013 248.093 396.039 c 0
 287.401 378.067 324.619 352.637 348.204 316.416 c 0
 364.91 290.759 374.23 260 372.509 229.431 c 0
 370.787 198.862 357.772 168.896 335.916 147.456 c 0
 319.224 131.082 297.6 119.828 274.629 115.459 c 0
 251.66 111.09 227.627 113.644 205.53 121.288 c 0
 183.433 128.932 163.41 141.518 144.187 154.83 c 0
 124.964 168.141 106.011 182.541 84.0117 190.464 c 0
 69.9854 195.516 54.5059 197.609 40.0947 193.79 c 0
 32.8896 191.88 26.0479 188.499 20.3213 183.729 c 0
 14.5938 178.956 10.0137 172.796 7.21191 165.888 c 0
 2.77637 154.952 3.03516 142.279 7.55957 131.379 c 0
 12.084 120.479 20.6152 111.49 30.7168 105.387 c 0
 40.8174 99.2842 52.3848 95.9248 64.0557 94.1768 c 0
 75.7275 92.4287 87.5703 92.2021 99.3721 92.1602 c 0
 122.721 92.0771 146.174 92.125 169.242 88.5088 c 0
 192.309 84.8936 214.713 77.9248 236.718 70.1152 c 0
 258.723 62.3047 280.635 53.8486 303.559 49.4053 c 0
 326.481 44.9629 350.59 44.959 372.779 52.2236 c 0
 396.962 60.1406 417.943 76.5371 433.098 96.9766 c 0
 448.252 117.417 458.1 141.38 464.939 165.888 c 0
 475.766 204.679 480.457 245.826 473.244 285.449 c 0
 469.639 305.261 462.713 324.562 451.967 341.592 c 0
 441.221 358.622 426.639 373.199 409.645 384 c 0
 388.059 397.719 363.015 405.045 337.861 409.672 c 0
 312.708 414.298 287.045 416.63 262.503 423.828 c 0
 237.961 431.027 214.159 443.966 199.381 464.84 c 0
 191.992 475.277 187.039 487.497 185.559 500.198 c 0
 184.079 512.9 186.124 526.013 191.532 537.6 c 0
 196.345 547.912 203.772 556.967 212.842 563.84 c 0
 221.912 570.714 232.571 575.403 243.688 577.833 c 0
 265.923 582.693 289.309 578.41 310.577 570.309 c 0
 331.845 562.206 351.537 550.526 372.078 540.726 c 0
 392.62 530.926 414.547 523.02 437.293 522.24 c 0
 450.662 521.782 464.168 523.807 476.609 528.719 c 0
 489.051 533.632 500.371 541.444 509.17 551.52 c 0
 517.971 561.594 524.203 573.89 527.139 586.939 c 0
 530.076 599.99 529.717 613.734 526.381 626.688 c 0
 520.705 648.726 506.51 668.01 488.721 682.203 c 0
 470.934 696.396 449.785 705.876 428.076 712.704 c 0
  Spiro
    428.077 712.704 o
    203.821 743.424 o
    10.2845 657.408 o
    127.021 442.368 o
    348.205 316.416 o
    335.917 147.456 o
    84.0125 190.464 o
    7.21252 165.888 o
    99.3725 92.16 o
    372.781 52.224 o
    464.941 165.888 o
    409.645 384 o
    191.533 537.6 o
    437.293 522.24 o
    526.381 626.688 o
    0 0 z
  EndSpiro
EndSplineSet
Validated: 41
EndChar

StartChar: T
Encoding: 84 84 19
Width: 786
VWidth: 0
InSpiro: 1
Flags: W
HStem: 514.217 137.047<463.331 656.392> 517.686 141.819<30.4286 257.322>
VStem: 275.99 167.457<69.3691 233.346>
LayerCount: 2
Fore
SplineSet
275.99 141.312 m 0xa0
 278.357 172.381 288.322 202.302 297.889 231.956 c 0
 307.453 261.612 316.807 291.523 320.969 322.404 c 0
 325.129 353.285 324.025 385.172 314.818 414.941 c 0
 305.612 444.71 288.145 472.194 263.702 491.52 c 0
 245.134 506.202 222.614 515.753 199.19 519.168 c 0
 175.729 522.588 151.879 519.89 128.273 517.686 c 0
 104.667 515.481 80.2344 514.346 57.8779 522.24 c 0
 45.96 526.448 34.8604 533.21 26.1943 542.412 c 0
 17.5283 551.612 11.3945 563.232 9.0166 575.646 c 0
 6.64062 588.061 8.05664 601.162 12.958 612.812 c 0
 17.8613 624.462 26.1777 634.579 36.374 642.048 c 0
 54.2754 655.161 77.2217 659.751 99.4092 659.505 c 0x60
 121.6 659.261 143.501 654.86 165.398 651.264 c 0
 198.351 645.852 231.772 643.095 265.145 644.317 c 0
 298.517 645.541 331.731 649.487 365.078 651.264 c 0
 400.362 653.145 435.724 652.521 471.055 652.083 c 0
 506.386 651.643 541.751 652.922 577.047 651.264 c 0
 592.402 650.542 607.808 648.977 622.625 644.886 c 0
 637.444 640.794 651.728 634.002 663.062 623.616 c 0
 670.52 616.782 676.629 608.42 680.494 599.072 c 0
 684.358 589.724 685.936 579.412 684.821 569.357 c 0
 683.708 559.304 679.897 549.566 673.922 541.406 c 0
 667.944 533.245 659.853 526.701 650.774 522.24 c 0
 640.304 517.094 628.619 514.713 616.962 514.217 c 0
 605.306 513.722 593.647 515.033 582.096 516.664 c 0
 558.988 519.927 535.381 523.922 512.534 519.168 c 0
 495.466 515.617 479.419 507.271 466.792 495.248 c 0
 454.165 483.227 444.979 467.89 438.808 451.584 c 0
 428.097 423.296 425.779 392.489 426.354 362.246 c 0
 426.93 332.004 430.511 301.906 434.248 271.89 c 0
 437.988 241.874 442.125 211.858 443.447 181.641 c 0
 444.769 151.421 443.374 120.448 432.662 92.1602 c 0
 428.174 80.3037 421.968 69.0283 413.731 59.3896 c 0
 405.496 49.75 395.186 41.8047 383.511 36.8643 c 0
 369.52 30.9434 353.645 29.5166 338.861 33.0205 c 0
 324.078 36.5244 310.572 44.8564 300.36 56.1035 c 0
 290.146 67.3506 283.2 81.3613 279.397 96.0693 c 0
 275.594 110.778 274.836 126.164 275.99 141.312 c 0xa0
  Spiro
    275.99 141.312 o
    263.702 491.52 o
    199.19 519.168 o
    57.8783 522.24 o
    36.3743 642.048 o
    165.398 651.264 o
    365.078 651.264 o
    577.046 651.264 o
    663.062 623.616 o
    650.774 522.24 o
    512.534 519.168 o
    438.806 451.584 o
    432.662 92.16 o
    383.51 36.864 o
    0 0 z
  EndSpiro
EndSplineSet
Validated: 33
EndChar

StartChar: U
Encoding: 85 85 20
Width: 732
VWidth: 0
InSpiro: 1
Flags: W
HStem: 20.3779 151.654<262.229 419.661>
VStem: 55.4297 63.4307<450.885 628.405> 473.222 116.736<637.383 797.496> 488.582 110.592<485.91 785.51>
LayerCount: 2
Fore
SplineSet
21.6377 758.784 m 0xd0
 27.7178 775.016 39.1357 789.68 54.7168 797.275 c 0
 62.5068 801.073 71.2041 803.043 79.8662 802.788 c 0
 88.5293 802.533 97.1104 800.041 104.582 795.648 c 0
 115.78 789.062 124.23 778.308 129.118 766.271 c 0
 134.006 754.235 135.545 741.053 135.302 728.064 c 0
 134.763 699.424 126.853 671.49 122.312 643.206 c 0
 117.772 614.923 116.23 586.104 118.86 557.58 c 0
 124.121 500.531 143.239 445.806 156.806 390.144 c 0
 163.461 362.837 169.288 335.289 177.714 308.475 c 0
 186.14 281.661 197.715 255.498 215.174 233.472 c 0
 230.818 213.735 251.047 197.624 273.904 187.048 c 0
 296.762 176.472 322.096 171.262 347.27 172.032 c 0
 370.801 172.752 394.337 178.82 414.545 190.896 c 0
 434.755 202.97 451.232 221.237 460.934 242.688 c 0
 467.976 258.26 471.509 275.283 472.438 292.348 c 0
 473.368 309.413 471.794 326.519 469.552 343.462 c 0
 465.067 377.347 459.003 411.314 460.934 445.44 c 0
 462.693 476.562 470.719 506.924 478.018 537.23 c 0
 485.317 567.537 490.551 598.648 488.582 629.76 c 0xd0
 487.208 651.459 482.57 672.794 478.226 694.098 c 0
 473.881 715.401 469.958 737.288 473.222 758.784 c 0
 475.603 774.462 482.228 789.865 493.856 800.646 c 0
 499.672 806.035 506.651 810.191 514.222 812.549 c 0
 521.791 814.906 529.924 815.443 537.733 814.08 c 0
 545.971 812.643 553.806 809.104 560.472 804.056 c 0
 567.138 799.008 572.635 792.493 576.854 785.271 c 0
 585.291 770.834 588.595 753.949 589.958 737.28 c 0xe0
 592.716 703.551 590.319 669.594 592.112 635.799 c 0
 593.905 602.005 598.089 568.354 599.174 534.528 c 0
 600.383 496.811 596.861 459.066 590.688 421.839 c 0
 584.513 384.611 576.792 347.639 571.525 310.272 c 0
 566.062 271.511 563.433 232.35 556.616 193.804 c 0
 549.797 155.257 537.331 116.806 513.157 86.0156 c 0
 494.983 62.8672 470.582 44.7021 443.253 33.7764 c 0
 415.926 22.8506 386.062 19.04 356.664 20.3779 c 0
 297.862 23.0547 241.147 43.3057 187.525 67.584 c 0
 158.787 80.5957 130.732 95.584 105.903 115.045 c 0
 81.0742 134.508 59.8096 158.924 46.2139 187.392 c 0
 26.3789 228.926 24.6143 276.958 30.8535 322.56 c 0
 38.8564 381.049 55.7119 438.631 55.4297 497.664 c 0
 55.2168 542.045 45.126 585.734 32.9668 628.418 c 0
 26.8887 649.759 20.584 671.122 17.2939 693.067 c 0
 14.0039 715.014 13.8535 738.004 21.6377 758.784 c 0xd0
  Spiro
    21.6376 758.784 o
    104.582 795.648 o
    135.302 728.064 o
    156.806 390.144 o
    215.174 233.472 o
    347.27 172.032 o
    460.934 242.688 o
    460.934 445.44 o
    488.582 629.76 o
    473.222 758.784 o
    537.734 814.08 o
    589.958 737.28 o
    599.174 534.528 o
    571.526 310.272 o
    513.158 86.016 o
    187.526 67.584 o
    46.2136 187.392 o
    30.8536 322.56 o
    55.4296 497.664 o
    0 0 z
  EndSpiro
EndSplineSet
Validated: 33
EndChar

StartChar: V
Encoding: 86 86 21
Width: 753
VWidth: 0
InSpiro: 1
Flags: W
VStem: 506.129 122.373<635.567 750.071>
LayerCount: 2
Fore
SplineSet
4.88574 642.048 m 0
 0.209961 657.021 -1.12305 673.077 1.43652 688.554 c 0
 3.99609 704.032 10.4385 718.893 20.2461 731.136 c 0
 27.6455 740.373 36.9561 748.105 47.5098 753.463 c 0
 58.0635 758.821 69.8506 761.76 81.6865 761.856 c 0
 104.133 762.039 125.998 751.562 141.603 735.427 c 0
 157.206 719.29 166.848 698.275 173.572 676.859 c 0
 180.297 655.443 184.562 633.332 190.773 611.76 c 0
 196.982 590.189 205.353 569.165 216.854 549.888 c 0
 238.004 514.439 269.569 486.148 290.962 450.846 c 0
 301.659 433.194 309.376 413.713 313.214 393.434 c 0
 317.051 373.154 316.755 352.362 318.23 331.776 c 0
 318.956 321.647 320.281 311.481 323.531 301.861 c 0
 326.781 292.24 332.099 283.174 339.734 276.48 c 0
 345.495 271.431 352.526 267.804 360.027 266.246 c 0
 367.526 264.689 375.445 265.22 382.681 267.735 c 0
 389.916 270.251 396.432 274.721 401.551 280.42 c 0
 406.669 286.12 410.394 293.012 412.701 300.315 c 0
 417.318 314.925 416.246 330.771 413.103 345.765 c 0
 409.958 360.761 404.934 375.292 401.174 390.144 c 0
 395.443 412.789 393.224 436.576 397.495 459.54 c 0
 401.766 482.506 411.979 503.971 424.088 523.946 c 0
 436.196 543.921 449.949 562.892 461.342 583.283 c 0
 472.736 603.675 481.355 625.574 487.19 648.192 c 0
 493.237 671.635 496.531 695.982 506.129 718.208 c 0
 510.928 729.321 517.444 739.817 526.188 748.188 c 0
 534.934 756.559 545.952 762.675 557.847 764.928 c 0
 574.758 768.131 592.955 762.996 605.938 751.695 c 0
 618.92 740.393 626.534 723.66 628.502 706.561 c 0
 631.469 680.791 622.551 654.926 609.734 632.374 c 0
 596.918 609.822 580.277 589.729 564.43 569.192 c 0
 548.583 548.656 533.409 527.434 521.87 504.202 c 0
 510.329 480.972 502.564 455.835 499.479 430.08 c 0
 493.581 380.874 505.923 331.649 514.558 282.849 c 0
 518.875 258.448 521.891 233.639 520.238 208.914 c 0
 518.584 184.191 512.042 159.599 499.479 138.24 c 0
 488.406 119.418 472.771 103.319 454.326 91.6299 c 0
 435.882 79.9404 414.783 72.6484 393.167 69.5527 c 0
 349.934 63.3623 305.307 73.1094 266.006 92.1602 c 0
 232.054 108.619 201.24 132.919 181.154 164.86 c 0
 161.069 196.802 153.854 235.962 158.486 273.408 c 0
 161.497 297.74 168.771 321.303 174.786 345.07 c 0
 180.802 368.84 185.216 393.368 183.062 417.792 c 0
 180.9 442.309 171.915 466.112 157.665 486.179 c 0
 143.415 506.245 124.408 522.445 104.588 537.034 c 0
 84.7676 551.624 63.9688 565.027 45.8105 581.642 c 0
 27.6523 598.256 12.2217 618.556 4.88574 642.048 c 0
  Spiro
    4.88644 642.048 o
    20.2464 731.136 o
    81.6864 761.856 o
    216.854 549.888 o
    318.23 331.776 o
    339.734 276.48 o
    401.174 390.144 o
    487.19 648.192 o
    557.846 764.928 o
    628.502 706.56 o
    499.478 430.08 o
    499.478 138.24 o
    266.006 92.16 o
    158.486 273.408 o
    183.062 417.792 o
    0 0 z
  EndSpiro
EndSplineSet
Validated: 33
EndChar

StartChar: W
Encoding: 87 87 22
Width: 1006
VWidth: 0
InSpiro: 1
Flags: W
HStem: 64.2178 144.679<262.899 352.942>
VStem: 32.21 163.042<508.087 766.195> 53.7139 210.932<224.786 475.107> 812.491 64.5176<307.106 472.016>
LayerCount: 2
Fore
SplineSet
32.21 737.28 m 0xd0
 43.3506 757.966 60.6982 775.25 81.3623 786.432 c 0
 94.6514 793.624 109.463 798.294 124.567 798.743 c 0
 139.67 799.192 155.022 795.13 167.378 786.432 c 0
 182.233 775.976 192 759.099 195.252 741.227 c 0xd0
 198.505 723.354 195.748 704.909 191.236 687.314 c 0
 186.726 669.718 180.625 652.521 177.075 634.707 c 0
 173.526 616.892 172.747 598.361 176.594 580.608 c 0
 182.087 555.258 196.979 533.033 213.238 512.823 c 0
 229.497 492.614 246.716 472.547 256.466 448.512 c 0
 265.038 427.382 267.298 403.998 264.646 381.349 c 0
 261.992 358.701 254.903 336.835 250.405 314.479 c 0
 245.906 292.125 244.475 268.181 253.38 247.188 c 0
 257.832 236.691 264.833 227.204 273.941 220.345 c 0
 283.047 213.484 294.226 209.36 305.618 208.896 c 0
 318.104 208.387 330.669 212.309 340.853 219.552 c 0
 351.036 226.795 358.792 237.196 363.636 248.716 c 0
 373.325 271.754 371.413 297.949 367.058 322.56 c 0
 362.795 346.648 356.581 370.502 355.263 394.929 c 0
 353.943 419.356 357.752 444.504 369.568 465.924 c 0
 381.384 487.344 401.253 504.374 424.546 511.849 c 0
 447.838 519.323 473.846 517.076 496.082 506.88 c 0
 522.438 494.795 542.944 472.39 557.78 447.477 c 0
 572.616 422.562 582.481 395.079 594.386 368.64 c 0
 603.594 348.193 614.24 328.158 628.818 311.12 c 0
 643.397 294.082 662.11 280.217 683.474 273.408 c 0
 700.108 268.106 718.162 267.179 735.169 271.124 c 0
 752.175 275.07 767.999 283.86 780.479 296.068 c 0
 792.958 308.277 802.055 323.79 807.282 340.447 c 0
 812.51 357.104 813.925 374.833 812.491 392.233 c 0
 809.624 427.03 795.558 459.763 782.218 492.029 c 0
 768.876 524.296 756.094 557.998 757.202 592.896 c 0
 757.624 606.192 760.101 619.477 765.1 631.806 c 0
 770.099 644.135 777.652 655.479 787.452 664.477 c 0
 797.252 673.474 809.294 680.064 822.229 683.174 c 0
 835.164 686.285 848.929 685.876 861.651 681.984 c 0
 874.999 677.899 887.109 670.015 896.519 659.703 c 0
 905.929 649.392 912.639 636.738 916.559 623.34 c 0
 924.389 596.541 921.019 567.661 913.879 540.672 c 0
 906.849 514.123 896.529 488.553 888.959 462.15 c 0
 881.399 435.749 876.859 408.392 877.009 380.928 c 0
 877.188 347.121 884.469 313.805 887.979 280.179 c 0
 889.729 263.366 890.359 246.361 888.369 229.574 c 0
 886.379 212.788 881.688 196.268 873.938 181.248 c 0
 866.065 166.002 855.094 152.425 842.192 141.112 c 0
 829.29 129.799 814.554 120.707 799.141 113.166 c 0
 768.315 98.084 735.283 87.8525 701.906 79.8721 c 0
 686.805 76.2617 671.469 73.3779 655.96 72.6338 c 0
 640.451 71.8896 624.69 73.415 610.071 78.6455 c 0
 595.452 83.876 582.139 92.9443 572.434 105.064 c 0
 562.729 117.185 556.882 132.12 554.45 147.456 c 0
 551.652 165.102 553.207 183.104 552.842 200.965 c 0
 552.658 209.896 551.935 218.856 549.852 227.543 c 0
 547.769 236.229 544.287 244.639 539.09 251.904 c 0
 533.347 259.935 525.479 266.488 516.394 270.351 c 0
 507.307 274.213 497.09 275.336 487.368 273.617 c 0
 477.646 271.897 468.488 267.387 460.924 261.041 c 0
 453.36 254.696 447.381 246.58 442.958 237.753 c 0
 434.112 220.099 431.521 200.071 429.11 180.473 c 0
 426.699 160.875 424.027 141.013 416.21 122.88 c 0
 409.068 106.313 397.592 91.5156 382.759 81.2471 c 0
 367.927 70.9795 350.095 65.3691 332.092 64.2178 c 0
 314.089 63.0664 296.004 66.166 278.758 71.459 c 0
 261.512 76.751 244.972 84.1299 228.818 92.1602 c 0
 185.084 113.9 141.808 138.915 109.01 175.104 c 0
 84.4521 202.201 67.6299 235.994 59.749 271.704 c 0
 51.8691 307.414 52.3047 344.386 53.7139 380.928 c 0xb0
 54.9277 412.403 56.5 443.939 54.4619 475.373 c 0
 52.4229 506.807 46.4502 537.88 38.3545 568.32 c 0
 30.9082 596.316 21.9258 624.082 18.5615 652.855 c 0
 15.1973 681.629 18.4736 711.774 32.21 737.28 c 0xd0
  Spiro
    32.2101 737.28 o
    81.3621 786.432 o
    167.378 786.432 o
    176.594 580.608 o
    256.466 448.512 o
    305.618 208.896 o
    367.058 322.56 o
    496.082 506.88 o
    594.386 368.64 o
    683.474 273.408 o
    757.202 592.896 o
    861.65 681.984 o
    913.879 540.672 o
    877.009 380.928 o
    873.938 181.248 o
    701.906 79.872 o
    554.45 147.456 o
    539.09 251.904 o
    416.21 122.88 o
    228.818 92.16 o
    109.01 175.104 o
    53.7141 380.928 o
    38.3541 568.32 o
    0 0 z
  EndSpiro
EndSplineSet
Validated: 33
EndChar

StartChar: X
Encoding: 88 88 23
Width: 704
VWidth: 0
InSpiro: 1
Flags: W
LayerCount: 2
Fore
SplineSet
53.5596 144.384 m 0
 52.6416 166.994 61.8252 189.251 75.957 206.923 c 0
 90.0898 224.596 108.717 238.073 127.622 250.51 c 0
 146.525 262.945 165.981 274.754 182.968 289.705 c 0
 199.954 304.655 214.312 322.977 222.52 344.064 c 0
 229.024 360.778 231.614 378.965 230.325 396.855 c 0
 229.036 414.744 223.982 432.27 216.376 448.512 c 0
 195.508 493.07 156.698 526.634 115.836 554.04 c 0
 95.4053 567.743 74.1621 580.254 54.2812 594.743 c 0
 34.3994 609.234 15.4053 626.186 4.4082 648.192 c 0
 -0.0996094 657.211 -3.13086 667.032 -3.85156 677.089 c 0
 -4.57129 687.146 -2.91016 697.416 1.33594 706.561 c 0
 7.87793 720.648 20.6855 731.566 35.499 736.245 c 0
 50.3105 740.923 66.6377 739.596 81.208 734.208 c 0
 104.126 725.734 122.601 708.119 137.405 688.68 c 0
 152.209 669.241 163.894 647.655 176.439 626.688 c 0
 192.561 599.746 210.736 573.273 235.738 554.281 c 0
 260.739 535.289 292.694 524.885 323.896 528.384 c 0
 350.607 531.379 375.702 544.223 395.543 562.357 c 0
 415.383 580.492 430.147 603.433 443.511 626.755 c 0
 456.875 650.077 469.287 674.156 486.188 695.057 c 0
 503.09 715.957 525.195 733.643 551.224 740.352 c 0
 571.555 745.593 593.925 743.66 612.36 733.613 c 0
 630.797 723.565 644.654 705.479 649.527 685.056 c 0
 653.926 666.622 651.122 646.789 642.965 629.684 c 0
 634.806 612.577 621.613 598.214 606.52 586.752 c 0
 576.006 563.578 538.519 551.768 505.212 532.828 c 0
 488.557 523.358 472.82 512.01 459.882 497.882 c 0
 446.941 483.754 436.95 466.854 431.416 448.512 c 0
 426.411 431.921 425.055 414.301 426.906 397.071 c 0
 428.758 379.842 433.726 363.029 440.632 347.136 c 0
 456.49 310.644 482.323 279.568 507.513 248.77 c 0
 520.109 233.369 532.649 217.807 542.713 200.645 c 0
 552.775 183.483 560.44 164.278 560.439 144.384 c 0
 560.439 136.456 559.174 128.496 556.344 121.09 c 0
 553.514 113.684 549.094 106.851 543.261 101.48 c 0
 537.428 96.1123 530.184 92.2559 522.431 90.5996 c 0
 514.677 88.9434 506.473 89.5137 499 92.1602 c 0
 486.455 96.6025 476.483 106.763 470.285 118.539 c 0
 464.086 130.316 461.21 143.537 459.063 156.672 c 0
 456.408 172.937 454.594 189.356 450.963 205.431 c 0
 447.33 221.506 442.029 237.251 434.488 251.904 c 0
 421.46 277.215 401.289 299.619 375.258 311.144 c 0
 362.244 316.905 347.931 319.823 333.711 319.207 c 0
 319.491 318.591 305.448 314.411 293.176 307.2 c 0
 280.658 299.844 270.059 289.414 261.865 277.427 c 0
 253.673 265.44 247.84 251.965 243.472 238.118 c 0
 234.736 210.423 231.604 181.182 222.52 153.6 c 0
 214.199 128.336 200.143 104.133 178.495 88.6768 c 0
 167.672 80.9482 155.149 75.5312 142.03 73.3584 c 0
 128.908 71.1865 115.225 72.2969 102.712 76.7998 c 0
 88.7969 81.8076 76.4189 91.04 67.7402 103.016 c 0
 59.0615 114.991 54.1602 129.606 53.5596 144.384 c 0
  Spiro
    53.5597 144.384 o
    222.52 344.064 o
    216.376 448.512 o
    4.40766 648.192 o
    1.33566 706.56 o
    81.2077 734.208 o
    176.44 626.688 o
    323.896 528.384 o
    551.224 740.352 o
    649.528 685.056 o
    606.52 586.752 o
    431.416 448.512 o
    440.632 347.136 o
    560.44 144.384 o
    499 92.16 o
    459.064 156.672 o
    434.488 251.904 o
    293.176 307.2 o
    222.52 153.6 o
    102.712 76.8 o
    0 0 z
  EndSpiro
EndSplineSet
Validated: 33
EndChar

StartChar: Y
Encoding: 89 89 24
Width: 727
VWidth: 0
InSpiro: 1
Flags: W
VStem: 3.53125 117.646<648.071 738.368>
LayerCount: 2
Fore
SplineSet
166.347 423.936 m 0
 153.308 454.102 144.601 485.938 132.862 516.635 c 0
 121.124 547.33 103.918 576.158 80.3311 599.04 c 0
 60.9658 617.825 37.9502 632.839 20.4199 653.346 c 0
 11.6533 663.601 4.43262 675.41 0.977539 688.449 c 0
 -2.47754 701.489 -1.92969 715.729 3.53125 728.064 c 0
 8.32715 738.896 16.8604 748.042 27.3721 753.505 c 0
 37.8828 758.97 50.2109 760.719 61.8984 758.784 c 0
 76.541 756.36 89.9551 748.289 99.9873 737.352 c 0
 110.019 726.414 116.791 712.788 121.178 698.61 c 0
 129.95 670.254 129.615 639.926 135.462 610.825 c 0
 138.386 596.275 142.897 581.93 150.217 569.02 c 0
 157.535 556.108 167.729 544.711 180.292 536.809 c 0
 192.854 528.906 207.704 524.646 222.543 524.882 c 0
 237.383 525.115 252.013 529.819 264.651 537.6 c 0
 279.615 546.812 291.688 560.065 302.17 574.171 c 0
 312.652 588.275 321.894 603.264 332.235 617.472 c 0
 351.694 644.205 375.855 667.262 402.303 687.108 c 0
 428.75 706.953 455.845 726.427 485.834 740.352 c 0
 499.333 746.62 513.907 751.286 528.789 751.08 c 0
 536.23 750.977 543.68 749.624 550.567 746.806 c 0
 557.454 743.987 563.749 739.692 568.779 734.208 c 0
 574.349 728.135 578.321 720.635 580.358 712.65 c 0
 582.396 704.666 582.521 696.239 581.067 688.128 c 0
 577.966 670.83 567.915 655.394 555.527 642.93 c 0
 543.139 630.466 528.431 620.568 513.483 611.328 c 0
 469.068 583.87 423.682 556.848 387.531 519.168 c 0
 352.287 482.433 324.36 438.898 304.257 392.129 c 0
 284.155 345.358 272.486 295.485 261.579 245.76 c 0
 251.718 200.805 241.99 154.742 218.165 115.364 c 0
 206.253 95.6748 190.588 77.9092 170.977 65.8691 c 0
 151.366 53.8281 127.5 47.8535 104.907 52.2236 c 0
 93.7832 54.376 83.1055 59.0195 74.1787 65.9961 c 0
 65.251 72.9727 58.1338 82.292 53.9814 92.833 c 0
 49.8291 103.375 48.6924 115.077 50.6963 126.228 c 0
 52.7002 137.379 57.8115 147.893 64.9707 156.672 c 0
 78.4219 173.167 98.375 182.83 118.197 190.585 c 0
 138.019 198.34 158.509 205.377 175.562 218.112 c 0
 190.751 229.455 202.705 245.256 208.647 263.258 c 0
 214.59 281.26 214.565 300.886 210.589 319.422 c 0
 202.638 356.492 181.391 389.135 166.347 423.936 c 0
  Spiro
    166.346 423.936 o
    80.3303 599.04 o
    3.53035 728.064 o
    61.8983 758.784 o
    264.65 537.6 o
    332.234 617.472 o
    485.834 740.352 o
    568.778 734.208 o
    581.066 688.128 o
    513.482 611.328 o
    387.53 519.168 o
    261.578 245.76 o
    104.906 52.224 o
    64.9703 156.672 o
    175.562 218.112 o
    0 0 z
  EndSpiro
EndSplineSet
Validated: 33
EndChar

StartChar: Z
Encoding: 90 90 25
Width: 693
VWidth: 0
InSpiro: 1
Flags: W
HStem: 66.6348 179.263<423.85 545.713> 577.479 166.937<90.7137 242.26>
VStem: 460.38 103.511<573.15 629.113>
LayerCount: 2
Fore
SplineSet
86.6045 718.848 m 0
 102.953 734.285 125.255 742.452 147.653 744.415 c 0
 170.054 746.377 192.558 742.662 214.519 737.834 c 0
 236.479 733.006 258.251 727.185 280.48 723.812 c 0
 302.713 720.44 325.352 719.688 347.725 721.92 c 0
 369.351 724.078 390.601 728.916 411.961 732.928 c 0
 433.319 736.939 455.175 739.896 476.748 737.28 c 0
 490.587 735.604 504.205 731.604 516.42 724.888 c 0
 528.635 718.171 539.373 708.736 547.404 697.344 c 0
 556.975 683.773 562.592 667.521 563.891 650.967 c 0
 565.191 634.412 562.268 617.658 556.417 602.118 c 0
 544.712 571.038 522.179 545.275 498.254 522.24 c 0
 466.203 491.382 431.351 463.565 395.965 436.6 c 0
 360.578 409.634 322.805 385.688 289.356 356.352 c 0
 274.194 343.054 260.133 328.091 250.589 310.323 c 0
 241.045 292.556 236.474 271.725 240.205 251.904 c 0
 242.578 239.295 248.249 227.313 256.552 217.531 c 0
 264.854 207.749 275.716 200.218 287.662 195.536 c 0
 311.555 186.174 338.703 188.604 363.086 196.608 c 0
 396.431 207.556 426.096 227.863 459.438 238.813 c 0
 476.11 244.287 493.759 247.366 511.245 245.897 c 0
 528.73 244.429 545.953 238.245 559.692 227.328 c 0
 570.683 218.596 579.333 206.924 584.37 193.822 c 0
 589.408 180.722 590.816 166.276 588.613 152.413 c 0
 586.411 138.55 580.648 125.322 572.356 113.997 c 0
 564.064 102.671 553.296 93.2412 541.262 86.0156 c 0
 511.754 68.3008 475.82 64.1934 441.49 66.6348 c 0
 407.16 69.0762 373.562 77.415 340.012 85.085 c 0
 272.908 100.425 204.1 105.449 135.758 113.664 c 0
 103.805 117.505 71.2109 124.543 44.7383 142.846 c 0
 31.5029 151.998 20.082 163.924 12.2559 177.984 c 0
 4.43066 192.045 0.327148 208.167 0.589844 224.256 c 0
 0.826172 238.871 4.61035 253.346 10.9834 266.501 c 0
 17.3555 279.656 26.2354 291.497 36.3398 302.062 c 0
 56.5459 323.188 81.1289 339.527 105.036 356.352 c 0
 130.329 374.151 155.028 392.785 180.454 410.394 c 0
 205.88 428.001 232.742 443.818 261.71 454.656 c 0
 285.112 463.412 309.591 468.87 333.992 474.25 c 0
 358.393 479.629 383.059 485.284 405.285 496.7 c 0
 427.514 508.116 447.193 526.17 456.031 549.543 c 0
 460.45 561.229 462.068 574.003 460.38 586.383 c 0
 458.689 598.762 453.681 610.668 446.028 620.544 c 0
 438.803 629.872 429.282 637.357 418.661 642.495 c 0
 408.039 647.635 396.359 650.454 384.59 651.264 c 0
 355.854 653.241 327.552 643.458 301.652 630.854 c 0
 275.756 618.25 251.277 602.753 224.782 591.457 c 0
 198.288 580.161 169.127 573.208 140.642 577.479 c 0
 126.401 579.615 112.524 584.546 100.438 592.378 c 0
 88.3535 600.211 78.1143 610.959 71.2441 623.616 c 0
 62.9863 638.833 59.7666 656.78 62.5293 673.872 c 0
 65.293 690.964 74.0166 706.962 86.6045 718.848 c 0
  Spiro
    86.6043 718.848 o
    347.724 721.92 o
    476.748 737.28 o
    547.404 697.344 o
    498.252 522.24 o
    289.356 356.352 o
    240.204 251.904 o
    363.084 196.608 o
    559.692 227.328 o
    541.26 86.016 o
    135.756 113.664 o
    0.588262 224.256 o
    105.036 356.352 o
    261.708 454.656 o
    446.028 620.544 o
    384.588 651.264 o
    71.2443 623.616 o
    0 0 z
  EndSpiro
EndSplineSet
Validated: 33
EndChar

StartChar: germandbls
Encoding: 223 223 26
Width: 640
VWidth: 0
InSpiro: 1
Flags: W
VStem: 80.8105 65.1924<115.018 211.267>
LayerCount: 2
Fore
SplineSet
332.715 208.896 m 0
 335.638 223.233 333.248 238.684 325.623 251.171 c 0
 317.998 263.659 305.396 272.865 291.354 276.979 c 0
 277.312 281.094 262.078 280.275 248.092 275.978 c 0
 234.104 271.681 221.297 264.071 209.835 254.976 c 0
 190.436 239.581 173.786 220.695 160.683 199.68 c 0
 153.381 187.968 147.434 175.071 146.003 161.343 c 0
 145.288 154.479 145.75 147.464 147.668 140.835 c 0
 149.585 134.205 152.975 127.992 157.61 122.88 c 0
 162.823 117.132 169.579 112.835 176.93 110.351 c 0
 184.279 107.865 192.174 107.166 199.903 107.83 c 0
 215.364 109.158 229.918 115.608 243.627 122.88 c 0
 262.43 132.852 280.729 143.962 297.287 157.336 c 0
 305.563 164.021 313.293 171.479 319.562 180.076 c 0
 325.831 188.676 330.589 198.469 332.715 208.896 c 0
  Spiro
    332.715 208.896 o
    209.835 254.976 o
    160.683 199.68 o
    157.611 122.88 o
    243.627 122.88 o
    0 0 z
  EndSpiro
255.915 473.088 m 0
 279.039 465.406 305.5 466.994 326.57 479.232 c 0
 346.147 490.603 360.116 510.726 365.147 532.8 c 0
 370.178 554.874 366.848 578.516 357.291 599.04 c 0
 350.404 613.827 340.276 627.144 327.613 637.428 c 0
 314.953 647.711 299.678 654.878 283.562 657.408 c 0
 260.703 660.998 236.434 654.731 218.312 640.34 c 0
 200.189 625.949 188.551 603.944 185.922 580.954 c 0
 183.292 557.963 189.396 534.215 202.077 514.858 c 0
 214.758 495.501 233.954 480.384 255.915 473.088 c 0
  Spiro
    255.915 473.088 o
    326.571 479.232 o
    357.291 599.04 o
    283.563 657.408 o
    0 0 z
  EndSpiro
-20.5654 -36.8643 m 0
 10.6865 0.794922 37.2432 42.8125 53.1631 89.0879 c 0
 74.1064 149.973 77.832 215.233 80.8105 279.552 c 0
 83.7549 343.113 86.5303 406.727 93.0986 470.016 c 0
 100.964 545.808 114.448 623.328 154.539 688.128 c 0
 189.959 745.382 246.18 790.514 311.211 807.936 c 0
 343.372 816.552 377.629 818.233 410.06 810.698 c 0
 442.489 803.162 472.677 786.067 495.53 761.856 c 0
 518.201 737.838 533.54 707.484 542.42 675.673 c 0
 551.301 643.861 554.607 610.347 550.826 577.536 c 0
 548.809 560.028 544.521 542.681 536.938 526.773 c 0
 529.356 510.864 518.35 496.581 504.747 485.376 c 0
 490.715 473.819 474.18 465.686 457.252 459.061 c 0
 440.323 452.434 422.892 447.034 406.442 439.296 c 0
 390.69 431.887 375.804 422.14 364.35 409.033 c 0
 352.895 395.926 345.124 379.486 343.11 362.196 c 0
 341.101 344.905 344.91 327.099 353.222 311.804 c 0
 361.531 296.509 374.096 283.866 388.011 273.408 c 0
 400.337 264.144 413.729 256.415 426.604 247.929 c 0
 439.478 239.442 451.913 229.994 461.738 218.112 c 0
 475.355 201.646 483.291 180.129 481.455 158.842 c 0
 479.619 137.554 468.187 117.595 451.738 103.955 c 0
 435.292 90.3164 414.503 82.7861 393.477 78.9932 c 0
 372.447 75.1992 350.983 74.7773 329.643 73.7275 c 0
 303.684 72.4512 277.565 70.0068 252.715 62.3965 c 0
 227.862 54.7871 204.518 42.0293 185.259 24.5762 c 0
 154.162 -3.60449 135.298 -43.0547 124.298 -83.5547 c 0
 113.3 -124.054 108.805 -166.307 94.7549 -205.851 c 0
 87.7285 -225.623 78.207 -244.674 64.998 -260.978 c 0
 51.7891 -277.282 34.7832 -290.731 15.2529 -298.402 c 0
 -4.27734 -306.074 -26.249 -307.743 -46.5088 -302.28 c 0
 -66.7686 -296.817 -85.0049 -284.221 -97.3652 -267.264 c 0
 -110.334 -249.473 -116.702 -227.247 -116.551 -205.231 c 0
 -116.399 -183.215 -110 -161.542 -100.194 -141.829 c 0
 -80.583 -102.405 -48.6846 -70.749 -20.5654 -36.8643 c 0
  Spiro
    -20.5653 -36.864 o
    53.1627 89.088 o
    80.8107 279.552 o
    93.0987 470.016 o
    154.539 688.128 o
    311.211 807.936 o
    495.531 761.856 o
    550.827 577.536 o
    504.747 485.376 o
    406.443 439.296 o
    388.011 273.408 o
    461.739 218.112 o
    329.643 73.728 o
    185.259 24.576 o
    -97.3653 -267.264 o
    0 0 z
  EndSpiro
EndSplineSet
Validated: 33
EndChar

StartChar: period
Encoding: 46 46 27
Width: 289
VWidth: 0
InSpiro: 1
Flags: W
HStem: 49.0615 153.69<39.0515 140.928>
VStem: 9.75098 187.664
LayerCount: 2
Fore
SplineSet
9.75098 138.24 m 0
 13.6064 157.24 23.416 175.264 38.3477 187.629 c 0
 53.2812 199.993 73.5283 205.679 92.6943 202.752 c 0
 106.235 200.685 118.939 194.787 130.539 187.502 c 0
 142.14 180.216 152.961 171.742 163.351 162.816 c 0
 173.433 154.155 183.216 144.831 190.062 133.438 c 0
 193.485 127.742 196.104 121.526 197.415 115.011 c 0
 198.726 108.495 198.692 101.694 197.142 95.2324 c 0
 195.536 88.5371 192.306 82.2568 187.917 76.9531 c 0
 183.524 71.6504 178.013 67.3271 172.003 63.9697 c 0
 159.981 57.2549 146.248 54.2744 132.631 52.2236 c 0
 115.874 49.7012 98.8877 48.1318 81.9668 49.0615 c 0
 65.0459 49.9912 47.8535 54.3027 34.3262 64.5117 c 0
 23.4082 72.752 15.3398 84.5918 11.2998 97.6592 c 0
 7.25781 110.728 7.0293 124.836 9.75098 138.24 c 0
  Spiro
    9.75026 138.24 o
    92.6943 202.752 o
    163.35 162.816 o
    197.142 95.232 o
    132.63 52.224 o
    34.3263 64.512 o
    0 0 z
  EndSpiro
EndSplineSet
Validated: 33
EndChar

StartChar: space
Encoding: 32 32 28
Width: 387
VWidth: 0
Flags: W
LayerCount: 2
Fore
SplineSet
177 68 m 28,0,-1
EndSplineSet
Validated: 1
EndChar

StartChar: hyphen
Encoding: 45 45 29
Width: 669
VWidth: 0
InSpiro: 1
Flags: W
HStem: 306.292 108.397<161.108 509.573> 325.632 73.6396<154.792 443.644>
LayerCount: 2
Fore
SplineSet
227.844 325.632 m 0x40
 193.936 324.654 159.789 325.993 126.567 332.86 c 0
 109.958 336.294 93.5576 341.057 78.1426 348.13 c 0
 62.7266 355.205 48.1143 364.725 37.3799 377.856 c 0
 30.0117 386.87 24.6104 397.701 23.1377 409.25 c 0
 21.6641 420.799 24.3916 432.95 31.2363 442.368 c 0
 36.9795 450.271 45.4531 456.078 54.8008 458.921 c 0
 64.1484 461.764 74.2363 461.711 83.7832 459.633 c 0
 102.876 455.477 119.354 443.884 135.684 433.152 c 0
 148.438 424.769 161.521 416.762 175.582 410.822 c 0
 189.642 404.884 204.561 401.008 219.727 399.271 c 0x40
 250.055 395.799 280.652 400.628 310.788 405.504 c 0
 351.566 412.103 392.361 420.295 433.668 420.864 c 0
 448.842 421.073 464.24 419.808 478.525 414.689 c 0x80
 492.811 409.57 505.891 400.178 513.54 387.072 c 0
 519.087 377.568 521.621 366.31 520.498 355.363 c 0
 519.375 344.417 514.63 333.924 507.395 325.632 c 0x40
 499.209 316.248 487.996 309.741 476.029 306.292 c 0x80
 464.062 302.842 451.395 302.325 438.994 303.467 c 0
 414.19 305.75 390.381 314.008 366.084 319.488 c 0
 343.503 324.581 320.397 327.291 297.253 327.614 c 0
 274.105 327.938 250.981 326.3 227.844 325.632 c 0x40
  Spiro
    227.844 325.632 o
    37.38 377.856 o
    31.236 442.368 o
    135.684 433.152 o
    310.788 405.504 o
    433.668 420.864 o
    513.54 387.072 o
    507.396 325.632 o
    366.084 319.488 o
    0 0 z
  EndSpiro
EndSplineSet
Validated: 33
EndChar

StartChar: slash
Encoding: 47 47 30
Width: 644
VWidth: 0
InSpiro: 1
Flags: W
LayerCount: 2
Fore
SplineSet
-3.83008 76.7998 m 0
 -9.97266 92.9766 -9.73535 111.232 -4.55371 127.741 c 0
 0.628906 144.25 10.4629 159.008 22.1299 171.786 c 0
 45.4639 197.343 75.333 215.985 100.617 239.616 c 0
 119.28 257.059 135.529 277.093 148.493 299.104 c 0
 161.457 321.114 171.286 344.811 180.489 368.64 c 0
 199.533 417.955 219.889 467.318 251.146 509.952 c 0
 271.312 537.459 294.485 562.746 313.274 591.213 c 0
 332.062 619.678 344.643 651.872 352.521 685.056 c 0
 357.508 706.054 361.347 727.538 370.124 747.254 c 0
 374.515 757.111 380.194 766.461 387.531 774.373 c 0
 394.868 782.287 403.888 788.707 413.962 792.576 c 0
 423.632 796.29 434.219 797.609 444.495 796.312 c 0
 454.773 795.016 464.686 791.125 473.231 785.27 c 0
 490.32 773.561 501.38 754.376 506.121 734.208 c 0
 512.127 708.666 509.015 681.71 502.07 656.406 c 0
 495.127 631.104 484.402 606.976 472.329 583.68 c 0
 441.496 524.188 402.004 469.195 355.594 420.864 c 0
 317.881 381.59 275.428 346.772 240.938 304.639 c 0
 206.449 262.506 184.296 211.76 168.201 159.744 c 0
 161.298 137.43 154.603 114.887 143.947 94.0996 c 0
 133.295 73.3135 118.061 54.1758 97.5459 43.0078 c 0
 79.7539 33.3223 58.0947 30.2754 38.7852 36.4004 c 0
 19.4756 42.5264 3.36035 57.8613 -3.83008 76.7998 c 0
  Spiro
    -3.83052 76.8 o
    100.617 239.616 o
    180.489 368.64 o
    251.145 509.952 o
    352.521 685.056 o
    413.961 792.576 o
    506.121 734.208 o
    472.329 583.68 o
    355.593 420.864 o
    168.201 159.744 o
    97.5455 43.008 o
    0 0 z
  EndSpiro
EndSplineSet
Validated: 33
EndChar

StartChar: less
Encoding: 60 60 31
Width: 725
VWidth: 0
InSpiro: 1
Flags: W
LayerCount: 2
Fore
SplineSet
351.829 595.968 m 0
 339.551 571.254 328.849 545.516 312.546 523.249 c 0
 296.246 500.981 274.679 482.591 249.989 470.263 c 0
 225.301 457.935 198.086 451.633 170.938 446.675 c 0
 143.792 441.718 116.134 437.738 90.709 427.008 c 0
 71.3193 418.825 53.2998 406.306 41.4873 388.888 c 0
 29.6768 371.47 24.8623 349.283 29.2695 328.704 c 0
 32.5332 313.459 40.5645 299.429 51.2705 288.094 c 0
 61.9756 276.76 75.1875 268.045 89.0391 260.891 c 0
 116.742 246.581 146.983 237.338 173.653 221.184 c 0
 203.327 203.21 226.887 176.843 247.752 149.125 c 0
 258.187 135.267 268.413 121.198 280.202 108.474 c 0
 291.99 95.7471 305.496 84.3604 321.109 76.7998 c 0
 337.366 68.9277 355.957 65.4365 373.774 68.4092 c 0
 391.592 71.3818 408.339 80.9619 419.413 95.2324 c 0
 426.386 104.216 431.099 114.938 432.986 126.152 c 0
 434.873 137.365 433.934 149.026 430.405 159.837 c 0
 426.879 170.647 420.796 180.574 413.015 188.865 c 0
 405.232 197.157 395.791 203.811 385.621 208.896 c 0
 368.907 217.253 350.419 221.304 332.069 224.836 c 0
 313.721 228.367 295.123 231.624 277.945 238.98 c 0
 260.769 246.336 245.057 258.251 235.985 274.588 c 0
 226.913 290.925 225.306 311.267 232.021 328.704 c 0
 235.93 338.849 242.408 347.923 250.365 355.329 c 0
 258.322 362.736 267.701 368.507 277.568 373.07 c 0
 297.304 382.197 318.779 386.76 339.541 393.216 c 0
 366.669 401.651 392.766 414.133 414.654 432.24 c 0
 436.546 450.348 454.471 472.998 468.565 497.664 c 0
 477.619 513.509 485.15 530.303 489.899 547.923 c 0
 494.647 565.543 496.531 584.181 493.142 602.112 c 0
 490.301 617.141 483.533 631.623 472.706 642.426 c 0
 461.879 653.23 446.987 659.964 431.701 660.48 c 0
 422.628 660.786 413.519 658.988 405.146 655.48 c 0
 396.772 651.973 389.148 646.79 382.497 640.612 c 0
 369.193 628.258 359.907 612.229 351.829 595.968 c 0
  Spiro
    351.829 595.968 o
    90.7093 427.008 o
    29.2693 328.704 o
    173.653 221.184 o
    321.109 76.8 o
    419.413 95.232 o
    385.621 208.896 o
    232.021 328.704 o
    339.541 393.216 o
    468.565 497.664 o
    493.141 602.112 o
    431.701 660.48 o
    0 0 z
  EndSpiro
EndSplineSet
Validated: 41
EndChar

StartChar: greater
Encoding: 62 62 32
Width: 735
VWidth: 0
InSpiro: 1
Flags: W
VStem: 274.433 216.895<325.092 452.208>
LayerCount: 2
Fore
SplineSet
136.192 672.768 m 0
 150.3 660.412 162.441 646.008 175.58 632.628 c 0
 188.721 619.249 202.854 606.785 218.366 596.25 c 0
 249.391 575.177 285.242 562.64 320.513 549.888 c 0
 350.233 539.143 379.819 527.428 406.7 510.806 c 0
 433.581 494.184 458.047 472.657 474.112 445.44 c 0
 484.317 428.15 490.896 408.482 491.327 388.411 c 0
 491.762 368.34 485.73 348.148 474.112 331.776 c 0
 464.492 318.221 451.326 307.42 436.838 299.271 c 0
 422.352 291.122 406.605 285.485 390.835 280.232 c 0
 375.065 274.979 359.165 269.986 344.006 263.17 c 0
 328.847 256.353 314.474 247.623 302.08 236.544 c 0
 282.438 218.983 268.686 195.809 257.671 171.872 c 0
 246.659 147.936 237.274 122.991 222.208 101.376 c 0
 211.898 86.584 198.97 73.502 183.688 63.9346 c 0
 168.403 54.3682 150.891 48.3809 132.941 46.6582 c 0
 97.0479 43.2119 59.8125 56.9541 34.8164 82.9443 c 0
 20.291 98.0469 9.98438 117.476 7.16797 138.24 c 0
 4.88574 155.08 7.62988 172.545 14.8535 187.928 c 0
 22.0742 203.311 33.6143 216.487 47.291 226.571 c 0
 74.6475 246.74 109.107 253.979 142.336 261.12 c 0
 171.373 267.359 200.904 274.618 225.723 290.935 c 0
 238.13 299.093 249.185 309.411 257.647 321.613 c 0
 266.112 333.812 271.916 347.861 274.433 362.496 c 0
 278.07 383.665 274.707 405.725 266.561 425.598 c 0
 258.412 445.472 245.816 463.288 231.425 479.232 c 0
 206.815 506.495 176.957 528.567 145.727 547.893 c 0
 130.11 557.555 114.071 566.526 98.5596 576.354 c 0
 83.0469 586.18 67.8027 596.997 56.3203 611.328 c 0
 48.666 620.882 42.835 632.175 41.2246 644.309 c 0
 39.6113 656.444 42.5928 669.303 50.1768 678.912 c 0
 55.1953 685.271 62.0811 690.113 69.7178 692.821 c 0
 77.3545 695.528 85.6748 696.12 93.6885 694.941 c 0
 109.722 692.582 124.002 683.444 136.192 672.768 c 0
  Spiro
    136.192 672.768 o
    320.512 549.888 o
    474.112 445.44 o
    474.112 331.776 o
    302.08 236.544 o
    222.208 101.376 o
    34.816 82.944 o
    7.16799 138.24 o
    142.336 261.12 o
    274.432 362.496 o
    231.424 479.232 o
    56.32 611.328 o
    50.176 678.912 o
    0 0 z
  EndSpiro
EndSplineSet
Validated: 33
EndChar

StartChar: equal
Encoding: 61 61 33
Width: 906
VWidth: 0
InSpiro: 1
Flags: W
HStem: 260.953 96.2939<162.401 400.357> 270.336 118.748<47.1062 206.505> 475.756 176.203<612.738 732.185> 487.14 160.792<73.9333 176.005 601.711 747.61> 558.178 40.7061<345.9 430.294>
LayerCount: 2
Fore
SplineSet
121.259 390.144 m 4x40
 146.091 385.953 169.819 376.964 194.048 370.095 c 4
 218.274 363.227 243.149 358.306 268.311 357.247 c 4
 318.632 355.129 368.133 368.865 416.171 384 c 4
 472.18 401.646 528.604 419.842 587.088 425.139 c 4
 616.33 427.787 646.137 427.305 674.631 420.221 c 4
 688.878 416.68 702.758 411.435 715.399 403.972 c 4
 728.043 396.509 739.464 386.766 747.946 374.784 c 4
 753.878 366.408 758.331 356.938 760.566 346.921 c 4
 762.806 336.904 762.772 326.36 760.234 316.416 c 4
 757.148 304.33 750.339 293.276 741.166 284.823 c 4
 731.994 276.369 720.604 270.515 708.63 267.021 c 4
 684.681 260.035 659.14 262.062 634.283 264.192 c 4
 606.696 266.557 579.042 268.523 551.359 268.03 c 4
 523.679 267.536 496.06 265.291 468.396 264.192 c 4
 418.229 262.199 368.051 265.839 317.867 267.264 c 4
 278.252 268.39 238.617 266.532 199.093 263.629 c 4
 179.331 262.178 159.54 260.668 139.726 260.953 c 4x80
 119.912 261.239 99.8711 263.361 81.3223 270.336 c 4
 63.0742 277.198 46.21 289.396 37.126 306.645 c 4
 32.584 315.271 30.0938 325.008 30.2422 334.754 c 4
 30.3926 344.5 33.207 354.193 38.3145 362.496 c 4
 46.4375 375.7 60.2031 384.929 75.1377 389.084 c 4
 90.0723 393.239 105.973 392.725 121.259 390.144 c 4x40
  Spiro
    121.259 390.144 o
    416.171 384 o
    747.947 374.784 o
    760.235 316.416 o
    634.283 264.192 o
    468.395 264.192 o
    317.867 267.264 o
    81.3227 270.336 o
    38.3147 362.496 o
    0 0 z
  EndSpiro
50.6025 608.256 m 4
 66.9482 624.394 88.4492 634.565 110.644 640.486 c 4
 132.836 646.407 155.964 648.282 178.931 647.932 c 4x10
 224.863 647.233 270.198 637.713 314.795 626.688 c 4
 369.999 613.041 425.655 597.255 482.499 598.884 c 4x08
 510.92 599.697 539.135 604.852 566.317 613.19 c 4
 593.5 621.53 619.562 633.162 646.57 642.048 c 4
 666.354 648.557 687.08 653.386 707.857 651.959 c 4
 728.636 650.533 749.323 642.122 763.307 626.688 c 4
 773.607 615.316 779.98 600.508 781.402 585.229 c 4
 782.822 569.951 779.418 554.379 772.522 540.672 c 4
 760.099 515.972 736.967 497.704 711.333 487.342 c 4
 685.699 476.979 657.49 473.987 629.897 475.756 c 4x20
 574.714 479.291 522.688 501.403 471.467 522.24 c 4
 425.779 540.824 378.264 558.019 328.941 558.178 c 4x08
 304.28 558.257 279.653 554.126 256.229 546.42 c 4
 232.803 538.714 210.739 527.439 188.843 516.096 c 4
 173.671 508.235 158.419 500.386 142.3 494.715 c 4
 126.182 489.045 109.017 485.646 91.9951 487.14 c 4x10
 74.9736 488.634 58.1934 495.32 45.8779 507.165 c 4
 33.5625 519.011 26.2109 535.874 26.0264 552.96 c 4
 25.915 563.323 28.3086 573.666 32.6465 583.079 c 4
 36.9844 592.49 43.2275 600.975 50.6025 608.256 c 4
  Spiro
    50.6027 608.256 o
    314.795 626.688 o
    646.571 642.048 o
    763.307 626.688 o
    772.523 540.672 o
    471.467 522.24 o
    188.843 516.096 o
    26.0267 552.96 o
    0 0 z
  EndSpiro
EndSplineSet
Validated: 33
EndChar

StartChar: question
Encoding: 63 63 34
Width: 591
VWidth: 0
InSpiro: 1
Flags: W
HStem: 11.9717 146.882<141.437 236.88> 608.36 111.214<-70.349 112.632>
LayerCount: 2
Fore
SplineSet
110.479 89.0879 m 0
 114.5 105.694 124.104 120.706 136.611 132.346 c 0
 149.121 143.984 164.579 152.447 181.135 156.672 c 0
 192.349 159.534 204.105 160.425 215.571 158.854 c 0
 227.039 157.281 238.213 153.189 247.688 146.546 c 0
 257.166 139.902 264.866 130.679 269.413 120.035 c 0
 273.958 109.392 275.273 97.4189 273.295 86.0156 c 0
 270.443 69.585 260.918 54.7988 248.61 43.5439 c 0
 236.305 32.29 221.43 24.0049 205.711 18.4316 c 0
 195.304 14.7422 184.396 12.2891 173.358 11.9717 c 0
 162.321 11.6543 151.129 13.6035 141.198 18.4316 c 0
 128.684 24.5176 118.521 35.2773 113.169 48.123 c 0
 107.817 60.9688 107.203 75.5635 110.479 89.0879 c 0
  Spiro
    110.478 89.088 o
    181.134 156.672 o
    273.294 86.016 o
    205.71 18.432 o
    141.198 18.432 o
    0 0 z
  EndSpiro
-70.7695 697.344 m 0
 -61.8438 706.52 -49.9883 712.509 -37.5986 715.724 c 0
 -25.208 718.939 -12.2959 719.558 0.504883 719.574 c 0
 26.1064 719.606 52.167 718.691 76.6865 726.056 c 0
 93.8643 731.215 109.767 739.818 125.521 748.394 c 0
 141.275 756.968 157.468 765.232 174.99 769.064 c 0
 194.689 773.371 215.473 771.604 234.608 765.244 c 0
 253.741 758.886 271.307 748.621 288.654 738.344 c 0
 321.277 719.017 355.193 701.943 387.701 682.424 c 0
 403.956 672.664 419.62 661.63 432.629 647.838 c 0
 445.638 634.046 455.807 617.36 460.687 599.04 c 0
 466.227 578.247 464.666 555.798 457.244 535.601 c 0
 449.822 515.402 436.958 497.588 422.285 481.848 c 0
 392.943 450.364 357.492 424.566 331.663 390.144 c 0
 309.065 360.029 295.062 324.521 276.366 291.84 c 0
 269.813 280.384 262.396 269.336 253.264 259.807 c 0
 244.132 250.278 233.192 242.3 220.823 237.692 c 0
 208.456 233.083 194.664 232.006 181.935 235.493 c 0
 169.204 238.98 157.771 247.09 150.415 258.048 c 0
 143.438 268.441 140.197 281.177 140.738 293.685 c 0
 141.277 306.191 145.459 318.379 151.714 329.224 c 0
 164.226 350.91 184.251 367.007 202.639 384 c 0
 218.454 398.615 233.434 414.55 243.714 433.473 c 0
 253.994 452.396 259.343 474.133 257.856 495.616 c 0
 256.369 517.1 248.106 537.98 234.927 555.011 c 0
 221.747 572.042 203.886 585.214 184.207 593.96 c 0
 159.487 604.944 132.062 608.959 105.019 608.36 c 0
 77.9756 607.763 51.3057 602.379 24.4629 599.04 c 0
 9.07031 597.125 -6.55078 596.021 -21.9316 598.023 c 0
 -37.3115 600.025 -52.5293 605.366 -64.5254 615.199 c 0
 -76.5205 625.031 -84.8887 639.511 -86.208 654.965 c 0
 -87.5273 670.419 -81.585 686.227 -70.7695 697.344 c 0
  Spiro
    -70.7698 697.344 o
    76.6862 726.056 o
    174.99 769.064 o
    288.654 738.344 o
    460.686 599.04 o
    331.662 390.144 o
    276.366 291.84 o
    150.414 258.048 o
    202.638 384 o
    184.206 593.96 o
    24.4622 599.04 o
    0 0 z
  EndSpiro
EndSplineSet
Validated: 33
EndChar

StartChar: at
Encoding: 64 64 35
Width: 1034
VWidth: 0
InSpiro: 1
Flags: W
HStem: 49.1523 92.9668<423.872 771.41>
LayerCount: 2
Fore
SplineSet
357.461 334.848 m 0
 345.616 340.477 336.466 351.274 332.361 363.729 c 0
 328.259 376.185 328.942 389.925 332.885 402.432 c 0
 337.174 416.038 345.12 428.388 355.21 438.472 c 0
 365.301 448.557 377.659 456.473 391.253 460.8 c 0
 399.784 463.516 408.81 464.783 417.741 464.154 c 0
 426.671 463.526 435.501 460.963 443.205 456.401 c 0
 450.907 451.838 457.432 445.264 461.783 437.439 c 0
 466.134 429.615 468.265 420.599 468.053 411.648 c 0
 467.778 400.062 463.646 388.781 457.459 378.983 c 0
 451.271 369.185 443.178 360.681 434.261 353.28 c 0
 423.561 344.4 411.493 336.9 398.18 332.887 c 0
 384.865 328.874 370.021 328.879 357.461 334.848 c 0
  Spiro
    357.461 334.848 o
    332.885 402.432 o
    391.253 460.8 o
    468.053 411.648 o
    434.261 353.28 o
    0 0 z
  EndSpiro
520.277 433.152 m 0
 514.222 450.425 509.899 468.293 503.215 485.332 c 0
 496.529 502.371 487.278 518.654 474.197 531.456 c 0
 457.648 547.65 435.161 557.52 412.058 559.057 c 0
 388.954 560.595 365.761 554.342 345.173 543.744 c 0
 299.639 520.306 263.976 478.352 246.869 430.08 c 0
 238.033 405.147 234.778 377.899 240.118 351.992 c 0
 245.457 326.084 259.839 302.011 280.661 285.696 c 0
 297.456 272.537 317.972 264.537 339.044 261.205 c 0
 360.118 257.873 381.673 258.987 402.823 261.79 c 0
 445.124 267.396 486.86 277.762 529.493 279.552 c 0
 558.42 280.767 587.373 278.648 616.324 278.442 c 0
 645.275 278.234 674.812 280.674 701.525 291.84 c 0
 721.519 300.197 739.539 313.412 753.002 330.394 c 0
 766.463 347.376 775.255 367.882 779.151 389.199 c 0
 786.944 431.832 775.433 475.638 759.894 516.096 c 0
 739.642 568.822 716.563 620.409 695.381 672.768 c 0
 680.434 709.713 663.201 747.084 633.941 774.145 c 0
 616.878 789.925 596.156 801.668 573.923 808.438 c 0
 551.688 815.207 528.188 817.119 504.964 816.224 c 0
 458.515 814.433 412.938 803.263 366.677 798.72 c 0
 323.225 794.454 279.33 795.917 235.957 790.896 c 0
 214.272 788.389 192.698 783.892 172.451 775.729 c 0
 152.204 767.566 133.42 755.649 117.845 740.352 c 0
 91.7168 714.689 75.6201 680.352 65.6211 645.12 c 0
 41.3838 559.721 36.6426 468.649 50.2607 380.928 c 0
 61.7051 307.215 90.7432 236.436 133.205 175.104 c 0
 153.029 146.47 175.979 119.847 202.681 97.4873 c 0
 229.381 75.126 259.981 57.3076 292.949 46.0801 c 0
 355.399 24.8125 423.36 29.2812 488.866 37.1182 c 0
 554.371 44.9561 620.212 50.7793 686.165 49.1523 c 0
 709.474 48.5771 732.797 47.5693 756.096 48.4375 c 0
 779.396 49.3057 803.057 52.0674 824.405 61.4404 c 0
 835.106 66.1377 845.139 72.5811 853.194 81.0479 c 0
 861.251 89.5156 867.248 100.078 869.566 111.533 c 0
 871.885 122.988 870.383 135.243 865.011 145.623 c 0
 859.64 156.003 850.479 164.294 839.765 168.96 c 0
 825.639 175.112 809.431 174.921 794.397 171.547 c 0
 779.364 168.173 765.126 162.021 750.677 156.672 c 0
 726.774 147.822 701.56 142.091 676.072 142.119 c 0
 650.584 142.146 625.373 146.871 600.149 150.528 c 0
 563.532 155.835 526.348 157.135 489.494 153.83 c 0
 452.643 150.526 415.964 144.109 378.965 144.384 c 0
 329.913 144.749 280.702 158.966 240.725 187.392 c 0
 195.352 219.655 162.473 267.423 141.726 319.087 c 0
 120.978 370.749 110.622 426.641 111.701 482.304 c 0
 112.287 512.509 116.604 542.797 126.488 571.345 c 0
 136.373 599.893 152.079 626.533 173.141 648.192 c 0
 198.371 674.137 230.847 692.416 265.301 703.488 c 0
 324.369 722.469 388.137 724.083 449.621 715.776 c 0
 481.63 711.451 513.473 703.479 542.101 688.523 c 0
 570.729 673.566 595.462 651.096 612.437 623.616 c 0
 626.521 600.814 635.46 575.182 642.016 549.195 c 0
 648.57 523.21 653.557 496.75 655.445 470.016 c 0
 656.942 448.817 655.998 426.839 647.38 407.414 c 0
 643.071 397.7 636.806 388.786 628.695 381.92 c 0
 620.586 375.054 610.641 370.322 600.149 368.64 c 0
 590.918 367.159 581.337 368.036 572.478 371.025 c 0
 563.619 374.013 555.512 379.072 548.646 385.418 c 0
 534.914 398.11 526.463 415.507 520.277 433.152 c 0
  Spiro
    520.277 433.152 o
    474.197 531.456 o
    345.173 543.744 o
    246.869 430.08 o
    280.661 285.696 o
    529.493 279.552 o
    701.525 291.84 o
    759.893 516.096 o
    695.381 672.768 o
    633.941 774.144 o
    366.677 798.72 o
    117.845 740.352 o
    65.6213 645.12 o
    50.2613 380.928 o
    133.205 175.104 o
    292.949 46.08 o
    686.165 49.152 o
    824.405 61.44 o
    839.765 168.96 o
    750.677 156.672 o
    600.149 150.528 o
    378.965 144.384 o
    240.725 187.392 o
    111.701 482.304 o
    173.141 648.192 o
    265.301 703.488 o
    449.621 715.776 o
    612.437 623.616 o
    655.445 470.016 o
    600.149 368.64 o
    0 0 z
  EndSpiro
EndSplineSet
Validated: 41
EndChar

StartChar: dollar
Encoding: 36 36 36
Width: 747
VWidth: 0
InSpiro: 1
Flags: W
HStem: 416.617 53.7676<116.344 220.952> 606.433 90.1523<340.419 480.588> 645.019 53.2061<110.166 208.751>
VStem: 213.76 79.8721<-32.4078 17.2578 30.2461 84.9304> 229.12 66.7998<144.537 347.146> 234.864 61.0557<145.194 347.25 380.782 403.096 484.794 618.858>
LayerCount: 2
Fore
SplineSet
308.992 144.384 m 0x88
 301.752 147.613 295.973 153.816 292.924 161.134 c 0
 289.874 168.451 289.456 176.659 290.555 184.51 c 0
 292.75 200.212 300.087 214.788 302.848 230.4 c 0
 304.455 239.484 304.621 248.8 303.569 257.964 c 0
 302.518 267.129 300.324 276.116 298.469 285.153 c 0
 296.614 294.19 295.15 303.42 295.92 312.612 c 0
 296.688 321.806 299.882 330.946 305.92 337.92 c 0
 310.802 343.556 317.448 347.642 324.686 349.431 c 0
 331.925 351.22 339.655 350.731 346.737 348.399 c 0
 353.819 346.068 360.247 341.96 365.729 336.904 c 0
 371.207 331.848 375.78 325.862 379.648 319.488 c 0
 389.58 303.116 395.47 284.429 397.933 265.439 c 0
 400.395 246.449 398.692 226.812 391.936 208.896 c 0
 383.827 187.39 370.083 167.788 352 153.6 c 0
 345.93 148.836 339.117 144.858 331.65 142.912 c 0
 324.184 140.967 316.038 141.24 308.992 144.384 c 0x88
  Spiro
    308.992 144.384 o
    302.848 230.4 o
    305.92 337.92 o
    379.648 319.488 o
    391.936 208.896 o
    352 153.6 o
    0 0 z
  EndSpiro
219.904 491.52 m 0
 210.42 480.666 197.261 473.07 183.1 470.385 c 0
 168.938 467.697 154.018 469.854 140.862 475.742 c 0
 127.706 481.632 116.287 491.097 107.336 502.395 c 0
 98.3848 513.692 91.7803 526.816 87.8076 540.672 c 0
 82.6533 558.652 82.0107 578.185 87.8076 595.968 c 0
 91.8613 608.403 99.1133 619.834 108.915 628.495 c 0
 118.717 637.155 131.009 642.966 143.927 645.019 c 0
 156.843 647.07 170.295 645.373 182.41 640.443 c 0
 194.525 635.514 205.267 627.419 213.76 617.472 c 0xb0
 228.312 600.43 236.455 578.362 238.336 556.032 c 0
 239.301 544.585 238.575 532.947 235.64 521.841 c 0
 232.703 510.734 227.463 500.171 219.904 491.52 c 0
  Spiro
    219.904 491.52 o
    87.808 540.672 o
    87.808 595.968 o
    213.76 617.472 o
    238.336 556.032 o
    0 0 z
  EndSpiro
210.688 720.745 m 0
 205.561 713.207 198.425 707.02 190.133 703.229 c 0
 181.843 699.438 172.598 698.034 163.482 698.225 c 0
 145.252 698.605 127.534 704.731 109.312 705.386 c 0
 93.9365 705.938 78.3633 702.344 65.1309 694.497 c 0
 51.8975 686.65 41.1201 675.128 32.5117 662.378 c 0
 21.376 645.882 13.332 627.304 8.80957 607.922 c 0
 4.28516 588.541 3.76465 568.174 7.93555 548.714 c 0
 13.1523 524.381 25.0059 501.938 38.6562 481.13 c 0
 49.082 465.235 60.8877 449.975 75.7676 438.146 c 0
 90.6475 426.315 108.866 418.854 127.744 416.617 c 0
 145.438 414.521 163.436 416.632 181.118 414.442 c 0
 189.959 413.348 198.73 411.06 206.583 406.851 c 0
 214.436 402.643 221.264 396.484 226.048 388.97 c 0
 231.709 380.078 234.379 369.511 234.864 358.98 c 0xa4
 235.35 348.451 233.857 337.938 232.192 327.529 c 0
 228.701 305.711 225.788 283.707 226.489 261.623 c 0
 227.19 239.538 230.576 217.481 229.12 195.434 c 0xa8
 228.022 178.823 223.797 162.12 214.59 148.251 c 0
 205.382 134.383 191.128 123.812 174.991 119.72 c 0
 158.855 115.627 141.47 118.122 126.271 124.915 c 0
 111.074 131.708 98.1211 142.527 84.7363 152.426 c 0
 77.5713 157.725 70.127 162.755 61.9414 166.279 c 0
 53.7568 169.803 44.7412 171.746 35.8877 170.729 c 0
 27.0352 169.71 18.4648 165.566 12.6504 158.812 c 0
 6.83594 152.059 4.03223 142.866 4.86426 133.993 c 0
 5.50488 127.152 8.17578 120.583 12.041 114.902 c 0
 15.9062 109.22 20.9102 104.376 26.3682 100.201 c 0
 40.5303 89.3711 57.3525 82.2207 74.7363 78.2705 c 0
 92.1221 74.3213 110.354 74.7686 127.744 78.6973 c 0
 143.543 82.2666 159.076 88.3926 175.27 88.0312 c 0
 183.365 87.8496 191.517 85.8838 198.409 81.6309 c 0
 205.301 77.3789 210.743 70.8535 213.76 63.3379 c 0
 216.659 56.1152 217.339 48.1602 216.848 40.3926 c 0
 216.355 32.626 214.789 24.9717 213.76 17.2578 c 0
 212.663 9.03223 212.234 0.600586 214.007 -7.50586 c 0
 215.778 -15.6123 219.857 -23.2979 226.048 -28.8223 c 0
 231.344 -33.5488 238.076 -36.6172 245.103 -37.623 c 0
 252.128 -38.6289 259.401 -37.6221 265.984 -34.9668 c 0
 273.177 -32.0654 279.558 -27.2021 284.324 -21.085 c 0
 289.092 -14.9668 292.183 -7.61914 293.632 0 c 0
 295.521 9.93457 294.631 20.1514 294.043 30.2461 c 0
 293.455 40.3418 293.461 50.6875 296.704 60.2656 c 0
 298.762 66.3418 302.065 71.9941 306.377 76.7441 c 0
 310.688 81.4951 315.954 85.3281 321.633 88.3096 c 0
 332.993 94.2734 345.744 96.9082 358.145 100.201 c 0
 375.656 104.853 392.634 111.754 407.774 121.708 c 0
 422.915 131.661 436.589 143.657 450.304 155.497 c 0
 460.92 164.661 471.588 173.836 480.973 184.258 c 0
 490.356 194.679 498.269 206.648 502.528 220.01 c 0
 507.872 236.771 507.048 255.026 502.746 272.086 c 0
 498.443 289.145 491.483 305.418 484.096 321.386 c 0
 477.507 335.627 470.271 349.816 459.816 361.52 c 0
 449.361 373.221 435.117 381.765 419.584 384 c 0
 410.733 385.273 401.692 384.632 392.896 383.026 c 0
 384.1 381.422 375.498 378.905 366.775 376.938 c 0
 358.054 374.967 349.106 373.581 340.188 374.222 c 0
 331.27 374.863 322.424 377.646 315.136 382.825 c 0
 308.617 387.459 303.457 393.932 300.197 401.236 c 0
 296.938 408.54 295.548 416.59 295.467 424.587 c 0
 295.306 440.583 300.019 456.17 302.848 471.913 c 0
 305.431 486.283 306.268 501.031 304.292 515.497 c 0
 302.315 529.962 297.616 543.885 293.632 557.93 c 0
 290.427 569.227 287.85 580.977 289.188 592.643 c 0
 289.855 598.477 291.522 604.221 294.34 609.372 c 0
 297.155 614.523 301.127 619.05 305.92 622.441 c 0
 310.983 626.024 316.925 628.312 323.053 629.271 c 0
 329.182 630.232 335.47 629.893 341.562 628.721 c 0
 353.745 626.378 365.057 620.905 376.576 616.298 c 0
 390.341 610.791 404.851 606.672 419.673 606.433 c 0
 434.496 606.191 449.383 609.567 462.592 616.298 c 0
 471.445 620.809 479.575 626.832 486.128 634.304 c 0
 492.68 641.773 497.616 650.754 499.793 660.449 c 0
 501.97 670.145 501.285 680.528 497.439 689.69 c 0
 493.596 698.854 486.602 706.638 477.952 711.529 c 0
 470.865 715.537 462.768 717.624 454.636 718.018 c 0
 446.503 718.41 438.355 717.155 430.489 715.057 c 0
 414.757 710.859 400.033 703.395 384.258 699.357 c 0
 376.371 697.339 368.216 696.188 360.084 696.585 c 0xd0
 351.952 696.983 343.874 698.962 336.602 702.623 c 0
 329.33 706.283 322.929 711.608 317.833 717.958 c 0
 312.738 724.308 308.969 731.629 305.92 739.178 c 0
 301.216 750.826 298.076 763.277 291.148 773.757 c 0
 287.685 778.997 283.243 783.664 277.845 786.877 c 0
 272.447 790.089 266.111 791.764 259.84 791.401 c 0
 252.238 790.961 244.948 787.499 239.41 782.271 c 0
 233.873 777.044 230.054 770.23 227.259 763.146 c 0
 224.464 756.062 222.585 748.658 220.229 741.416 c 0
 217.874 734.174 214.971 727.042 210.688 720.745 c 0
  Spiro
    210.688 720.746 o
    109.312 705.386 o
    32.512 662.378 o
    7.936 548.713 o
    38.656 481.129 o
    127.744 416.617 o
    226.048 388.969 o
    232.192 327.529 o
    229.12 195.433 o
    84.736 152.425 o
    4.864 133.993 o
    26.368 100.202 o
    127.744 78.6976 o
    213.76 63.3376 o
    213.76 17.2576 o
    226.048 -28.8224 o
    265.984 -34.9664 o
    293.632 0 o
    296.704 60.2656 o
    358.144 100.202 o
    450.304 155.497 o
    502.528 220.009 o
    484.096 321.385 o
    419.584 384 o
    315.136 382.825 o
    302.848 471.913 o
    293.632 557.929 o
    305.92 622.442 o
    376.576 616.298 o
    462.592 616.298 o
    477.952 711.53 o
    305.92 739.178 o
    259.84 791.402 o
    0 0 z
  EndSpiro
EndSplineSet
Validated: 41
EndChar

StartChar: percent
Encoding: 37 37 37
Width: 1024
VWidth: 0
InSpiro: 1
Flags: W
VStem: 443.603 74.71<562.661 698.034> 516.698 56.7422<144.379 268.809>
LayerCount: 2
Fore
SplineSet
370.688 525.312 m 0x80
 380.943 522.696 390.761 518.583 400.972 515.802 c 0
 406.077 514.411 411.319 513.416 416.61 513.325 c 0
 421.901 513.232 427.237 514.077 432.128 516.096 c 0
 439.492 519.138 445.648 524.927 449.271 532.024 c 0
 452.895 539.122 454.031 547.293 453.604 555.251 c 0
 452.751 571.164 446.677 586.336 444.416 602.112 c 0
 442.581 614.916 443.178 627.918 443.603 640.846 c 0
 444.029 653.775 443.681 667.162 438.272 678.912 c 0
 433.562 689.142 424.907 697.585 414.356 701.524 c 0
 403.807 705.463 391.864 704.879 381.283 701.023 c 0
 370.703 697.167 361.438 690.319 353.281 682.555 c 0
 345.125 674.789 337.89 666.119 330.752 657.408 c 0
 320.656 645.086 310.487 632.753 301.995 619.276 c 0
 293.502 605.801 286.883 590.37 287.744 574.464 c 0
 288.104 567.822 289.809 561.228 292.956 555.367 c 0
 296.105 549.508 300.697 544.445 306.176 540.672 c 0
 315.356 534.349 326.623 531.904 337.679 530.481 c 0
 348.734 529.057 359.887 528.066 370.688 525.312 c 0x80
  Spiro
    370.688 525.312 o
    432.128 516.096 o
    444.416 602.112 o
    438.272 678.912 o
    330.752 657.408 o
    287.744 574.464 o
    306.176 540.672 o
    0 0 z
  EndSpiro
573.44 215.04 m 0x40
 573.32 200.374 575.54 185.636 580.583 171.864 c 0
 585.627 158.092 593.563 145.308 604.16 135.168 c 0
 620.313 119.71 642.898 110.992 665.213 112.382 c 0
 687.527 113.772 708.549 125.121 723.968 141.312 c 0
 734.617 152.494 742.888 165.729 750.105 179.379 c 0
 757.325 193.03 763.702 207.107 770.048 221.184 c 0
 777.511 237.741 785.031 254.4 789.499 272.003 c 0
 793.967 289.606 794.812 308.61 788.48 325.632 c 0
 784.688 335.824 778.411 345.09 770.295 352.329 c 0
 762.18 359.567 752.301 364.753 741.824 367.667 c 0
 720.87 373.498 698.188 370.305 677.888 362.496 c 0
 651.612 352.388 628.253 335.034 610.304 313.344 c 0
 587.56 285.858 573.73 250.714 573.44 215.04 c 0x40
  Spiro
    573.44 215.04 o
    604.16 135.168 o
    723.968 141.312 o
    770.048 221.184 o
    788.48 325.632 o
    677.888 362.496 o
    610.304 313.344 o
    0 0 z
  EndSpiro
171.008 92.1602 m 0
 153.564 100.667 140.096 116.696 134.144 135.168 c 0
 131.569 143.159 130.339 151.539 130.339 159.935 c 0
 130.339 167.706 131.393 175.49 133.41 182.993 c 0
 137.606 198.604 145.869 212.99 156.533 225.139 c 0
 177.859 249.437 207.981 264.237 238.486 274.946 c 0
 268.991 285.654 300.822 292.954 329.941 307.002 c 0
 344.5 314.027 358.344 322.792 369.925 334.07 c 0
 381.506 345.35 390.78 359.253 395.264 374.784 c 0
 397.167 381.374 398.167 388.246 398.167 395.104 c 0
 398.167 401.746 397.229 408.374 395.264 414.72 c 0
 390.008 431.691 377.307 445.955 361.583 454.227 c 0
 345.858 462.499 327.706 465.044 309.938 465.094 c 0
 309.332 465.095 l 0
 291.893 465.095 274.502 462.995 257.062 462.995 c 0
 239.072 463.01 220.991 465.436 204.8 473.088 c 0
 192.201 479.044 181.036 488.088 172.854 499.368 c 0
 164.672 510.649 159.519 524.041 157.602 537.846 c 0
 156.999 542.193 156.711 546.556 156.711 550.914 c 0
 156.711 574.229 164.949 597.409 177.152 617.472 c 0
 201.449 657.421 240.885 687.088 284.672 703.488 c 0
 324.243 718.31 366.06 726.215 407.552 734.208 c 0
 420.027 736.611 432.647 738.582 445.353 738.657 c 0
 446.062 738.659 l 0
 458.536 738.659 471.142 736.683 482.482 731.498 c 0
 494.037 726.217 504.082 717.482 510.375 706.444 c 0
 515.839 696.859 518.312 685.77 518.312 674.716 c 0x80
 518.312 654.479 510.503 637.909 507.613 619.053 c 0
 506.306 610.521 506.135 601.712 508.223 593.335 c 0
 510.311 584.96 514.747 577.108 521.216 571.392 c 0
 525.841 567.307 531.436 564.34 537.396 562.74 c 0
 543.354 561.141 549.65 560.899 555.755 561.805 c 0
 567.963 563.612 579.125 569.874 588.8 577.536 c 0
 614.22 597.666 633.168 624.826 657.195 646.6 c 0
 681.223 668.373 708.296 687.943 739.328 697.344 c 0
 748.646 700.166 758.359 701.884 768.092 701.659 c 0
 777.826 701.435 787.597 699.192 796.102 694.454 c 0
 804.608 689.717 811.741 682.43 815.909 673.629 c 0
 820.075 664.83 821.165 654.655 819.2 645.12 c 0
 817.017 634.527 811.23 624.926 803.96 616.919 c 0
 796.69 608.911 788.035 602.295 779.264 595.968 c 0
 753.68 577.513 727.752 559.532 702.464 540.672 c 0
 692.646 533.35 682.893 525.824 674.544 516.863 c 0
 666.195 507.901 659.351 497.26 656.384 485.376 c 0
 655.312 481.079 654.771 476.649 654.771 472.221 c 0
 654.771 465.593 655.981 458.969 658.428 452.809 c 0
 662.51 442.532 669.907 433.703 678.959 427.354 c 0
 688.012 421.003 698.6 417.075 709.426 414.833 c 0
 720.254 412.59 731.347 411.954 742.4 411.648 c 0
 757.618 411.227 772.893 411.335 787.991 409.386 c 0
 803.091 407.438 818.012 403.371 831.488 396.288 c 0
 850.754 386.162 866.527 369.892 877.064 350.847 c 0
 887.602 331.803 893.316 310.367 896 288.768 c 0
 897.197 279.133 897.828 269.412 897.828 259.697 c 0
 897.828 245.007 896.386 230.329 893.283 215.978 c 0
 888.13 192.138 877.855 169.239 862.208 150.528 c 0
 843.145 127.731 816.676 112.071 788.776 101.842 c 0
 760.875 91.6113 731.622 85.6104 702.464 79.8721 c 0
 680.593 75.5684 658.615 71.501 636.385 69.8604 c 0
 630.644 69.4365 624.864 69.1914 619.088 69.1914 c 0
 602.496 69.1914 585.929 71.21 570.368 76.7998 c 0
 550.348 83.9922 532.369 97.6914 521.955 116.241 c 0
 516.748 125.517 513.44 135.817 511.962 146.352 c 0
 510.484 156.885 510.834 167.604 512 178.176 c 0
 513.582 192.516 516.698 206.9 516.698 221.23 c 0
 516.698 225.008 516.482 228.782 515.963 232.552 c 0
 514.721 241.582 511.632 250.462 506.228 257.804 c 0
 500.823 265.145 493.085 270.794 484.352 273.408 c 0
 476.872 275.646 468.782 275.659 461.217 273.729 c 0
 453.651 271.798 446.639 267.991 440.502 263.164 c 0
 428.228 253.511 419.466 240.199 410.624 227.328 c 0
 398.854 210.193 385.981 193.711 370.687 179.631 c 0
 355.394 165.551 338.422 153.437 321.536 141.312 c 0
 298.944 125.092 276.72 107.917 251.523 96.1426 c 0
 238.925 90.2559 225.449 85.9727 211.586 84.8896 c 0
 209.365 84.7168 207.136 84.6289 204.905 84.6289 c 0
 193.213 84.6289 181.505 87.041 171.008 92.1602 c 0
  Spiro
    171.008 92.16 o
    134.144 135.168 o
    395.264 374.784 o
    395.264 414.72 o
    204.8 473.088 o
    177.152 617.472 o
    284.672 703.488 o
    407.552 734.208 o
    518.144 669.696 o
    521.216 571.392 o
    588.8 577.536 o
    739.328 697.344 o
    819.2 645.12 o
    779.264 595.968 o
    702.464 540.672 o
    656.384 485.376 o
    742.4 411.648 o
    831.488 396.288 o
    896 288.768 o
    862.208 150.528 o
    702.464 79.872 o
    570.368 76.8 o
    512 178.176 o
    484.352 273.408 o
    410.624 227.328 o
    321.536 141.312 o
    0 0 z
  EndSpiro
EndSplineSet
Validated: 33
EndChar

StartChar: a
Encoding: 97 97 38
Width: 735
VWidth: 0
InSpiro: 1
Flags: W
LayerCount: 2
Fore
SplineSet
171.539 160.6 m 0
 187.573 158.595 203.941 159.939 219.652 163.719 c 0
 235.362 167.498 250.524 173.557 264.539 181.6 c 0
 282.417 191.86 298.855 205.87 307.954 224.365 c 0
 312.505 233.613 315.061 243.893 314.898 254.198 c 0
 314.736 264.503 311.812 274.744 306.539 283.6 c 0
 298.429 297.224 285.064 307.075 270.658 313.699 c 0
 256.252 320.323 240.811 324.332 225.539 328.6 c 0
 201.819 335.23 178.449 343.53 154.129 347.413 c 0
 141.968 349.354 129.464 349.866 117.374 347.518 c 0
 105.285 345.171 93.6963 339.835 84.5391 331.6 c 0
 74.0762 322.19 67.083 309.17 64.3154 295.372 c 0
 61.5488 281.575 62.7715 267.158 66.5391 253.6 c 0
 73.1602 229.776 87.1045 208.152 105.405 191.525 c 0
 123.707 174.898 147.005 163.668 171.539 160.6 c 0
  Spiro
    171.539 160.6 o
    264.539 181.6 o
    306.539 283.6 o
    225.539 328.6 o
    84.5391 331.6 o
    66.5391 253.6 o
    0 0 z
  EndSpiro
6.53906 211.6 m 0
 0.842773 240.053 -6.79688 268.275 -8.77539 297.225 c 0
 -9.76562 311.701 -9.1416 326.366 -5.79395 340.484 c 0
 -2.44629 354.601 3.69336 368.099 12.5391 379.6 c 0
 22.0791 392.004 34.6729 401.934 48.6455 408.978 c 0
 62.6182 416.022 77.8652 420.262 93.2744 422.988 c 0
 124.093 428.439 155.572 429.072 186.539 433.6 c 0
 213.317 437.516 239.721 444.025 266.658 446.625 c 0
 293.597 449.226 321.745 446.494 345.539 433.6 c 0
 365.853 422.592 381.964 404.928 394.036 385.23 c 0
 406.11 365.532 414.961 344.052 423.539 322.6 c 0
 436.731 289.613 447.793 255.659 453.539 220.6 c 0
 456.388 203.221 458.486 185.571 464.342 168.962 c 0
 470.196 152.353 480.617 136.952 495.539 127.6 c 0
 506.45 120.762 519.273 117.335 532.125 116.523 c 0
 544.977 115.711 557.838 117.339 570.647 118.658 c 0
 583.456 119.976 596.479 120.895 609.14 118.539 c 0
 621.8 116.183 634.027 110.263 642.539 100.6 c 0
 647.67 94.7764 651.385 87.7119 653.241 80.1768 c 0
 655.099 72.6416 655.103 64.6777 653.418 57.1016 c 0
 650.052 41.9502 640.046 28.792 627.539 19.5996 c 0
 615.245 10.5645 600.631 4.99219 585.653 2.08008 c 0
 570.678 -0.833008 555.252 -1.13574 540.078 0.456055 c 0
 509.73 3.63867 480.658 14.6113 453.539 28.5996 c 0
 430.091 40.6953 407.759 55.0137 383.555 65.5146 c 0
 359.351 76.0166 332.815 81.9844 306.539 79.5996 c 0
 280.405 77.2285 255.716 66.8359 232.234 55.1211 c 0
 208.754 43.4053 185.275 30.7285 159.539 25.5996 c 0
 135.078 20.7256 108.881 23.3613 86.7588 34.8818 c 0
 64.6367 46.4014 47.4453 66.1689 36.5391 88.5996 c 0
 27.2842 107.635 22.1338 128.388 18.0615 149.159 c 0
 13.9883 169.929 10.6943 190.846 6.53906 211.6 c 0
  Spiro
    6.53913 211.6 o
    12.5391 379.6 o
    186.539 433.6 o
    345.539 433.6 o
    423.539 322.6 o
    453.539 220.6 o
    495.539 127.6 o
    642.539 100.6 o
    627.539 19.6 o
    453.539 28.6 o
    306.539 79.6 o
    159.539 25.6 o
    36.5391 88.6 o
    0 0 z
  EndSpiro
EndSplineSet
Validated: 33
EndChar

StartChar: acute
Encoding: 180 180 39
Width: 515
VWidth: 0
InSpiro: 1
Flags: W
HStem: 630.658 216.941
VStem: 82.2246 223.986
LayerCount: 2
Fore
SplineSet
95.5332 691.6 m 0
 102.803 701.619 110.501 711.347 116.992 721.886 c 0
 123.482 732.426 128.959 743.548 134.533 754.6 c 0
 145.303 775.955 157.534 796.928 174.528 813.757 c 0
 191.522 830.586 212.935 843.719 236.533 847.6 c 0
 247.545 849.411 259.02 849.045 269.641 845.617 c 0
 280.261 842.19 289.898 835.573 296.533 826.6 c 0
 301.521 819.854 304.788 811.881 306.211 803.612 c 0
 307.634 795.344 307.25 786.812 305.533 778.6 c 0
 302.243 762.865 294.272 748.426 284.62 735.571 c 0
 274.968 722.717 263.604 711.216 251.533 700.6 c 0
 234.2 685.357 215.042 672.191 194.533 661.6 c 0
 175.037 651.532 155.267 641.783 134.533 634.6 c 0
 126.202 631.714 117.363 629.653 108.604 630.658 c 0
 104.225 631.161 99.915 632.452 96.085 634.636 c 0
 92.2559 636.82 88.9326 639.902 86.5332 643.6 c 0
 84.166 647.248 82.7129 651.468 82.2246 655.789 c 0
 81.7344 660.109 82.1914 664.512 83.3252 668.709 c 0
 85.5947 677.105 90.4268 684.561 95.5332 691.6 c 0
  Spiro
    95.5333 691.6 o
    134.533 754.6 o
    236.533 847.6 o
    296.533 826.6 o
    305.533 778.6 o
    251.533 700.6 o
    194.533 661.6 o
    134.533 634.6 o
    86.5333 643.6 o
    0 0 z
  EndSpiro
EndSplineSet
Validated: 33
EndChar

StartChar: asciitilde
Encoding: 126 126 40
Width: 795
VWidth: 0
InSpiro: 1
LayerCount: 2
Fore
SplineSet
6.04492 382.6 m 0
 1.72266 398.671 3.64648 416.017 9.39453 431.634 c 0
 15.1426 447.252 24.668 461.377 36.4346 473.145 c 0
 59.9688 496.682 92.7803 510.476 126.045 511.6 c 0
 150.271 512.419 174.396 506.731 196.85 497.597 c 0
 219.302 488.463 240.302 476.14 261.045 463.6 c 0
 284.828 449.222 308.306 434.26 333.045 421.6 c 0
 355.955 409.877 380.554 400.138 406.27 399.152 c 0
 431.986 398.167 457.966 407.328 477.045 424.6 c 0
 493.827 439.793 504.934 460.048 516.843 479.299 c 0
 522.798 488.925 529.153 498.37 536.855 506.664 c 0
 544.557 514.959 553.67 522.075 564.045 526.6 c 0
 578.222 532.784 594.792 533.739 609.253 528.253 c 0
 623.713 522.768 635.575 510.985 641.497 496.697 c 0
 647.418 482.409 647.479 466.012 642.841 451.257 c 0
 638.204 436.502 629.131 423.385 618.045 412.6 c 0
 601.854 396.848 581.681 385.79 561.045 376.6 c 0
 509.65 353.71 455.123 336.14 399.045 331.6 c 0
 367.63 329.057 335.716 332.367 305.673 341.896 c 0
 275.63 351.425 248.146 367.492 219.045 379.6 c 0
 203.12 386.226 186.226 391.245 168.977 391.212 c 0
 151.729 391.18 134.771 385.582 120.045 376.6 c 0
 109.376 370.092 99.6992 362.07 89.1064 355.439 c 0
 78.5146 348.807 66.542 343.727 54.0449 343.6 c 0
 42.918 343.487 31.7949 347.449 23.2822 354.615 c 0
 14.7695 361.78 8.93652 371.855 6.04492 382.6 c 0
  Spiro
    6.04445 382.6 o
    126.044 511.6 o
    261.044 463.6 o
    333.044 421.6 o
    477.044 424.6 o
    564.044 526.6 o
    618.044 412.6 o
    561.044 376.6 o
    399.044 331.6 o
    219.044 379.6 o
    120.044 376.6 o
    54.0444 343.6 o
    0 0 z
  EndSpiro
EndSplineSet
Validated: 33
EndChar

StartChar: b
Encoding: 98 98 41
Width: 560
VWidth: 0
InSpiro: 1
Flags: W
HStem: 25.5996 85.084<154.752 249.82>
VStem: 33.376 91.498<363.405 561.652>
LayerCount: 2
Fore
SplineSet
152.757 133.6 m 0
 166.452 121.823 182.938 112.416 200.919 110.684 c 0
 209.908 109.819 219.131 110.946 227.503 114.334 c 0
 235.875 117.723 243.324 123.385 248.757 130.6 c 0
 255.486 139.54 258.988 150.727 259.267 161.914 c 0
 259.546 173.101 256.753 184.212 252.348 194.499 c 0
 243.537 215.073 229.32 232.798 215.757 250.6 c 0
 203.393 266.827 190.977 283.509 174.422 295.43 c 0
 166.145 301.391 156.749 305.969 146.721 307.835 c 0
 136.692 309.701 126.084 308.729 116.757 304.6 c 0
 110.115 301.66 104.176 297.173 99.4775 291.634 c 0
 94.7803 286.096 91.3281 279.538 89.1963 272.595 c 0
 84.9316 258.711 85.9619 243.62 89.7568 229.6 c 0
 94.8164 210.907 104.271 193.663 115.04 177.568 c 0
 125.812 161.474 138.073 146.226 152.757 133.6 c 0
  Spiro
    152.757 133.6 o
    248.757 130.6 o
    215.757 250.6 o
    116.757 304.6 o
    89.7565 229.6 o
    0 0 z
  EndSpiro
23.7568 349.6 m 0
 30.6855 382.225 34.8613 415.586 33.376 448.905 c 0
 31.8887 482.225 24.6289 514.963 17.7568 547.6 c 0
 10.6719 581.255 4.79395 616.682 14.7568 649.6 c 0
 19.2646 664.496 26.999 678.505 37.8223 689.688 c 0
 48.6455 700.872 62.5742 709.174 77.7568 712.6 c 0
 90.6035 715.499 104.319 714.818 116.624 710.119 c 0
 128.927 705.42 139.614 696.666 146.757 685.6 c 0
 155.399 672.209 158.691 655.92 158.651 639.981 c 0
 158.61 624.044 155.679 608.268 152.757 592.6 c 0
 146.605 559.627 141.339 526.49 134.757 493.6 c 0
 130.601 472.833 125.658 452.074 124.874 430.91 c 0
 124.089 409.746 128.481 387.858 140.757 370.6 c 0
 147.607 360.967 156.658 352.963 166.856 346.983 c 0
 177.054 341.004 188.324 337.016 199.818 334.252 c 0
 222.806 328.725 246.654 327.63 269.757 322.6 c 0
 291.818 317.796 313.086 309.289 332.168 297.219 c 0
 351.248 285.149 368.312 270.07 383.757 253.6 c 0
 404.822 231.136 423.751 205.564 432.302 175.979 c 0
 436.576 161.187 437.979 145.469 435.458 130.278 c 0
 432.936 115.088 426.423 100.586 416.757 88.5996 c 0
 405.603 74.7686 390.522 64.4795 374.367 57.082 c 0
 358.213 49.6846 341.011 44.8408 323.757 40.5996 c 0
 288.355 31.8994 252.19 24.374 215.757 25.5996 c 0
 174.148 27 133.685 41.9473 98.7568 64.5996 c 0
 62.5029 88.1123 30.6494 120.418 14.7568 160.6 c 0
 2.95312 190.442 0.791992 223.441 4.52246 255.314 c 0
 8.25586 287.188 17.0898 318.209 23.7568 349.6 c 0
  Spiro
    23.7565 349.6 o
    17.7565 547.6 o
    14.7565 649.6 o
    77.7565 712.6 o
    146.757 685.6 o
    152.757 592.6 o
    134.757 493.6 o
    140.757 370.6 o
    269.757 322.6 o
    383.757 253.6 o
    416.757 88.6 o
    323.757 40.6 o
    215.757 25.6 o
    98.7565 64.6 o
    14.7565 160.6 o
    0 0 z
  EndSpiro
EndSplineSet
Validated: 33
EndChar

StartChar: exclam
Encoding: 33 33 42
Width: 367
VWidth: 0
InSpiro: 1
Flags: W
VStem: 75.7676 113.67<295.436 515.636> 100.564 94.874<259.461 326.39 411.812 640.516>
LayerCount: 2
Fore
SplineSet
87.4375 100.6 m 0x00
 88.3955 112.047 92.7979 123.438 100.979 131.501 c 0
 105.068 135.533 110.04 138.676 115.46 140.577 c 0
 120.879 142.478 126.717 143.122 132.438 142.6 c 0
 143.665 141.576 153.981 136.122 163.51 130.096 c 0
 173.039 124.07 182.399 117.736 192.438 112.6 c 0
 200.239 108.608 208.363 105.224 215.903 100.755 c 0
 223.442 96.2861 230.391 90.374 234.438 82.5996 c 0
 238.543 74.7109 239.306 65.2256 236.823 56.6855 c 0
 234.34 48.1455 228.949 40.6572 222.438 34.5996 c 0
 213.334 26.1338 202.128 20.0498 190.27 16.3223 c 0
 178.41 12.5947 165.674 11.415 153.438 13.5996 c 0
 135.862 16.7373 119.944 26.9502 108.438 40.5996 c 0
 101.439 48.9014 95.8887 58.4287 92.165 68.627 c 0
 88.4404 78.8262 86.5312 89.7803 87.4375 100.6 c 0x00
  Spiro
    87.437 100.6 o
    132.437 142.6 o
    192.437 112.6 o
    234.437 82.6 o
    222.437 34.6 o
    153.437 13.6 o
    108.437 40.6 o
    0 0 z
  EndSpiro
81.4375 433.6 m 0
 87.4268 467.42 97.6357 500.561 100.564 534.783 c 0
 103.493 569.004 96.6924 603.827 81.4375 634.6 c 0
 68.8545 659.982 51.4883 683.393 44.2256 710.776 c 0
 40.5957 724.468 39.793 739.092 43.4268 752.783 c 0
 47.0596 766.474 55.2334 778.933 66.4375 787.6 c 0
 75.5869 794.677 86.5518 799.232 97.8926 801.515 c 0
 109.233 803.797 120.947 803.939 132.438 802.6 c 0
 146.413 800.971 160.2 797.182 172.74 790.8 c 0
 185.28 784.419 196.49 775.211 204.438 763.6 c 0
 214.093 749.493 218.488 732.195 218.522 715.1 c 0
 218.556 698.005 214.674 681.161 210.438 664.6 c 0
 202.38 633.107 195.1 601.106 195.438 568.6 c 0x40
 195.629 550.07 197.604 531.612 198.843 513.122 c 0
 200.082 494.633 200.249 476.042 198.438 457.6 c 0
 195.582 428.55 188.821 399.783 189.438 370.6 c 0
 189.976 345.074 196.531 319.639 193.873 294.246 c 0
 192.544 281.549 188.426 268.882 180.348 258.996 c 0
 172.271 249.111 160.173 242.471 147.438 241.6 c 0
 137.093 240.893 126.638 243.89 117.863 249.412 c 0
 109.088 254.935 101.955 262.822 96.4375 271.6 c 0
 81.7236 295.004 77.2324 323.436 75.7676 351.042 c 0x80
 74.3037 378.648 76.6162 406.379 81.4375 433.6 c 0
  Spiro
    81.437 433.6 o
    81.437 634.6 o
    66.437 787.6 o
    132.437 802.6 o
    204.437 763.6 o
    210.437 664.6 o
    195.437 568.6 o
    198.437 457.6 o
    189.437 370.6 o
    147.437 241.6 o
    96.437 271.6 o
    0 0 z
  EndSpiro
EndSplineSet
Validated: 33
EndChar

StartChar: quotedbl
Encoding: 34 34 43
Width: 330
VWidth: 0
InSpiro: 1
Flags: W
HStem: 587.982 221.907
VStem: 31.8867 55.9619<590.572 659.954> 135.6 54.3682<588.913 808.233>
LayerCount: 2
Fore
SplineSet
144.6 598.6 m 0
 138.642 605.866 135.612 615.186 134.514 624.518 c 0
 133.415 633.85 134.178 643.312 135.6 652.6 c 0
 137.905 667.661 141.829 682.518 142.604 697.734 c 0
 143.378 712.951 140.408 728.142 135.6 742.6 c 0
 133 750.416 130.064 758.159 128.456 766.237 c 0
 126.846 774.315 126.717 782.884 129.6 790.6 c 0
 131.935 796.85 136.269 802.384 141.945 805.889 c 0
 147.623 809.394 154.543 810.8 161.151 809.89 c 0
 167.762 808.98 173.984 805.816 178.872 801.274 c 0
 183.759 796.732 187.334 790.875 189.6 784.6 c 0
 194.62 770.699 193.354 755.312 190.44 740.823 c 0
 187.528 726.333 183.041 712.177 180.6 697.6 c 0
 178.838 687.081 178.218 676.331 179.402 665.732 c 0
 180.588 655.132 183.72 644.87 186.6 634.6 c 0
 188.63 627.36 190.426 619.909 189.968 612.404 c 0
 189.739 608.651 188.928 604.915 187.375 601.491 c 0
 185.821 598.067 183.518 594.971 180.6 592.6 c 0
 175.34 588.325 168.119 586.666 161.47 587.982 c 0
 154.82 589.299 148.897 593.359 144.6 598.6 c 0
  Spiro
    144.6 598.6 o
    135.6 652.6 o
    135.6 742.6 o
    129.6 790.6 o
    189.6 784.6 o
    180.6 697.6 o
    186.6 634.6 o
    180.6 592.6 o
    0 0 z
  EndSpiro
39.5996 604.6 m 0
 32.8301 616.516 32.0176 630.825 31.8867 644.529 c 0
 31.7559 658.233 32.0693 671.974 30.5996 685.6 c 0
 28.8477 701.837 24.4912 717.657 21.3662 733.686 c 0
 19.8037 741.701 18.6572 749.844 18.8809 758.006 c 0
 19.1035 766.169 20.7559 774.396 24.5996 781.6 c 0
 28.5039 788.916 34.8027 795.087 42.543 798.061 c 0
 50.2832 801.036 59.3193 800.571 66.5996 796.6 c 0
 73.1572 793.023 78.1104 786.78 80.5605 779.723 c 0
 83.0107 772.666 83.0566 764.927 81.5996 757.6 c 0
 79.7861 748.48 75.7773 739.964 71.7109 731.602 c 0
 67.6445 723.24 63.5049 714.846 60.9795 705.896 c 0
 58.4541 696.948 57.6436 687.459 59.209 678.293 c 0
 60.7734 669.127 64.708 660.508 69.5996 652.6 c 0
 75.1504 643.626 81.9678 635.278 85.6191 625.378 c 0
 87.4443 620.428 88.4023 615.096 87.8486 609.849 c 0
 87.2959 604.602 85.1689 599.485 81.5996 595.6 c 0
 78.7598 592.508 75.0449 590.231 71.001 589.102 c 0
 66.957 587.974 62.6152 587.994 58.5518 589.048 c 0
 54.4873 590.101 50.7129 592.168 47.5107 594.884 c 0
 44.3096 597.599 41.6738 600.95 39.5996 604.6 c 0
  Spiro
    39.6 604.6 o
    30.6 685.6 o
    24.6 781.6 o
    66.6 796.6 o
    81.6 757.6 o
    69.6 652.6 o
    81.6 595.6 o
    0 0 z
  EndSpiro
EndSplineSet
Validated: 33
EndChar

StartChar: ampersand
Encoding: 38 38 44
Width: 874
VWidth: 0
InSpiro: 1
Flags: W
VStem: 395.267 85.2539<620.28 759.605> 406.005 97.2617<229.014 293.496>
LayerCount: 2
Fore
SplineSet
323.267 550.6 m 0x80
 335.333 554.899 345.508 563.561 353.203 573.802 c 0
 360.897 584.042 366.41 595.747 371.267 607.6 c 0
 377.75 623.422 383.408 639.592 388.072 656.043 c 0
 392.737 672.493 396.136 689.523 395.267 706.6 c 0
 394.475 722.161 389.896 737.7 380.905 750.426 c 0
 371.916 763.152 358.54 772.796 343.507 776.892 c 0
 328.474 780.988 312.058 779.471 297.843 773.091 c 0
 283.628 766.711 271.738 755.676 263.267 742.6 c 0
 253.142 726.973 247.715 708.7 244.83 690.305 c 0
 241.943 671.909 241.219 653.191 242.267 634.6 c 0
 242.911 623.177 244.327 611.754 247.347 600.718 c 0
 250.365 589.682 255.082 579.001 262.147 570.002 c 0
 269.213 561.003 278.717 553.797 289.576 550.196 c 0
 300.437 546.595 312.488 546.76 323.267 550.6 c 0x80
  Spiro
    323.267 550.6 o
    371.267 607.6 o
    395.267 706.6 o
    263.267 742.6 o
    242.267 634.6 o
    0 0 z
  EndSpiro
221.267 352.6 m 0
 211.277 339.655 200.496 327.339 190.468 314.423 c 0
 180.439 301.508 171.364 287.429 167.267 271.6 c 0
 163.908 258.629 164.11 244.685 168.378 231.984 c 0
 172.645 219.283 180.851 208.028 191.267 199.6 c 0
 202.765 190.296 216.764 184.396 231.199 181.175 c 0
 245.636 177.954 260.541 177.262 275.322 177.772 c 0
 304.887 178.79 334.837 182.525 362.267 193.6 c 0
 377.065 199.575 391.147 208.887 399.228 222.65 c 0
 403.267 229.532 405.677 237.386 406.005 245.359 c 0x40
 406.334 253.332 404.567 261.335 401.267 268.6 c 0
 397.117 277.732 390.675 285.605 384.059 293.143 c 0
 377.442 300.681 370.685 308.159 365.267 316.6 c 0
 357.593 328.556 353.168 342.254 349.357 355.941 c 0
 345.548 369.627 341.402 383.72 332.267 394.6 c 0
 324.748 403.554 313.927 409.77 302.326 411.239 c 0
 290.727 412.708 278.821 409.543 268.734 403.628 c 0
 258.648 397.713 250.262 389.286 242.748 380.327 c 0
 235.233 371.369 228.41 361.857 221.267 352.6 c 0
  Spiro
    221.267 352.6 o
    167.267 271.6 o
    191.267 199.6 o
    362.267 193.6 o
    401.267 268.6 o
    365.267 316.6 o
    332.267 394.6 o
    0 0 z
  EndSpiro
635.267 55.5996 m 0
 627.099 52.7656 618.313 51.8193 609.701 52.5693 c 0
 601.088 53.3203 592.664 55.7305 584.748 59.208 c 0
 568.918 66.1621 555.135 77.0498 542.267 88.5996 c 0
 523.828 105.15 508.313 124.62 491.267 142.6 c 0
 486.706 147.411 481.856 151.995 476.383 155.734 c 0
 470.908 159.473 464.771 162.318 458.267 163.6 c 0
 448.163 165.591 437.489 163.522 428.367 158.741 c 0
 419.247 153.96 411.588 146.843 404.267 139.6 c 0
 392.754 128.21 381.256 116.621 367.675 107.799 c 0
 354.094 98.9766 338.907 92.7988 323.267 88.5996 c 0
 285.337 78.417 245.447 76.9111 206.267 79.5996 c 0
 179.64 81.4277 153.026 85.9551 128.063 95.3994 c 0
 103.101 104.843 79.8652 119.535 62.2666 139.6 c 0
 44.9766 159.313 33.4814 184.044 29.6074 209.977 c 0
 25.7344 235.91 29.3623 262.748 38.7373 287.235 c 0
 57.4883 336.21 97.3193 375.321 143.267 400.6 c 0
 164.954 412.532 188.604 420.333 212.267 427.6 c 0
 227.59 432.306 243.271 437.521 255.47 447.92 c 0
 261.568 453.119 266.646 459.61 269.697 467.021 c 0
 272.749 474.433 273.692 482.713 272.267 490.6 c 0
 270.984 497.688 267.831 504.387 263.455 510.109 c 0
 259.08 515.831 253.532 520.586 247.537 524.577 c 0
 235.544 532.561 221.901 537.677 209.267 544.6 c 0
 194.423 552.733 180.999 563.842 171.767 578.029 c 0
 162.535 592.217 157.436 608.812 155.267 625.6 c 0
 150.24 664.491 157.913 704.946 176.267 739.6 c 0
 188.997 763.635 207.58 784.539 229.979 799.965 c 0
 252.38 815.391 278.387 825.455 305.267 829.6 c 0
 332.091 833.736 359.929 832.008 385.724 823.567 c 0
 411.519 815.126 435.196 799.713 452.269 778.614 c 0
 469.341 757.515 479.401 730.854 480.521 703.735 c 0x80
 481.64 676.617 473.864 649.64 461.267 625.6 c 0
 447.867 600.031 429.46 577.498 413.267 553.6 c 0
 393.887 524.998 377.654 493.037 374.86 458.601 c 0
 373.464 441.383 375.446 423.771 381.737 407.682 c 0
 388.029 391.594 398.783 377.016 413.267 367.6 c 0
 422.548 361.566 433.333 357.745 444.385 357.111 c 0
 455.437 356.477 466.649 359.117 476.267 364.6 c 0
 490.213 372.552 500.195 386.119 507.022 400.649 c 0
 513.85 415.178 518.18 430.745 524.267 445.6 c 0
 530.057 459.732 537.542 473.288 547.607 484.774 c 0
 557.673 496.259 570.189 505.679 584.267 511.6 c 0
 594.354 515.843 605.252 518.28 616.194 518.217 c 0
 627.137 518.155 638.127 515.521 647.635 510.106 c 0
 657.144 504.69 665.074 496.454 669.833 486.6 c 0
 674.592 476.746 676.088 465.39 674.267 454.6 c 0
 672.839 446.137 669.442 438.06 664.765 430.865 c 0
 660.087 423.67 654.161 417.342 647.676 411.721 c 0
 634.705 400.479 619.709 391.876 605.267 382.6 c 0
 575.886 363.73 547.481 342.683 524.267 316.6 c 0
 517.626 309.139 511.613 300.992 507.605 291.843 c 0
 503.597 282.695 501.762 272.474 503.267 262.6 c 0
 504.299 255.83 506.87 249.307 510.678 243.615 c 0
 514.485 237.924 519.496 233.077 525.135 229.192 c 0
 536.414 221.421 549.896 217.57 563.267 214.6 c 0
 577.969 211.334 592.886 208.799 607.146 203.955 c 0
 621.406 199.11 635.007 191.972 646.29 181.996 c 0
 657.572 172.02 666.464 159.277 671.503 145.084 c 0
 676.541 130.891 677.73 115.257 674.267 100.6 c 0
 671.884 90.5156 667.271 80.918 660.567 73.0166 c 0
 653.863 65.1152 645.056 58.9971 635.267 55.5996 c 0
  Spiro
    635.267 55.6 o
    542.267 88.6 o
    491.267 142.6 o
    458.267 163.6 o
    404.267 139.6 o
    323.267 88.6 o
    206.267 79.6 o
    62.2667 139.6 o
    143.267 400.6 o
    212.267 427.6 o
    272.267 490.6 o
    209.267 544.6 o
    155.267 625.6 o
    176.267 739.6 o
    305.267 829.6 o
    461.267 625.6 o
    413.267 553.6 o
    413.267 367.6 o
    476.267 364.6 o
    524.267 445.6 o
    584.267 511.6 o
    674.267 454.6 o
    605.267 382.6 o
    524.267 316.6 o
    503.267 262.6 o
    563.267 214.6 o
    674.267 100.6 o
    0 0 z
  EndSpiro
EndSplineSet
Validated: 33
EndChar

StartChar: quotesingle
Encoding: 39 39 45
Width: 363
VWidth: 0
InSpiro: 1
Flags: W
HStem: 568.6 242.867
VStem: 49.2109 85.418<698.58 807.825> 71.208 58.0586<572.834 759.155>
LayerCount: 2
Fore
SplineSet
78.2666 589.6 m 0xa0
 71.2061 603.607 70.9863 619.968 71.208 635.653 c 0xa0
 71.4297 651.337 71.7373 667.109 69.2666 682.6 c 0
 66.3438 700.935 59.5029 718.364 54.2734 736.178 c 0
 51.6582 745.086 49.5771 754.215 49.2109 763.491 c 0
 48.8438 772.767 50.2734 782.22 54.2666 790.6 c 0
 58.6396 799.774 66.21 807.505 75.5693 811.467 c 0
 84.9277 815.429 95.8623 815.45 105.267 811.6 c 0
 114.956 807.634 122.805 799.77 127.621 790.474 c 0
 132.436 781.178 134.364 770.602 134.629 760.136 c 0xc0
 135.159 739.205 129.944 718.527 129.267 697.6 c 0
 128.579 676.316 133.438 655.34 138.267 634.6 c 0
 139.873 627.703 141.297 620.737 141.792 613.673 c 0
 142.287 606.608 141.814 599.407 139.64 592.668 c 0
 137.465 585.928 133.517 579.688 127.978 575.275 c 0
 122.439 570.863 115.346 568.405 108.267 568.6 c 0
 101.854 568.776 95.5615 571.09 90.3877 574.883 c 0
 85.2148 578.675 81.1553 583.872 78.2666 589.6 c 0xa0
  Spiro
    78.2667 589.6 o
    69.2667 682.6 o
    54.2667 790.6 o
    105.267 811.6 o
    129.267 697.6 o
    138.267 634.6 o
    108.267 568.6 o
    0 0 z
  EndSpiro
EndSplineSet
Validated: 33
EndChar

StartChar: parenleft
Encoding: 40 40 46
Width: 459
VWidth: 0
InSpiro: 1
Flags: W
VStem: 9.8916 72<284.79 535.439> 115.396 80.4951<20.8409 120.062>
LayerCount: 2
Fore
SplineSet
105.892 709.6 m 0
 103.261 693.056 99.3008 676.675 93.0586 661.13 c 0
 86.8174 645.585 78.5713 630.927 69.8916 616.6 c 0
 53.9287 590.251 37.0869 564.213 25.5967 535.629 c 0
 14.1055 507.045 8.15332 476.381 6.8916 445.6 c 0
 5.53809 412.601 8.30957 379.589 9.8916 346.6 c 0
 11.0859 321.68 11.9092 296.639 16.3701 272.093 c 0
 20.8311 247.546 29.8135 223.846 42.8916 202.6 c 0
 53.4092 185.512 66.1133 169.856 76.7695 152.854 c 0
 87.4268 135.851 95.2832 117.13 99.8916 97.5996 c 0
 104.328 78.7959 106.228 58.9697 115.396 41.9639 c 0
 119.981 33.4609 126.538 25.8594 134.925 21.0635 c 0
 143.311 16.2686 153.46 14.5107 162.892 16.5996 c 0
 171.278 18.458 178.911 23.2607 184.555 29.7363 c 0
 190.198 36.2119 193.901 44.2432 195.892 52.5996 c 0
 200.167 70.5537 197.036 89.5322 191.438 107.119 c 0
 185.838 124.705 177.669 141.365 168.892 157.6 c 0
 146.952 198.176 121.67 237.255 105.892 280.6 c 0
 89.8457 324.679 82.4453 371.695 81.8916 418.6 c 0
 81.3516 464.292 89.0508 511.022 111.892 550.6 c 0
 126.251 575.482 145.841 596.849 165.113 618.153 c 0
 184.387 639.457 203.43 661.844 213.892 688.6 c 0
 221.318 707.593 224.309 728.69 219.892 748.6 c 0
 217.878 757.675 214.302 766.444 209.011 774.087 c 0
 203.721 781.73 196.678 788.214 188.412 792.468 c 0
 180.147 796.722 170.683 798.675 161.427 797.826 c 0
 152.17 796.976 143.222 793.316 135.892 787.6 c 0
 124.611 778.804 117.555 765.526 113.565 751.788 c 0
 109.577 738.051 108.139 723.727 105.892 709.6 c 0
  Spiro
    105.891 709.6 o
    69.8913 616.6 o
    6.89134 445.6 o
    9.89134 346.6 o
    42.8913 202.6 o
    99.8913 97.6 o
    162.891 16.6 o
    195.891 52.6 o
    168.891 157.6 o
    105.891 280.6 o
    81.8913 418.6 o
    111.891 550.6 o
    213.891 688.6 o
    219.891 748.6 o
    135.891 787.6 o
    0 0 z
  EndSpiro
EndSplineSet
Validated: 41
EndChar

StartChar: parenright
Encoding: 41 41 47
Width: 427
VWidth: 0
InSpiro: 1
Flags: W
VStem: 3.51367 249
LayerCount: 2
Fore
SplineSet
111.514 586.6 m 0
 96.5449 603.952 83.8604 623.117 71.1807 642.206 c 0
 58.502 661.295 44.6494 679.562 30.5137 697.6 c 0
 23.2861 706.823 16.1543 716.227 10.9004 726.702 c 0
 5.64746 737.176 2.43359 748.932 3.51367 760.6 c 0
 4.43848 770.592 8.61328 780.315 15.5137 787.6 c 0
 22.0986 794.551 31.0361 799.173 40.4736 800.792 c 0
 49.9111 802.412 59.7432 801.096 68.6807 797.659 c 0
 86.5547 790.784 100.338 776.151 111.514 760.6 c 0
 131.141 733.29 146.386 703.112 162.514 673.6 c 0
 185.913 630.784 208.229 587.229 225.514 541.6 c 0
 241.158 500.299 251.914 456.761 252.514 412.6 c 0
 253.036 374.176 246.442 335.976 237.514 298.6 c 0
 228.466 260.722 216.62 223.494 201.514 187.6 c 0
 188.667 157.074 176.128 126.25 159.514 97.5996 c 0
 154.611 89.1445 149.02 81.0127 142.081 74.1289 c 0
 135.142 67.2451 126.781 61.709 117.514 58.5996 c 0
 104.987 54.3975 91.1406 54.7109 78.5137 58.5996 c 0
 69.7188 61.3086 61.4043 65.7246 54.5166 71.8301 c 0
 47.6309 77.9346 42.2627 85.8174 39.5137 94.5996 c 0
 35.7031 106.775 37.2354 120.228 42.2383 131.964 c 0
 47.2422 143.699 55.2734 153.861 63.5137 163.6 c 0
 77.8818 180.583 92.5049 197.63 102.671 217.416 c 0
 112.838 237.203 118.822 258.855 123.514 280.6 c 0
 128.031 301.533 131.823 322.645 137.562 343.277 c 0
 143.301 363.909 151.176 383.875 159.514 403.6 c 0
 165.369 417.45 171.296 431.345 175.043 445.907 c 0
 178.789 460.47 180.117 475.79 177.514 490.6 c 0
 174.1 510.02 163.899 527.677 151.362 542.895 c 0
 138.824 558.113 124.394 571.67 111.514 586.6 c 0
  Spiro
    111.513 586.6 o
    30.5134 697.6 o
    3.5134 760.6 o
    15.5134 787.6 o
    111.513 760.6 o
    162.513 673.6 o
    225.513 541.6 o
    252.513 412.6 o
    237.513 298.6 o
    201.513 187.6 o
    159.513 97.6 o
    117.513 58.6 o
    78.5134 58.6 o
    39.5134 94.6 o
    63.5134 163.6 o
    123.513 280.6 o
    159.513 403.6 o
    177.513 490.6 o
    0 0 z
  EndSpiro
EndSplineSet
Validated: 33
EndChar

StartChar: asterisk
Encoding: 42 42 48
Width: 224
VWidth: 0
InSpiro: 1
Flags: W
HStem: 624.951 152.25
VStem: 52.3379 61.7031<670.357 698.582> 68.3438 29.7559<727.741 775.901> 109.98 31.3623<629.03 660.212>
LayerCount: 2
Fore
SplineSet
20.4414 636.925 m 0x90
 19.8271 639.655 20.0205 642.544 20.8672 645.211 c 0
 21.7158 647.878 23.1973 650.318 25.0205 652.441 c 0
 28.6641 656.688 33.5625 659.614 38.1992 662.749 c 0
 42.835 665.884 47.373 669.493 50.0371 674.415 c 0
 51.3701 676.875 52.2031 679.62 52.3379 682.415 c 0xc0
 52.4736 685.21 51.8984 688.038 50.666 690.55 c 0
 49.4531 693.024 47.6162 695.176 45.4229 696.843 c 0
 43.2285 698.511 40.6943 699.698 38.0625 700.508 c 0
 32.7939 702.129 27.2012 702.236 21.7461 703.017 c 0
 19.0195 703.407 16.3027 703.98 13.7383 704.991 c 0
 11.1758 706.001 8.7666 707.463 6.84473 709.438 c 0
 4.9209 711.411 3.50977 713.904 2.94922 716.604 c 0
 2.39062 719.3 2.7041 722.177 3.86621 724.675 c 0
 4.93457 726.968 6.69531 728.919 8.83105 730.271 c 0
 10.9668 731.627 13.4531 732.387 15.9727 732.606 c 0
 21.0098 733.046 25.9805 731.359 30.627 729.366 c 0
 35.2744 727.373 39.8662 725.084 44.8408 724.171 c 0
 47.3262 723.715 49.8887 723.607 52.3877 723.993 c 0
 54.8857 724.379 57.3115 725.264 59.4414 726.625 c 0
 61.7285 728.087 63.6582 730.09 65.085 732.396 c 0
 66.5127 734.706 67.4375 737.305 67.96 739.968 c 0
 69.0049 745.294 68.4277 750.781 68.3438 756.208 c 0
 68.3008 758.922 68.3955 761.65 68.8984 764.316 c 0
 69.4023 766.983 70.3301 769.591 71.8213 771.858 c 0
 73.3135 774.125 75.3828 776.032 77.8311 777.201 c 0
 80.2803 778.369 83.0947 778.771 85.7676 778.3 c 0
 88.1797 777.874 90.4531 776.745 92.2959 775.132 c 0
 94.1396 773.519 95.5488 771.438 96.4932 769.179 c 0
 98.3867 764.66 98.4004 759.595 98.0996 754.705 c 0xa0
 97.7969 749.815 97.2676 744.872 98.1221 740.049 c 0
 98.9785 735.226 101.378 730.58 105.268 727.601 c 0
 109.12 724.646 114.174 723.526 119.014 723.913 c 0
 123.854 724.299 128.466 726.028 133.081 727.533 c 0
 137.697 729.038 142.555 730.293 147.364 729.637 c 0
 149.771 729.309 152.123 728.499 154.146 727.157 c 0
 156.17 725.816 157.847 723.941 158.893 721.75 c 0
 160.104 719.212 160.439 716.274 159.874 713.52 c 0
 159.309 710.766 157.863 708.222 155.902 706.206 c 0
 153.942 704.189 151.492 702.691 148.892 701.623 c 0
 146.29 700.554 143.537 699.898 140.775 699.373 c 0
 135.25 698.321 129.539 697.69 124.478 695.241 c 0
 121.945 694.016 119.61 692.345 117.773 690.216 c 0
 115.938 688.086 114.62 685.502 114.041 682.75 c 0xc0
 113.108 678.312 114.189 673.585 116.554 669.716 c 0
 118.917 665.847 122.416 662.816 126.002 660.041 c 0
 129.588 657.267 133.332 654.621 136.294 651.188 c 0
 139.255 647.755 141.362 643.409 141.343 638.875 c 0
 141.324 635.183 139.846 631.494 137.208 628.908 c 0
 134.572 626.323 130.859 624.91 127.167 624.951 c 0
 123.476 624.993 119.868 626.435 116.944 628.689 c 0
 114.021 630.944 111.757 633.966 109.98 637.203 c 0
 106.43 643.679 104.683 651.033 101.002 657.438 c 0
 99.1621 660.638 96.832 663.596 93.9121 665.856 c 0
 90.9922 668.116 87.4834 669.643 83.8164 670.075 c 0
 80.0684 670.518 76.207 669.806 72.8184 668.145 c 0
 69.4307 666.484 66.5332 663.914 64.2158 660.936 c 0
 59.5801 654.979 57.3281 647.564 53.9307 640.825 c 0
 52.2295 637.456 50.1895 634.216 47.501 631.567 c 0
 44.8125 628.919 41.4434 626.892 37.7441 626.14 c 0
 34.0459 625.388 30.0557 625.979 26.8369 627.95 c 0
 23.6182 629.921 21.2705 633.243 20.4414 636.925 c 0x90
  Spiro
    20.4417 636.925 o
    50.6667 690.55 o
    3.86668 724.675 o
    59.4417 726.625 o
    85.7667 778.3 o
    105.267 727.6 o
    158.892 721.75 o
    114.042 682.75 o
    141.342 638.875 o
    83.8167 670.075 o
    0 0 z
  EndSpiro
EndSplineSet
Validated: 1
EndChar

StartChar: plus
Encoding: 43 43 49
Width: 630
VWidth: 0
Flags: W
HStem: 413.207 80.3926<124.12 222.516 314.781 484.241>
VStem: 212.937 111.773<577.027 684.526> 217.27 90.9561<256.347 407.546 565.429 692.799> 226.754 81.4717<251.499 407.546>
LayerCount: 2
Fore
SplineSet
216.71 289.6 m 0xa0
 214.644 299.299 215.312 309.412 217.27 319.134 c 0xa0
 219.227 328.856 222.381 338.296 224.654 347.949 c 0
 226.927 357.602 228.25 367.635 226.754 377.439 c 0x90
 225.258 387.242 220.781 396.647 213.71 403.6 c 0
 207.923 409.29 200.57 413.266 192.786 415.562 c 0
 185.002 417.86 176.826 418.558 168.71 418.6 c 0
 153.602 418.679 138.476 416.727 123.414 417.923 c 0
 108.353 419.12 93.1094 423.682 81.71 433.6 c 0
 76.2168 438.38 71.707 444.329 68.8408 451.023 c 0
 65.9756 457.717 64.7842 465.142 65.584 472.38 c 0
 66.3838 479.617 69.1826 486.624 73.5996 492.414 c 0
 78.0156 498.204 84.0137 502.74 90.71 505.6 c 0
 100.694 509.863 112.001 510.322 122.694 508.452 c 0
 133.389 506.583 143.562 502.548 153.689 498.637 c 0
 163.816 494.726 174.102 490.935 184.857 489.467 c 0
 195.613 488 206.867 489.022 216.71 493.6 c 0
 227.447 498.594 236.105 507.817 240.555 518.792 c 0
 245.004 529.766 245.313 542.121 242.931 553.72 c 0
 238.163 576.92 223.574 596.932 216.71 619.6 c 0
 214.104 628.205 212.604 637.196 212.937 646.181 c 0
 213.271 655.165 215.467 664.118 219.686 672.058 c 0
 223.903 679.997 230.142 686.876 237.726 691.705 c 0
 245.31 696.534 254.198 699.282 263.184 699.599 c 0
 272.168 699.915 281.205 697.811 289.209 693.716 c 0
 297.212 689.621 304.169 683.57 309.579 676.39 c 0
 320.398 662.028 324.742 643.581 324.71 625.6 c 0
 324.68 608.399 320.864 591.461 317.162 574.664 c 0
 313.46 557.866 309.651 540.526 312.71 523.6 c 0
 314.078 516.031 316.969 508.657 321.71 502.6 c 0
 325.387 497.902 330.144 494.055 335.502 491.434 c 0
 340.862 488.812 346.783 487.414 352.74 487.072 c 0
 364.653 486.388 376.385 489.842 387.71 493.6 c 0
 396.368 496.473 404.998 499.511 413.915 501.435 c 0
 422.832 503.36 432.058 504.159 441.104 502.984 c 0
 450.149 501.808 458.978 498.628 466.458 493.407 c 0
 473.938 488.186 480.012 480.939 483.71 472.6 c 0
 487.621 463.78 488.84 453.795 487.214 444.285 c 0
 485.588 434.774 481.148 425.786 474.71 418.6 c 0
 467.775 410.859 458.564 405.247 448.597 402.306 c 0
 438.628 399.365 427.994 399.102 417.71 400.6 c 0
 401.724 402.929 386.631 409.463 370.756 412.462 c 0
 362.818 413.961 354.63 414.51 346.658 413.207 c 0
 338.687 411.904 330.984 408.688 324.71 403.6 c 0xc0
 315.229 395.911 309.546 384.097 308.226 371.962 c 0
 306.903 359.827 309.544 347.63 312.693 335.837 c 0
 315.842 324.043 319.418 312.211 319.842 300.012 c 0
 320.268 287.812 317.182 275.253 309.71 265.6 c 0
 304.545 258.926 297.471 253.784 289.596 250.749 c 0
 281.722 247.714 273.104 246.728 264.71 247.6 c 0
 253.395 248.775 242.404 253.334 233.771 260.744 c 0
 225.139 268.154 219.081 278.473 216.71 289.6 c 0xa0
  Spiro
    216.71 289.6 o
    213.71 403.6 o
    168.71 418.6 o
    81.7102 433.6 o
    90.7102 505.6 o
    216.71 493.6 o
    216.71 619.6 o
    324.71 625.6 o
    312.71 523.6 o
    321.71 502.6 o
    387.71 493.6 o
    483.71 472.6 o
    474.71 418.6 o
    417.71 400.6 o
    324.71 403.6 o
    309.71 265.6 o
    264.71 247.6 o
    0 0 z
  EndSpiro
EndSplineSet
Validated: 33
EndChar

StartChar: comma
Encoding: 44 44 50
Width: 250
VWidth: 0
InSpiro: 1
Flags: W
HStem: -166.4 336.422
LayerCount: 2
Fore
SplineSet
26.415 97.5996 m 0
 23.7354 109.749 22.5088 122.519 25.624 134.563 c 0
 28.7402 146.607 36.5938 157.464 47.415 163.6 c 0
 58.5361 169.906 71.8877 171.098 84.626 170.021 c 0
 97.3652 168.944 109.914 166.276 122.415 163.6 c 0
 131.705 161.611 141.046 159.428 149.634 155.365 c 0
 158.222 151.302 165.978 145 170.415 136.6 c 0
 173.758 130.276 175.117 122.97 174.559 115.839 c 0
 173.999 108.708 171.612 101.816 168.4 95.4248 c 0
 161.975 82.6436 152.701 71.4502 146.415 58.5996 c 0
 141.969 49.5098 138.974 39.7627 136.902 29.8574 c 0
 134.832 19.9521 133.497 9.90332 131.415 0 c 0
 128.639 -13.2061 124.304 -26.082 118.437 -38.2344 c 0
 112.569 -50.3867 105.456 -61.8887 98.415 -73.4004 c 0
 86.7256 -92.5117 76.0107 -112.296 62.6436 -130.274 c 0
 55.96 -139.264 48.375 -147.699 39.3086 -154.276 c 0
 30.2402 -160.853 19.5801 -165.493 8.41504 -166.4 c 0
 0.178711 -167.07 -8.26367 -165.662 -15.6895 -162.033 c 0
 -23.1143 -158.405 -29.4424 -152.552 -33.585 -145.4 c 0
 -37.7998 -138.122 -39.7148 -129.592 -39.375 -121.189 c 0
 -39.0342 -112.785 -36.5068 -104.554 -32.6611 -97.0742 c 0
 -24.9707 -82.1152 -12.4277 -70.3438 -0.584961 -58.4004 c 0
 9.40137 -48.3281 19.0664 -37.7793 26.3916 -25.6348 c 0
 33.7168 -13.4893 38.5908 0.161133 40.2705 14.2441 c 0
 41.9492 28.3281 40.4453 42.6436 37.3203 56.4785 c 0
 34.1963 70.3135 29.4707 83.75 26.415 97.5996 c 0
  Spiro
    26.4148 97.6 o
    47.4148 163.6 o
    122.415 163.6 o
    170.415 136.6 o
    146.415 58.6 o
    131.415 0 o
    98.4148 -73.4 o
    8.4148 -166.4 o
    -33.5852 -145.4 o
    -0.5852 -58.4 o
    0 0 z
  EndSpiro
EndSplineSet
Validated: 33
EndChar

StartChar: colon
Encoding: 58 58 51
Width: 322
VWidth: 0
InSpiro: 1
Flags: W
HStem: 52.5996 119.785<35.7704 120.181> 476.045 143.555<56.5877 138.101>
VStem: 20.8506 155.76<491.443 574.405>
LayerCount: 2
Fore
SplineSet
86.1982 478.6 m 0
 73.623 480.557 60.9229 482.85 49.3672 488.183 c 0
 43.5898 490.85 38.1533 494.334 33.6006 498.779 c 0
 29.0479 503.224 25.4189 508.637 23.1982 514.6 c 0
 20.7695 521.123 20.0576 528.239 20.8506 535.155 c 0
 21.6436 542.071 23.8848 548.766 26.8926 555.044 c 0
 32.9062 567.599 41.4619 578.761 50.1982 589.6 c 0
 55.7344 596.467 61.5557 603.185 68.4404 608.698 c 0
 75.3262 614.211 83.4629 618.38 92.1982 619.6 c 0
 98.6143 620.496 105.232 619.789 111.353 617.665 c 0
 117.473 615.542 123.067 612.055 127.986 607.839 c 0
 137.824 599.409 145.109 588.444 152.198 577.6 c 0
 159.616 566.253 167.121 554.815 172.065 542.192 c 0
 174.537 535.881 176.262 529.232 176.61 522.463 c 0
 176.96 515.694 175.889 508.821 173.198 502.6 c 0
 169.968 495.127 164.405 488.727 157.601 484.259 c 0
 150.794 479.791 142.861 477.221 134.807 476.045 c 0
 118.694 473.692 102.287 476.096 86.1982 478.6 c 0
  Spiro
    86.1984 478.6 o
    23.1984 514.6 o
    50.1984 589.6 o
    92.1984 619.6 o
    152.198 577.6 o
    173.198 502.6 o
    0 0 z
  EndSpiro
20.1982 109.6 m 0
 17.3066 119.628 15.3555 130.15 16.7393 140.495 c 0
 17.4316 145.667 19.0029 150.746 21.6035 155.27 c 0
 24.2031 159.794 27.8418 163.728 32.1982 166.6 c 0
 37.8477 170.324 44.6201 172.18 51.3838 172.385 c 0
 58.1465 172.591 64.8721 171.241 71.3672 169.345 c 0
 84.3584 165.555 96.9531 160.376 110.198 157.6 c 0
 121.02 155.332 132.271 154.306 142.343 149.746 c 0
 147.379 147.467 152.042 144.209 155.467 139.87 c 0
 158.891 135.53 160.976 130.124 161.198 124.6 c 0
 161.501 117.095 158.354 109.757 153.703 103.86 c 0
 149.052 97.9629 143.1 93.2461 137.198 88.5996 c 0
 128.263 81.5645 119.578 74.2109 110.561 67.2812 c 0
 101.542 60.3516 91.46 54.1846 80.1982 52.5996 c 0
 72.7119 51.5469 64.9443 52.5957 58.0059 55.5977 c 0
 51.0674 58.5996 45.0156 63.4521 40.0957 69.1914 c 0
 30.2539 80.6719 24.3887 95.0713 20.1982 109.6 c 0
  Spiro
    20.1984 109.6 o
    32.1984 166.6 o
    110.198 157.6 o
    161.198 124.6 o
    137.198 88.6 o
    80.1984 52.6 o
    0 0 z
  EndSpiro
EndSplineSet
Validated: 33
EndChar

StartChar: semicolon
Encoding: 59 59 52
Width: 354
VWidth: 0
InSpiro: 1
Flags: W
VStem: 24.5137 156.802<439.521 542.043> 24.5137 144<439.521 549.654>
LayerCount: 2
Fore
SplineSet
36.5137 67.5996 m 0x00
 38.6699 82.125 39.1025 96.8418 40.2441 111.482 c 0
 41.3857 126.121 43.3809 140.842 48.5137 154.6 c 0
 53.8545 168.914 62.7373 182.068 74.8623 191.363 c 0
 86.9863 200.657 102.239 205.925 117.514 205.6 c 0
 127.921 205.379 138.278 202.594 147.329 197.454 c 0
 156.382 192.314 164.081 184.822 169.478 175.921 c 0
 174.872 167.019 177.934 156.761 178.618 146.375 c 0
 179.303 135.988 177.634 125.531 174.514 115.6 c 0
 170.75 103.624 164.965 92.4023 159.353 81.1729 c 0
 153.74 69.9434 148.415 58.5312 144.514 46.5996 c 0
 139.914 32.5371 137.388 17.9004 134.049 3.48633 c 0
 130.709 -10.9277 125.975 -25.2617 117.514 -37.4004 c 0
 111.793 -45.6074 104.525 -52.6807 96.4287 -58.5566 c 0
 88.332 -64.4316 79.4678 -69.1602 70.5127 -73.6201 c 0
 52.6025 -82.5391 34.6973 -91.6357 18.5137 -103.4 c 0
 9.40723 -110.019 0.633789 -117.177 -9.19531 -122.664 c 0
 -19.0254 -128.15 -30.3105 -131.747 -41.4863 -130.4 c 0
 -50.9268 -129.262 -59.9297 -124.46 -65.874 -117.038 c 0
 -71.8174 -109.617 -74.5635 -99.8486 -73.9512 -90.3604 c 0
 -73.3398 -80.8711 -69.5508 -71.7676 -64.1484 -63.9424 c 0
 -58.7461 -56.1172 -51.8037 -49.4727 -44.4863 -43.4004 c 0
 -26.2568 -28.2695 -5.89453 -15.3203 9.1123 3.01074 c 0
 24.1191 21.3428 33.0322 44.166 36.5137 67.5996 c 0x00
  Spiro
    36.5134 67.6 o
    48.5134 154.6 o
    117.513 205.6 o
    174.513 115.6 o
    144.513 46.6 o
    117.513 -37.4 o
    18.5134 -103.4 o
    -41.4866 -130.4 o
    -44.4866 -43.4 o
    0 0 z
  EndSpiro
24.5137 487.6 m 0x80
 22.29 502.859 25.0234 518.865 32.6172 532.286 c 0
 40.21 545.706 52.4102 556.364 66.5137 562.6 c 0
 84.3574 570.49 105.141 571.355 123.688 565.303 c 0
 142.236 559.251 158.38 546.271 168.514 529.6 c 0x40
 176.067 517.172 180.359 502.839 181.315 488.327 c 0
 182.271 473.815 179.988 459.074 174.514 445.6 c 0
 168.939 431.883 159.859 419.399 147.669 410.994 c 0
 135.48 402.588 120.199 398.714 105.514 400.6 c 0
 94.8154 401.974 84.6006 406.217 75.5645 412.108 c 0
 66.5293 417.999 58.5693 425.442 51.5137 433.6 c 0
 38.1729 449.023 27.4531 467.42 24.5137 487.6 c 0x80
  Spiro
    24.5134 487.6 o
    66.5134 562.6 o
    168.513 529.6 o
    174.513 445.6 o
    105.513 400.6 o
    51.5134 433.6 o
    0 0 z
  EndSpiro
EndSplineSet
Validated: 33
EndChar

StartChar: underscore
Encoding: 95 95 53
Width: 1024
VWidth: 0
InSpiro: 1
HStem: 52.118 51.482<67.9333 572.433> 55.6 67.164<321.25 705>
LayerCount: 2
Fore
SplineSet
626.6 58.6 m 0x40
 579.897 65.6594 532.565 69.6265 485.6 64.6 c 0
 445.178 60.2739 405.017 53.4095 364.449 50.78 c 0
 323.882 48.1505 283.189 50.3305 242.6 52.6 c 0
 215.945 54.0904 189.192 54.3731 162.59 52.118 c 0x80
 149.29 50.9904 136.018 49.3504 122.675 48.9742 c 0
 109.332 48.5979 95.4975 49.5475 83.6 55.6 c 0x40
 77.0734 58.9202 71.2586 63.9073 67.768 70.3444 c 0
 64.2775 76.7815 63.3471 84.6326 65.6 91.6 c 0
 66.9009 95.6234 69.2007 99.3073 72.1738 102.314 c 0
 75.147 105.321 78.773 107.651 82.6705 109.291 c 0
 90.4657 112.571 99.1577 113.099 107.6 112.6 c 0
 131.754 111.171 155.47 105.397 179.6 103.6 c 0
 236.488 99.3625 293.738 99.0285 350.6 103.6 c 0x80
 385.145 106.377 419.441 111.592 453.868 115.581 c 0
 488.294 119.57 522.944 121.418 557.6 121.6 c 0
 578.696 121.711 599.795 121.886 620.873 122.764 c 0
 631.412 123.203 641.956 123.763 652.502 123.552 c 0
 663.048 123.341 673.743 122.354 683.6 118.6 c 0
 689.52 116.345 695.105 113.021 699.456 108.417 c 0
 703.807 103.812 706.828 97.8878 707.6 91.6 c 0
 708.207 86.6616 707.427 81.5682 705.42 77.0152 c 0
 703.414 72.4622 700.213 68.4713 696.343 65.3444 c 0
 688.603 59.0904 678.519 56.3971 668.6 55.6 c 0
 654.579 54.4732 640.508 56.4978 626.6 58.6 c 0x40
  Spiro
    626.6 58.6 o
    485.6 64.6 o
    242.6 52.6 o
    83.6 55.6 o
    65.6 91.6 o
    107.6 112.6 o
    179.6 103.6 o
    350.6 103.6 o
    557.6 121.6 o
    683.6 118.6 o
    707.6 91.6 o
    668.6 55.6 o
    0 0 z
  EndSpiro
EndSplineSet
Validated: 33
EndChar

StartChar: grave
Encoding: 96 96 54
Width: 402
VWidth: 0
InSpiro: 1
Flags: W
HStem: 655.6 225.931
VStem: 77.1221 194.105
LayerCount: 2
Fore
SplineSet
221.022 655.6 m 0
 212.455 658.381 204.771 663.519 198.288 669.771 c 0
 191.806 676.025 186.468 683.385 181.852 691.119 c 0
 172.618 706.587 166.079 723.488 158.022 739.6 c 0
 150.658 754.325 141.849 768.4 130.893 780.689 c 0
 119.937 792.979 106.791 803.087 95.0225 814.6 c 0
 87.3027 822.151 80.1943 830.823 77.1221 841.175 c 0
 75.5869 846.351 75.123 851.878 76.0801 857.192 c 0
 77.0361 862.505 79.4336 867.566 83.0225 871.6 c 0
 88.0596 877.261 95.3633 880.718 102.896 881.53 c 0
 110.431 882.342 118.093 880.667 125.022 877.6 c 0
 136.792 872.39 146.58 863.521 155.223 853.984 c 0
 163.865 844.445 171.496 834.042 179.022 823.6 c 0
 190.039 808.312 200.955 792.924 213.123 778.535 c 0
 225.29 764.146 238.905 751.031 251.022 736.6 c 0
 260.634 725.152 269.27 712.069 271.228 697.25 c 0
 272.206 689.84 271.406 682.14 268.466 675.268 c 0
 265.527 668.396 260.43 662.449 254.022 658.6 c 0
 249.14 655.667 243.55 653.949 237.871 653.498 c 0
 232.192 653.046 226.44 653.841 221.022 655.6 c 0
  Spiro
    221.022 655.6 o
    158.022 739.6 o
    95.0222 814.6 o
    83.0222 871.6 o
    125.022 877.6 o
    179.022 823.6 o
    251.022 736.6 o
    254.022 658.6 o
    0 0 z
  EndSpiro
EndSplineSet
Validated: 1
EndChar

StartChar: braceleft
Encoding: 123 123 55
Width: 483
VWidth: 0
InSpiro: 1
Flags: W
VStem: 161.955 90<153.712 292.96 489.478 694.942>
LayerCount: 2
Fore
SplineSet
263.955 775.6 m 0
 253.824 777.648 243.184 776.635 233.377 773.376 c 0
 223.57 770.117 214.559 764.598 206.955 757.6 c 0
 191.768 743.624 182.691 724.146 177.055 704.292 c 0
 171.418 684.438 168.396 663.95 164.955 643.6 c 0
 160.084 614.806 155.598 585.801 155.955 556.6 c 0
 156.184 537.76 158.045 518.784 155.207 500.158 c 0
 153.789 490.844 151.102 481.677 146.715 473.341 c 0
 142.326 465.004 136.23 457.584 128.955 451.6 c 0
 118.359 442.887 105.504 437.479 92.7754 432.364 c 0
 80.0488 427.249 67.0723 421.863 56.9541 412.6 c 0
 49.6484 405.913 44.0469 397.217 41.7871 387.575 c 0
 39.5264 377.933 40.7197 367.553 44.9541 358.6 c 0
 48.3438 351.432 53.5703 345.213 59.6914 340.173 c 0
 65.8145 335.132 72.7988 331.233 79.9824 327.877 c 0
 94.3516 321.167 109.65 316.234 122.955 307.6 c 0
 139.045 297.156 151.295 281.01 156.932 262.674 c 0
 162.566 244.337 162.229 224.781 161.955 205.6 c 0
 161.713 188.747 161.789 171.75 165.256 155.256 c 0
 168.723 138.762 175.666 122.95 185.955 109.6 c 0
 195.857 96.75 208.574 86.2334 222.412 77.7676 c 0
 236.252 69.3008 251.201 62.4736 266.955 58.5996 c 0
 275.012 56.6182 283.338 55.502 291.619 56.0254 c 0
 299.9 56.5488 308.164 58.7969 315.17 63.2422 c 0
 322.176 67.6885 327.807 74.3955 330.533 82.2324 c 0
 333.26 90.0703 332.967 98.8682 329.955 106.6 c 0
 327.535 112.811 323.467 118.298 318.623 122.878 c 0
 313.781 127.457 308.188 131.169 302.477 134.605 c 0
 291.053 141.477 279.002 147.809 269.955 157.6 c 0
 262.68 165.471 257.625 175.283 255.006 185.676 c 0
 252.387 196.068 252.021 206.883 251.955 217.6 c 0
 251.855 233.266 251.984 249.136 248.029 264.295 c 0
 244.074 279.454 235.947 293.438 224.955 304.6 c 0
 212.398 317.35 196.59 326.348 182.838 337.797 c 0
 175.961 343.521 169.609 349.983 164.797 357.526 c 0
 159.982 365.068 156.789 373.692 155.955 382.6 c 0
 154.738 395.586 158.721 408.734 165.699 419.754 c 0
 172.678 430.773 182.295 439.835 191.955 448.6 c 0
 207.131 462.37 222.488 476.524 232.48 494.414 c 0
 242.475 512.305 246.525 533.116 245.955 553.6 c 0
 245.219 579.984 238.094 606.305 241.52 632.476 c 0
 243.234 645.561 247.633 658.286 254.426 669.602 c 0
 261.217 680.917 270.342 690.601 278.955 700.6 c 0
 283.418 705.782 287.715 711.16 291.023 717.145 c 0
 294.334 723.129 296.602 729.77 296.955 736.6 c 0
 297.434 745.899 294.135 755.327 287.967 762.302 c 0
 281.799 769.278 273.082 773.755 263.955 775.6 c 0
  Spiro
    263.954 775.6 o
    206.954 757.6 o
    164.954 643.6 o
    155.954 556.6 o
    128.954 451.6 o
    56.9543 412.6 o
    44.9543 358.6 o
    122.954 307.6 o
    161.954 205.6 o
    185.954 109.6 o
    266.954 58.6 o
    329.954 106.6 o
    269.954 157.6 o
    251.954 217.6 o
    224.954 304.6 o
    155.954 382.6 o
    191.954 448.6 o
    245.954 553.6 o
    278.954 700.6 o
    296.954 736.6 o
    0 0 z
  EndSpiro
EndSplineSet
Validated: 41
EndChar

StartChar: bar
Encoding: 124 124 56
Width: 450
VWidth: 0
InSpiro: 1
Flags: W
VStem: 109.269 72.4375<139.065 296.936> 137.057 74.2119<573.841 763.063>
LayerCount: 2
Fore
SplineSet
115.269 91.5996 m 0x80
 107.143 115.399 106.549 141.061 106.665 166.208 c 0
 106.781 191.356 108.017 216.484 109.269 241.6 c 0
 112.21 300.588 114.206 359.745 109.269 418.6 c 0x80
 106.906 446.768 103.843 474.959 104.452 503.22 c 0
 105.062 531.481 110.135 559.528 118.269 586.6 c 0
 125.064 609.219 133.496 631.494 137.057 654.843 c 0
 140.618 678.191 138.106 702.32 130.269 724.6 c 0
 122.935 745.449 111.408 765.134 108.498 787.043 c 0
 107.043 797.998 108.026 809.463 112.715 819.47 c 0
 117.402 829.477 125.915 837.737 136.269 841.6 c 0
 145.776 845.146 156.542 844.926 166.083 841.467 c 0
 175.623 838.007 183.896 831.499 190.269 823.6 c 0
 199.512 812.141 204.907 797.967 207.876 783.547 c 0
 210.846 769.128 211.498 754.32 211.269 739.6 c 0x40
 210.381 682.523 203.229 625.46 208.269 568.6 c 0
 211.789 528.884 218.293 489.378 219.076 449.514 c 0
 219.858 409.65 213.286 369.92 202.269 331.6 c 0
 193.745 301.951 183.663 272.368 181.706 241.58 c 0
 180.727 226.186 181.829 210.66 185.047 195.574 c 0
 188.264 180.489 193.622 165.954 199.269 151.6 c 0
 206.242 133.877 213.733 115.751 213.813 96.7051 c 0
 213.854 87.1826 211.914 77.5596 207.428 69.1602 c 0
 202.94 60.7598 195.861 53.7051 187.269 49.5996 c 0
 180.147 46.1973 172.078 44.8438 164.225 45.6328 c 0
 156.372 46.4219 148.781 49.3184 142.21 53.6904 c 0
 129.068 62.4355 120.369 76.6621 115.269 91.5996 c 0x80
  Spiro
    115.269 91.6 o
    109.269 241.6 o
    109.269 418.6 o
    118.269 586.6 o
    130.269 724.6 o
    136.269 841.6 o
    190.269 823.6 o
    211.269 739.6 o
    208.269 568.6 o
    202.269 331.6 o
    199.269 151.6 o
    187.269 49.6 o
    0 0 z
  EndSpiro
EndSplineSet
Validated: 33
EndChar

StartChar: logicalnot
Encoding: 172 172 57
Width: 777
VWidth: 0
InSpiro: 1
LayerCount: 2
Fore
SplineSet
321.267 409.6 m 0
 294.017 416.777 265.425 417.245 237.28 415.854 c 0
 209.136 414.463 181.149 410.697 153.403 405.774 c 0
 125.657 400.851 98.1475 394.2 70.085 391.648 c 0
 56.0537 390.372 41.79 390.266 27.9971 393.14 c 0
 14.2041 396.014 0.680664 402.117 -8.7334 412.6 c 0
 -13.416 417.815 -16.9844 424.09 -18.667 430.894 c 0
 -20.3506 437.698 -20.082 444.996 -17.7334 451.6 c 0
 -15.9209 456.696 -12.9023 461.346 -9.06055 465.154 c 0
 -5.21875 468.962 -0.577148 471.927 4.40332 474.036 c 0
 14.3652 478.254 25.458 479.04 36.2666 478.6 c 0
 53.5459 477.896 70.6553 474.724 87.9365 474.062 c 0
 105.218 473.401 122.56 475.057 139.467 478.697 c 0
 173.279 485.976 205.803 499.677 240.267 502.6 c 0
 263.773 504.594 287.392 501.797 310.768 498.615 c 0
 334.144 495.434 357.686 492.891 381.267 493.6 c 0
 398.474 494.118 415.617 496.13 432.829 496.402 c 0
 450.041 496.675 467.631 494.8 483.267 487.6 c 0
 493.619 482.833 502.939 475.786 510.16 466.967 c 0
 517.379 458.149 522.446 447.642 525.267 436.6 c 0
 530.668 415.451 527.865 393.115 523.688 371.691 c 0
 519.51 350.268 514.923 328.925 510.267 307.6 c 0
 507.355 294.27 504.02 280.853 497.591 268.818 c 0
 491.162 256.784 481.09 246.262 468.267 241.6 c 0
 457.685 237.753 445.629 238.18 435.338 242.748 c 0
 425.047 247.317 416.745 255.763 411.267 265.6 c 0
 403.975 278.696 401.49 293.856 399.511 308.714 c 0
 397.53 323.572 395.666 338.617 390.267 352.6 c 0
 384.672 367.091 375.24 380.097 363.049 389.723 c 0
 350.857 399.348 336.288 405.644 321.267 409.6 c 0
  Spiro
    321.267 409.6 o
    -8.73333 412.6 o
    -17.7333 451.6 o
    36.2667 478.6 o
    240.267 502.6 o
    381.267 493.6 o
    483.267 487.6 o
    525.267 436.6 o
    510.267 307.6 o
    468.267 241.6 o
    411.267 265.6 o
    390.267 352.6 o
    0 0 z
  EndSpiro
EndSplineSet
Validated: 33
EndChar

StartChar: registered
Encoding: 174 174 58
Width: 938
VWidth: 0
InSpiro: 1
HStem: 102.039 46.2344<181.665 466.35> 104.635 51.9004<173.131 651.795> 589.9 57.1621<348.481 445.46> 693.699 46.7109<251.493 586.735> 708.715 31.8652<310.469 565.793>
VStem: 254.872 68.3203<452.361 563.762> 486.932 124.237<466.869 547.673> 716.781 106.396<225.741 516.473>
LayerCount: 2
Fore
SplineSet
330.127 470.529 m 0x27
 336.558 458.352 347.587 448.941 360.111 443.217 c 0
 372.638 437.492 386.442 434.992 400.191 434.199 c 0
 415.539 433.316 431.197 434.447 445.711 439.516 c 0
 452.967 442.051 459.888 445.635 465.914 450.404 c 0
 471.939 455.176 477.038 461.145 480.638 467.936 c 0
 484.874 475.93 486.974 485.008 486.932 494.055 c 0
 486.89 503.102 484.768 512.074 481.301 520.43 c 0
 474.367 537.145 462.678 551.553 449.497 563.949 c 0
 441.025 571.918 431.663 579.08 421.127 584.002 c 0
 410.592 588.924 398.753 591.365 387.218 589.9 c 0
 373.488 588.156 360.808 580.85 351.283 570.809 c 0
 341.762 560.768 334.97 548.369 330.127 535.404 c 0
 326.228 524.965 323.574 513.984 323.192 502.846 c 0
 322.812 491.709 324.924 480.385 330.127 470.529 c 0x27
  Spiro
    330.127 470.53 o
    400.192 434.2 o
    480.637 467.935 o
    449.497 563.95 o
    387.217 589.9 o
    330.127 535.405 o
    0 0 z
  EndSpiro
254.872 226.6 m 0
 242.021 234.248 233.591 247.99 229.901 262.482 c 0
 226.214 276.975 226.776 292.244 228.922 307.045 c 0
 233.135 336.111 242.242 364.264 247.269 393.201 c 0
 252.295 422.139 253.505 451.57 254.872 480.91 c 0
 255.852 501.934 257.347 523.109 263.01 543.379 c 0
 268.672 563.65 278.902 582.816 293.797 597.686 c 0
 305.463 609.332 319.682 618.234 334.805 624.795 c 0
 349.928 631.354 365.904 635.768 382.026 639.205 c 0
 404.4 643.975 427.207 647.121 450.084 647.062 c 0
 472.961 647.006 495.982 643.127 516.968 634.016 c 0
 544.347 622.125 568.076 602.578 587.031 579.52 c 0
 598.097 566.061 607.488 550.744 611.169 533.713 c 0
 614.849 516.684 611.835 498.281 602.603 483.506 c 0
 594.132 469.949 581.316 459.797 568.867 449.77 c 0
 558.603 441.504 548.469 432.896 540.375 422.496 c 0
 532.281 412.096 526.338 399.93 523.854 386.986 c 0
 521.37 374.045 522.383 360.535 526.1 347.893 c 0
 529.815 335.248 536.136 323.535 542.917 312.234 c 0
 550.595 299.441 558.94 286.822 563.524 272.623 c 0
 565.817 265.523 567.122 258.062 566.85 250.607 c 0
 566.576 243.152 564.693 235.723 561.082 229.195 c 0
 557.531 222.779 552.316 217.285 546.056 213.473 c 0
 539.793 209.658 532.524 207.547 525.197 207.281 c 0
 517.871 207.018 510.516 208.58 503.812 211.549 c 0
 497.107 214.518 491.056 218.865 485.826 224.006 c 0
 472.365 237.24 464.687 255.119 457.453 272.557 c 0
 450.22 289.994 442.709 307.549 431.332 322.615 c 0
 422.712 334.031 412.124 343.941 400.234 351.896 c 0
 388.347 359.852 375.201 366.094 361.268 369.324 c 0
 349.916 371.957 337.804 372.408 326.762 368.686 c 0
 321.24 366.826 316.056 363.92 311.706 360.045 c 0
 307.356 356.168 303.873 351.326 301.582 345.971 c 0
 298.684 339.191 297.738 331.662 298.316 324.312 c 0
 298.896 316.963 300.931 309.801 303.387 302.85 c 0
 305.842 295.896 308.709 289.088 310.921 282.055 c 0
 313.133 275.021 314.668 267.707 314.558 260.336 c 0
 314.451 253.334 312.82 246.314 309.466 240.17 c 0
 306.11 234.023 301.041 228.812 294.94 225.375 c 0
 288.842 221.938 281.764 220.293 274.768 220.57 c 0
 267.771 220.848 260.89 223.02 254.872 226.6 c 0
  Spiro
    254.872 226.6 o
    228.922 307.045 o
    254.872 480.91 o
    293.797 597.685 o
    382.027 639.205 o
    516.967 634.015 o
    587.032 579.52 o
    602.602 483.505 o
    568.867 449.77 o
    542.917 312.235 o
    561.082 229.195 o
    485.827 224.005 o
    431.332 322.615 o
    361.267 369.325 o
    301.582 345.97 o
    314.557 260.335 o
    0 0 z
  EndSpiro
563.678 156.535 m 0x67
 591.177 159.051 618.906 163.443 644.122 174.699 c 0
 656.981 180.441 669.069 188.043 679.342 197.678 c 0
 689.611 207.312 697.967 218.975 703.808 231.789 c 0
 715.878 258.275 716.854 288.318 716.781 317.426 c 0
 716.696 351.227 716.026 385.121 711.593 418.631 c 0
 706.982 453.455 699.441 487.82 693.428 522.43 c 0
 691.102 535.812 688.594 549.221 684.242 562.086 c 0
 679.89 574.953 673.474 587.164 664.882 597.686 c 0
 655.572 609.084 643.965 618.338 632.479 627.541 c 0
 620.995 636.744 609.846 646.424 600.007 657.369 c 0
 589.764 668.766 580.67 681.334 568.867 691.105 c 0
 561.013 697.607 551.953 702.703 542.19 705.648 c 0
 532.43 708.596 522.098 709.412 511.925 708.715 c 0x6f
 491.579 707.32 472.071 700.381 452.093 696.295 c 0
 428.692 691.51 404.585 691.48 380.782 693.453 c 0
 356.981 695.428 332.886 697.859 309.366 693.699 c 0
 280.183 688.539 253.76 673.541 228.922 657.369 c 0
 204.541 641.496 180.348 625.082 158.856 605.471 c 0
 122.647 572.426 98.0791 526.877 91.3877 478.314 c 0
 85.8965 438.473 91.2217 397.756 101.768 358.945 c 0
 113.963 314.061 128.812 269.865 145.882 226.6 c 0
 151.926 211.283 159.033 196.205 169.177 183.234 c 0
 179.318 170.262 192.738 159.707 208.162 153.939 c 0
 221.297 149.029 235.542 147.598 249.548 148.273 c 0xb7
 263.554 148.949 277.389 151.529 291.201 153.939 c 0
 314.734 158.047 338.527 161.004 362.417 160.926 c 0
 386.305 160.85 410.109 158.381 433.928 156.535 c 0
 477.1 153.189 520.556 152.59 563.678 156.535 c 0x67
  Spiro
    563.677 156.535 o
    644.122 174.7 o
    703.807 231.79 o
    716.782 317.425 o
    711.592 418.63 o
    693.427 522.43 o
    664.882 597.685 o
    600.007 657.37 o
    568.867 691.105 o
    452.092 696.295 o
    309.367 693.7 o
    228.922 657.37 o
    158.857 605.47 o
    91.3867 478.315 o
    101.767 358.945 o
    145.882 226.6 o
    208.162 153.94 o
    291.202 153.94 o
    433.927 156.535 o
    0 0 z
  EndSpiro
109.553 605.471 m 0
 130.934 631.621 152.373 657.732 174.428 683.32 c 0
 194.282 706.357 216.466 728.602 244.491 740.41 c 0xb7
 262.681 748.074 282.598 751.068 302.335 750.955 c 0
 322.07 750.842 341.677 748.004 361.268 745.6 c 0
 394.389 741.533 427.78 739.938 461.146 740.58 c 0
 494.509 741.223 528.074 742.721 561.082 737.814 c 0
 611.439 730.33 658.48 706.857 698.617 675.535 c 0
 737.201 645.422 770.927 608.109 792.037 563.949 c 0
 814.296 517.391 821.354 465.016 823.178 413.439 c 0
 824.638 372.105 823.611 330.545 817.277 289.672 c 0
 810.943 248.799 798.283 208.088 773.872 174.699 c 0
 755.449 149.504 730.175 129.248 701.212 117.609 c 0
 660.537 101.266 615.235 102.289 571.462 104.635 c 0x6f
 512.69 107.785 453.819 109.332 395.002 107.23 c 0
 359.518 105.961 324.072 103.766 288.606 102.039 c 0xa7
 256.35 100.471 223.734 99.4316 192.019 105.518 c 0
 160.302 111.604 129.832 125.951 106.957 148.75 c 0
 79.5469 176.068 64.1621 213.066 52.4619 249.955 c 0
 43.2686 278.939 35.5137 308.406 29.8428 338.281 c 0
 24.1729 368.156 21.1357 398.729 23.917 429.01 c 0
 26.958 462.102 37.2305 494.365 52.7354 523.758 c 0
 68.2412 553.15 88.5176 579.742 109.553 605.471 c 0
  Spiro
    109.552 605.47 o
    174.427 683.32 o
    244.492 740.41 o
    361.267 745.6 o
    561.082 737.815 o
    698.617 675.535 o
    792.037 563.95 o
    823.177 413.44 o
    773.872 174.7 o
    701.212 117.61 o
    571.462 104.635 o
    395.002 107.23 o
    288.607 102.04 o
    106.957 148.75 o
    52.4617 249.955 o
    23.9167 429.01 o
    0 0 z
  EndSpiro
EndSplineSet
Validated: 33
EndChar

StartChar: degree
Encoding: 176 176 59
Width: 447
VWidth: 0
InSpiro: 1
Flags: W
HStem: 584.232 71.3672<88.3461 170.732>
LayerCount: 2
Fore
SplineSet
85.6006 679.6 m 0
 97.2637 671.988 109.576 665.27 122.63 660.415 c 0
 135.685 655.56 149.932 652.929 163.601 655.6 c 0
 171.739 657.191 179.532 660.668 185.995 665.866 c 0
 192.457 671.064 197.543 677.95 200.641 685.643 c 0
 203.736 693.336 204.847 701.792 204.06 710.048 c 0
 203.271 718.303 200.616 726.344 196.601 733.6 c 0
 186.614 751.644 168.752 764.453 149.4 771.581 c 0
 130.048 778.708 108.5 781.013 88.6006 775.6 c 0
 77.7744 772.655 67.4619 767.097 60.0947 758.637 c 0
 52.7266 750.177 48.7188 738.784 49.6006 727.6 c 0
 50.415 717.261 55.2139 707.506 61.8857 699.566 c 0
 68.5566 691.626 76.915 685.268 85.6006 679.6 c 0
  Spiro
    85.6 679.6 o
    163.6 655.6 o
    196.6 733.6 o
    88.6 775.6 o
    49.6 727.6 o
    0 0 z
  EndSpiro
130.601 589.6 m 0
 120.184 586.025 109.193 583.902 98.1855 584.232 c 0
 87.1768 584.562 76.2666 587.324 66.3594 592.134 c 0
 46.543 601.753 31.3164 618.947 19.6006 637.6 c 0
 10.0283 652.84 2.3291 669.273 -3.12793 686.422 c 0
 -8.58496 703.572 -11.6182 721.644 -10.3994 739.6 c 0
 -9.3457 755.145 -5.01074 770.518 2.70801 784.051 c 0
 10.4287 797.584 21.4932 809.177 34.6006 817.6 c 0
 53.4014 829.682 76.083 835.032 98.4297 834.718 c 0
 120.776 834.404 142.81 828.797 163.601 820.6 c 0
 194.229 808.525 223.407 791.929 247.601 769.6 c 0
 259.975 758.179 270.826 744.689 276.875 728.974 c 0
 282.925 713.259 283.579 695.342 277.601 679.6 c 0
 272.85 667.09 264.195 656.279 253.786 647.868 c 0
 243.377 639.457 231.349 633.287 219.115 627.862 c 0
 194.649 617.01 170.066 606.451 145.601 595.6 c 0
 140.677 593.416 135.695 591.348 130.601 589.6 c 0
  Spiro
    130.6 589.6 o
    19.6 637.6 o
    -10.4 739.6 o
    34.6 817.6 o
    163.6 820.6 o
    247.6 769.6 o
    277.6 679.6 o
    145.6 595.6 o
    0 0 z
  EndSpiro
EndSplineSet
Validated: 33
EndChar

StartChar: uni00B2
Encoding: 178 178 60
Width: 469
VWidth: 0
InSpiro: 1
Flags: W
HStem: 724.6 80.7334<31.2953 147.212>
VStem: 19.7041 270.406
LayerCount: 2
Fore
SplineSet
30.2666 784.6 m 0
 35.4814 794.586 45.1104 801.936 55.8516 805.333 c 0
 66.5928 808.731 78.2324 808.415 89.2734 806.175 c 0
 111.354 801.695 131.618 790.845 153.267 784.6 c 0
 172.088 779.17 191.68 777.149 211.021 774.037 c 0
 220.69 772.482 230.337 770.471 239.494 766.996 c 0
 248.651 763.52 257.323 758.508 264.267 751.6 c 0
 273.919 741.995 279.856 728.491 279.327 714.883 c 0
 278.799 701.276 271.778 688.257 261.267 679.6 c 0
 252.598 672.46 241.878 668.175 230.938 665.636 c 0
 219.998 663.097 208.759 662.17 197.657 660.465 c 0
 186.558 658.761 175.402 656.165 165.638 650.617 c 0
 155.872 645.07 147.645 636.31 144.267 625.6 c 0
 141.286 616.153 142.352 605.432 147.474 596.954 c 0
 152.597 588.475 161.562 582.587 171.267 580.6 c 0
 180.263 578.758 189.666 580.082 198.413 582.875 c 0
 207.161 585.668 215.392 589.841 223.854 593.405 c 0
 232.317 596.968 241.2 599.913 250.376 600.26 c 0
 259.553 600.608 268.955 598.155 276.267 592.6 c 0
 283.74 586.921 288.714 578.169 290.11 568.887 c 0
 291.508 559.605 289.504 549.975 285.267 541.6 c 0
 278.422 528.074 266.043 517.696 251.971 512.062 c 0
 237.897 506.427 222.137 505.656 207.267 508.6 c 0
 192.322 511.558 178.346 518.008 164.226 523.729 c 0
 150.106 529.451 135.423 534.055 120.267 535.6 c 0
 103.612 537.298 86.7529 535.302 70.0908 536.907 c 0
 61.7588 537.709 53.4482 539.564 45.9434 543.271 c 0
 38.4385 546.979 31.833 552.586 27.2666 559.6 c 0
 21.5771 568.337 19.2373 579.008 19.7041 589.423 c 0
 20.1709 599.838 23.1611 610.016 27.2666 619.6 c 0
 33.5391 634.246 42.4062 647.961 54.2666 658.6 c 0
 66.4814 669.558 82.0244 676.488 98.1846 679.347 c 0
 114.344 682.207 130.92 681.151 147.267 682.6 c 0
 154.972 683.283 162.686 684.625 169.858 687.52 c 0
 177.031 690.415 183.655 694.957 188.26 701.174 c 0
 192.862 707.39 195.281 715.295 194.433 722.983 c 0
 193.583 730.672 189.42 737.913 183.267 742.6 c 0
 179.481 745.482 175.013 747.427 170.358 748.414 c 0
 165.704 749.401 160.876 749.446 156.16 748.814 c 0
 146.729 747.55 137.863 743.678 129.267 739.6 c 0
 118.861 734.665 108.513 729.433 97.4277 726.311 c 0
 86.3428 723.19 74.5225 722.165 63.2666 724.6 c 0
 50.3076 727.403 38.1641 735.106 31.4463 746.537 c 0
 28.0869 752.253 26.123 758.797 25.8984 765.423 c 0
 25.6729 772.048 27.1973 778.724 30.2666 784.6 c 0
  Spiro
    30.2667 784.6 o
    153.267 784.6 o
    264.267 751.6 o
    261.267 679.6 o
    144.267 625.6 o
    171.267 580.6 o
    276.267 592.6 o
    285.267 541.6 o
    207.267 508.6 o
    120.267 535.6 o
    27.2667 559.6 o
    27.2667 619.6 o
    54.2667 658.6 o
    147.267 682.6 o
    183.267 742.6 o
    129.267 739.6 o
    63.2667 724.6 o
    0 0 z
  EndSpiro
EndSplineSet
Validated: 33
EndChar

StartChar: uni00B3
Encoding: 179 179 61
Width: 458
VWidth: 0
InSpiro: 1
Flags: W
HStem: 511.6 102<12.9457 70.9201> 670.6 60<18.3421 133.081>
VStem: 0.933594 268.872
LayerCount: 2
Fore
SplineSet
39.9336 802.6 m 0
 48.7139 809.373 60.1748 811.952 71.2617 811.747 c 0
 82.3477 811.542 93.2412 808.767 103.748 805.223 c 0
 124.762 798.136 144.951 788.779 165.934 781.6 c 0
 182.309 775.998 199.04 771.315 214.894 764.374 c 0
 230.748 757.433 245.762 747.602 255.934 733.6 c 0
 264.912 721.241 269.712 705.985 269.806 690.71 c 0
 269.901 675.434 265.551 660.368 258.934 646.6 c 0
 247.113 622.005 229.105 600.958 210.934 580.6 c 0
 198.488 566.657 185.618 553.031 171.413 540.886 c 0
 157.208 528.74 141.418 518.204 123.934 511.6 c 0
 98.0674 501.83 68.418 500.871 42.9336 511.6 c 0
 31.3633 516.471 20.709 523.854 12.9434 533.717 c 0
 5.17773 543.582 0.50293 556.053 0.933594 568.6 c 0
 1.30176 579.294 5.4502 589.834 12.5527 597.838 c 0
 19.6553 605.842 29.5195 611.137 39.9336 613.6 c 0
 50.1973 616.027 60.8779 615.829 71.4141 615.385 c 0
 81.9512 614.94 92.6318 614.345 102.934 616.6 c 0
 107.918 617.691 112.779 619.458 117.146 622.096 c 0
 121.513 624.734 125.372 628.257 128.194 632.508 c 0
 131.015 636.759 132.77 641.732 133.1 646.823 c 0
 133.429 651.915 132.321 657.091 129.934 661.6 c 0
 126.278 668.508 119.671 673.639 112.271 676.157 c 0
 104.873 678.674 96.8262 678.721 89.0889 677.611 c 0
 81.3516 676.501 73.8203 674.302 66.1895 672.612 c 0
 58.5576 670.923 50.7051 669.766 42.9336 670.6 c 0
 35.5 671.398 28.1738 674.111 22.4844 678.96 c 0
 16.793 683.81 12.8936 690.79 12.0557 698.219 c 0
 11.2188 705.649 13.4844 713.357 18.123 719.221 c 0
 22.7607 725.085 29.624 729.028 36.9336 730.6 c 0
 44.6318 732.255 52.7139 731.374 60.2578 729.118 c 0
 67.8018 726.862 74.875 723.294 81.9082 719.752 c 0
 88.9404 716.211 96.0361 712.673 103.608 710.514 c 0
 111.18 708.354 119.307 707.644 126.934 709.6 c 0
 131.945 710.885 136.683 713.324 140.488 716.829 c 0
 144.292 720.333 147.129 724.903 148.457 729.902 c 0
 149.786 734.902 149.587 740.296 147.886 745.182 c 0
 146.185 750.067 143.002 754.405 138.934 757.6 c 0
 134.838 760.816 129.885 762.872 124.759 763.788 c 0
 119.632 764.704 114.347 764.507 109.216 763.616 c 0
 98.9551 761.835 89.3945 757.349 79.5176 754.044 c 0
 69.6416 750.739 58.8877 748.717 48.8506 751.499 c 0
 43.832 752.89 39.1172 755.47 35.4111 759.129 c 0
 31.7051 762.787 29.0527 767.514 27.9336 772.6 c 0
 26.7109 778.154 27.334 784.072 29.5273 789.32 c 0
 31.7207 794.567 35.4307 799.126 39.9336 802.6 c 0
  Spiro
    39.9333 802.6 o
    165.933 781.6 o
    255.933 733.6 o
    258.933 646.6 o
    210.933 580.6 o
    123.933 511.6 o
    42.9333 511.6 o
    0.933336 568.6 o
    39.9333 613.6 o
    102.933 616.6 o
    129.933 661.6 o
    42.9333 670.6 o
    36.9333 730.6 o
    126.933 709.6 o
    138.933 757.6 o
    27.9333 772.6 o
    0 0 z
  EndSpiro
EndSplineSet
Validated: 33
EndChar

StartChar: uni00B5
Encoding: 181 181 62
Width: 662
VWidth: 0
InSpiro: 1
Flags: W
HStem: -17.7422 70.3418<216.298 307.268>
LayerCount: 2
Fore
SplineSet
47.5996 331.6 m 0
 41.9707 319.126 40.0566 305.268 39.6748 291.588 c 0
 39.293 277.908 40.4004 264.233 41.5996 250.6 c 0
 45.3789 207.656 47.1494 164.352 41.5996 121.6 c 0
 36.2793 80.6123 27.0254 40.2432 17.5996 0 c 0
 6.7373 -46.3818 -6.01172 -92.4551 -24.4004 -136.4 c 0
 -31.5791 -153.557 -39.4541 -170.419 -46.4209 -187.663 c 0
 -53.3867 -204.907 -59.5879 -222.82 -60.4004 -241.4 c 0
 -61.0498 -256.267 -57.6729 -271.761 -48.4004 -283.4 c 0
 -43.5107 -289.537 -37.0928 -294.463 -29.8525 -297.486 c 0
 -22.6133 -300.509 -14.5986 -301.616 -6.7959 -300.789 c 0
 1.00586 -299.963 8.56738 -297.232 15.2539 -293.127 c 0
 21.9414 -289.022 27.7578 -283.574 32.5996 -277.4 c 0
 40.4541 -267.386 45.7363 -255.567 49.6074 -243.443 c 0
 53.4775 -231.319 56.0264 -218.82 58.6367 -206.364 c 0
 63.8584 -181.451 70.4473 -156.741 80.5996 -133.4 c 0
 88.3721 -115.532 97.5537 -98.2373 103.876 -79.8076 c 0
 110.198 -61.377 112.6 -41.8594 113.6 -22.4004 c 0
 114.178 -11.1445 114.677 0.260742 117.981 11.0361 c 0
 119.633 16.4238 122.007 21.6172 125.282 26.2031 c 0
 128.556 30.7891 132.741 34.7451 137.6 37.5996 c 0
 144.776 41.8154 153.361 43.4844 161.629 42.5342 c 0
 169.897 41.584 177.741 38.1387 184.64 33.4834 c 0
 198.438 24.1729 208.703 10.5225 221.6 0 c 0
 232.706 -9.06152 245.99 -15.666 260.172 -17.7422 c 0
 274.354 -19.8184 288.857 -17.4697 302.6 -13.4004 c 0
 316.87 -9.17383 330.701 -3.39258 345.259 -0.301758 c 0
 359.818 2.78809 374.949 2.61719 389.6 0 c 0
 399.177 -1.71094 408.635 -4.2207 418.326 -5.07617 c 0
 428.017 -5.93164 438.158 -4.83496 446.6 0 c 0
 454.182 4.34277 460.012 11.6494 462.517 20.0195 c 0
 465.023 28.3896 464.262 37.5303 461.35 45.7676 c 0
 458.439 54.0059 453.534 61.3945 448.163 68.2861 c 0
 442.793 75.1787 436.951 81.6924 431.6 88.5996 c 0
 421.755 101.308 413.979 115.671 409.441 131.092 c 0
 404.903 146.514 403.141 162.599 401.6 178.6 c 0
 398.031 215.661 397.854 253.294 389.6 289.6 c 0
 388.093 296.226 386.061 302.766 383.023 308.845 c 0
 379.985 314.923 375.893 320.54 370.638 324.847 c 0
 365.382 329.155 358.941 332.086 352.185 332.824 c 0
 345.43 333.562 338.453 332.052 332.6 328.6 c 0
 324.747 323.969 319.198 316.054 316.112 307.476 c 0
 313.027 298.897 312.104 289.703 311.6 280.6 c 0
 310.689 264.104 310.326 247.581 309.198 231.099 c 0
 308.071 214.617 307.089 198.052 308.6 181.6 c 0
 310.037 165.958 313.814 150.642 316.419 135.151 c 0
 319.024 119.661 319.929 103.376 314.6 88.5996 c 0
 310.491 77.2061 302.651 67.1279 292.381 60.707 c 0
 282.11 54.2861 269.671 51.5938 257.6 52.5996 c 0
 240.12 54.0566 223.82 62.9844 211.204 75.1719 c 0
 198.589 87.3594 189.315 102.625 181.863 118.504 c 0
 166.96 150.263 156.94 184.076 146.6 217.6 c 0
 138.484 243.915 133.812 271.151 131.6 298.6 c 0
 130.739 309.284 129.735 320.077 126.314 330.236 c 0
 122.892 340.394 116.675 349.896 107.6 355.6 c 0
 102.398 358.869 96.377 360.833 90.2441 361.206 c 0
 84.1123 361.58 77.9082 360.372 72.3008 357.861 c 0
 61.0869 352.837 52.6543 342.8 47.5996 331.6 c 0
  Spiro
    47.6 331.6 o
    41.6 250.6 o
    41.6 121.6 o
    17.6 0 o
    -24.4 -136.4 o
    -60.4 -241.4 o
    -48.4 -283.4 o
    32.6 -277.4 o
    80.6 -133.4 o
    113.6 -22.4 o
    137.6 37.6 o
    221.6 0 o
    302.6 -13.4 o
    389.6 0 o
    446.6 0 o
    431.6 88.6 o
    401.6 178.6 o
    389.6 289.6 o
    332.6 328.6 o
    311.6 280.6 o
    308.6 181.6 o
    314.6 88.6 o
    257.6 52.6 o
    146.6 217.6 o
    131.6 298.6 o
    107.6 355.6 o
    0 0 z
  EndSpiro
EndSplineSet
Validated: 41
EndChar

StartChar: paragraph
Encoding: 182 182 63
Width: 630
VWidth: 0
InSpiro: 1
Flags: W
VStem: 282.939 98.5508<-187.043 174.071> 302.649 59.1309<41.9321 191.54> 385.87 63.6836<-77.94 389.812> 403.39 56.9404<-215.321 426.62> 403.39 56.9404<-215.321 426.82>
LayerCount: 2
Fore
SplineSet
199.72 563.005 m 0x40
 237.658 565.361 275.655 567.795 313.6 565.6 c 0
 327.482 564.796 341.375 563.845 355.271 564.237 c 0
 369.165 564.631 382.972 566.783 396.82 568.194 c 0
 404.425 568.97 412.117 569.354 419.663 567.991 c 0
 427.209 566.628 434.59 563.359 440.62 557.814 c 0
 447.632 551.368 452.525 542.013 455.099 531.948 c 0
 457.672 521.884 458.151 511.24 458.14 500.725 c 0
 458.121 482.544 457.292 464.363 457.846 446.194 c 0
 458.399 428.025 459.815 409.905 460.33 391.734 c 0x50
 461.262 358.812 458.106 325.965 455.95 293.125 c 0
 453.003 248.241 453.622 203.138 451.57 158.185 c 0
 450.619 137.348 449.291 116.508 449.554 95.6426 c 0x20
 449.817 74.7773 452.077 53.9805 455.95 33.625 c 0
 460.771 8.27637 467.032 -17.0303 466.899 -43.0146 c 0
 466.766 -69.5146 461.034 -95.5879 460.33 -122.075 c 0
 459.823 -141.111 462.281 -160.262 460.33 -179.165 c 0
 459.733 -184.942 458.634 -190.677 456.705 -196.029 c 0
 454.776 -201.383 451.992 -206.348 448.331 -210.228 c 0
 444.67 -214.108 440.124 -216.855 435.282 -217.833 c 0
 430.439 -218.811 425.352 -217.98 420.91 -215.495 c 0
 414.354 -211.826 409.464 -204.682 406.794 -196.691 c 0
 404.125 -188.702 403.439 -179.974 403.39 -171.381 c 0
 403.236 -144.541 405.167 -117.692 403.39 -90.9355 c 0x10
 401.088 -56.2695 397.859 -21.6973 394.63 12.8643 c 0
 390.195 60.3242 384.49 107.868 385.87 155.59 c 0
 386.928 192.18 392.18 228.383 396.82 264.579 c 0
 399.526 285.69 402.021 306.868 403.128 328.182 c 0
 404.235 349.494 404.145 371.267 399.01 391.734 c 0
 396.637 401.196 393.091 410.321 387.979 418.113 c 0
 382.864 425.905 376.121 432.296 368.35 435.85 c 0
 361.826 438.833 354.63 439.772 347.732 438.41 c 0
 340.834 437.048 334.282 433.397 328.93 428.064 c 0
 322.623 421.781 318.027 413.239 315.426 403.975 c 0
 312.823 394.711 312.162 384.776 312.837 375.046 c 0
 314.188 355.585 320.527 337.16 326.74 319.074 c 0
 337.728 287.088 347.276 254.322 353.02 220.465 c 0
 359.964 179.527 362.453 137.652 361.78 95.9043 c 0x60
 361.485 77.6279 360.88 59.3359 361.611 41.0762 c 0
 362.343 22.8164 364.655 4.66309 368.35 -13.085 c 0
 373.715 -38.8545 381.132 -64.3975 381.49 -90.9355 c 0
 381.81 -114.612 378.145 -138.207 372.729 -161 c 0
 370.747 -169.346 368.277 -177.611 364.44 -184.993 c 0
 360.604 -192.376 355.251 -198.805 348.64 -202.521 c 0
 343.963 -205.149 338.73 -206.379 333.562 -206.057 c 0
 328.392 -205.733 323.317 -203.881 318.789 -200.908 c 0
 309.732 -194.962 303.072 -184.845 298.27 -173.976 c 0
 286.402 -147.116 282.188 -116.051 282.939 -85.7451 c 0x80
 283.418 -66.5244 286.394 -47.5273 289.51 -28.6553 c 0
 295.323 6.5459 300.574 41.9551 302.649 77.7393 c 0
 304.381 107.572 303.93 138.534 293.89 165.97 c 0
 284.395 191.917 265.718 212.667 243.52 223.06 c 0
 230.077 229.354 215.67 232.246 201.287 233.948 c 0
 186.904 235.649 172.431 236.307 158.11 238.63 c 0
 132.416 242.798 106.95 253.943 88.0303 274.96 c 0
 71.6123 293.195 60.4678 317.281 52.9902 342.43 c 0
 43.8604 373.132 39.125 406.076 42.04 438.444 c 0
 43.9092 459.2 49.2744 479.645 58.6309 497.331 c 0
 67.9873 515.018 81.3242 529.655 96.79 539.649 c 0
 112.262 549.648 129.595 555.035 147.037 558.02 c 0
 164.479 561.004 182.121 561.911 199.72 563.005 c 0x40
  Spiro
    199.72 563.005 o
    313.6 565.6 o
    396.82 568.195 o
    440.62 557.815 o
    458.14 500.725 o
    460.33 391.735 o
    455.95 293.125 o
    451.57 158.185 o
    455.95 33.625 o
    466.9 -43.014 o
    460.33 -122.075 o
    460.33 -179.165 o
    420.91 -215.495 o
    403.39 -171.38 o
    403.39 -90.935 o
    394.63 12.865 o
    385.87 155.59 o
    396.82 264.58 o
    399.01 391.735 o
    368.35 435.85 o
    328.93 428.065 o
    326.74 319.075 o
    353.02 220.465 o
    361.78 95.905 o
    368.35 -13.085 o
    381.49 -90.935 o
    372.73 -161 o
    348.64 -202.52 o
    298.27 -173.975 o
    282.94 -85.745 o
    289.51 -28.655 o
    302.65 77.74 o
    293.89 165.97 o
    243.52 223.06 o
    158.11 238.63 o
    88.03 274.96 o
    52.99 342.43 o
    42.04 438.445 o
    96.79 539.65 o
    0 0 z
  EndSpiro
EndSplineSet
Validated: 33
EndChar

StartChar: periodcentered
Encoding: 183 183 64
Width: 373
VWidth: 0
InSpiro: 1
Flags: W
HStem: 387.199 120.959<83.9782 164.718>
VStem: 8.2666 172.167
LayerCount: 2
Fore
SplineSet
83.2666 382.6 m 0
 68.5195 382.725 53.5322 384.027 39.7832 389.363 c 0
 32.9102 392.031 26.4102 395.765 20.9268 400.695 c 0
 15.4434 405.625 11.0195 411.759 8.2666 418.6 c 0
 4.20117 428.701 3.95801 440.17 6.94531 450.641 c 0
 9.93359 461.112 15.9102 470.572 23.2666 478.6 c 0
 38.9414 495.709 60.4629 507.312 83.2666 511.6 c 0
 99.4199 514.638 116.404 513.702 131.878 508.158 c 0
 147.351 502.614 161.294 492.371 170.267 478.6 c 0
 177.017 468.241 180.837 455.882 180.434 443.524 c 0
 180.031 431.166 175.283 419.013 167.267 409.6 c 0
 157.424 398.043 143.173 390.93 128.458 387.199 c 0
 113.742 383.469 98.4463 382.471 83.2666 382.6 c 0
  Spiro
    83.2667 382.6 o
    8.26666 418.6 o
    23.2667 478.6 o
    83.2667 511.6 o
    170.267 478.6 o
    167.267 409.6 o
    0 0 z
  EndSpiro
EndSplineSet
Validated: 33
EndChar

StartChar: cedilla
Encoding: 184 184 65
Width: 426
VWidth: 0
InSpiro: 1
Flags: W
VStem: 50.9336 52.2959<-23.2202 40.4023>
LayerCount: 2
Fore
SplineSet
77.9336 70.5996 m 0
 69.7275 60.6475 62.9883 49.4844 57.8818 37.6387 c 0
 52.7744 25.7939 49.6035 12.8301 50.9336 0 c 0
 52.3018 -13.1982 58.8213 -25.8086 68.9336 -34.4004 c 0
 76.6475 -40.9541 86.1504 -45.1543 95.9619 -47.6455 c 0
 105.772 -50.1377 115.907 -51.0078 125.934 -52.4004 c 0
 132.89 -53.3662 139.847 -54.6221 146.456 -56.9961 c 0
 153.064 -59.3711 159.339 -62.9248 164.229 -67.9648 c 0
 169.118 -73.0059 172.529 -79.5723 173.313 -86.5518 c 0
 174.097 -93.5312 172.163 -100.793 167.934 -106.4 c 0
 165.099 -110.158 161.297 -113.162 157.032 -115.156 c 0
 152.768 -117.151 148.064 -118.144 143.358 -118.262 c 0
 133.946 -118.498 124.782 -115.272 116.268 -111.257 c 0
 107.752 -107.241 99.5703 -102.442 90.6826 -99.3359 c 0
 81.7949 -96.2305 72.0273 -94.9639 62.9336 -97.4004 c 0
 56.6934 -99.0713 50.9053 -102.46 46.4961 -107.18 c 0
 42.0859 -111.9 39.0908 -117.9 37.8359 -124.236 c 0
 36.5811 -130.573 37.043 -137.206 38.8848 -143.397 c 0
 40.7266 -149.588 43.916 -155.342 47.9336 -160.4 c 0
 54.1357 -168.206 62.248 -174.365 71.0469 -179.053 c 0
 79.8457 -183.74 89.3623 -187.005 99.0879 -189.201 c 0
 118.537 -193.593 138.844 -193.931 158.536 -190.802 c 0
 178.228 -187.672 197.47 -180.811 213.956 -169.595 c 0
 230.44 -158.38 243.885 -142.642 251.934 -124.4 c 0
 257.929 -110.813 261.033 -96.0137 261.555 -81.1719 c 0
 262.074 -66.3301 260.2 -51.2852 254.934 -37.4004 c 0
 251.266 -27.7295 245.758 -18.6094 238.017 -11.751 c 0
 230.275 -4.89258 220.26 -0.587891 209.934 0 c 0
 203.65 0.357422 197.33 -0.59375 191.309 -2.42383 c 0
 185.287 -4.25391 179.56 -6.9375 173.969 -9.82812 c 0
 162.787 -15.6074 151.656 -22.3252 139.17 -23.9131 c 0
 132.927 -24.7061 126.445 -24.1396 120.627 -21.7412 c 0
 114.809 -19.3428 109.735 -15.0781 106.592 -9.62598 c 0
 103.446 -4.17383 102.305 2.36719 103.229 8.59277 c 0
 104.154 14.8174 107.077 20.627 110.934 25.5996 c 0
 115.33 31.2686 120.881 35.9111 125.969 40.9678 c 0
 131.057 46.0244 135.733 51.7725 137.934 58.5996 c 0
 139.094 62.2012 139.544 66.043 139.111 69.8018 c 0
 138.68 73.5605 137.361 77.2178 135.271 80.3701 c 0
 133.179 83.5225 130.323 86.1582 127.037 88.0312 c 0
 123.75 89.9043 120.044 91.0166 116.276 91.3662 c 0
 108.742 92.0645 101.142 89.7041 94.6768 85.7715 c 0
 88.2129 81.8389 82.748 76.4385 77.9336 70.5996 c 0
  Spiro
    77.9333 70.6 o
    50.9333 0 o
    68.9333 -34.4 o
    125.933 -52.4 o
    167.933 -106.4 o
    62.9333 -97.4 o
    47.9333 -160.4 o
    251.933 -124.4 o
    254.933 -37.4 o
    209.933 0 o
    110.933 25.6 o
    137.933 58.6 o
    0 0 z
  EndSpiro
EndSplineSet
Validated: 41
EndChar

StartChar: uni00B9
Encoding: 185 185 66
Width: 406
VWidth: 0
InSpiro: 1
Flags: W
HStem: 726.879 48.5273<40.6783 112.659>
VStem: 117.059 67.541<628.835 719.757>
LayerCount: 2
Fore
SplineSet
40.5996 751.6 m 0
 40.7354 757.461 43.4619 763.132 47.6611 767.223 c 0
 51.8594 771.315 57.3564 773.868 63.0127 775.406 c 0
 74.3281 778.481 86.3486 778.301 97.5996 781.6 c 0
 105.784 784 113.39 788.051 120.578 792.64 c 0
 127.767 797.23 134.763 802.236 142.6 805.6 c 0
 152.255 809.744 163.362 811.001 173.344 807.72 c 0
 183.326 804.44 191.654 796.87 196.6 787.6 c 0
 201.174 779.028 203.025 769.194 203.111 759.479 c 0
 203.198 749.762 201.617 740.105 199.6 730.6 c 0
 195.816 712.771 190.911 695.16 188.317 677.12 c 0
 185.722 659.08 185.456 640.805 184.6 622.6 c 0
 183.93 608.364 182.604 593.902 177.252 580.694 c 0
 174.575 574.091 170.877 567.864 166.047 562.625 c 0
 161.218 557.385 155.248 553.165 148.6 550.6 c 0
 140.41 547.44 131.238 546.875 122.732 549.045 c 0
 114.227 551.216 106.464 556.068 100.6 562.6 c 0
 94.8252 569.034 90.8867 577.045 89.0039 585.482 c 0
 87.1201 593.92 87.2744 602.751 88.957 611.231 c 0
 92.3223 628.191 102.01 643.064 109.6 658.6 c 0
 112.128 663.774 114.375 669.112 115.802 674.691 c 0
 117.23 680.27 117.81 686.106 117.059 691.815 c 0
 116.307 697.525 114.191 703.07 110.799 707.723 c 0
 107.407 712.377 102.775 716.073 97.5996 718.6 c 0
 92.2217 721.226 86.3232 722.6 80.4219 723.595 c 0
 74.5215 724.591 68.5439 725.263 62.7822 726.879 c 0
 57.0195 728.495 51.4219 731.159 47.2324 735.433 c 0
 43.043 739.707 40.4619 745.617 40.5996 751.6 c 0
  Spiro
    40.6 751.6 o
    97.6 781.6 o
    142.6 805.6 o
    196.6 787.6 o
    199.6 730.6 o
    184.6 622.6 o
    148.6 550.6 o
    100.6 562.6 o
    109.6 658.6 o
    97.6 718.6 o
    0 0 z
  EndSpiro
EndSplineSet
Validated: 1
EndChar

StartChar: thorn
Encoding: 254 254 67
Width: 662
VWidth: 0
InSpiro: 1
Flags: W
HStem: 352.77 80.83<211.546 344.904>
VStem: 19.5996 120<-229.796 -106.25> 31.4531 138.147<474.005 618.956> 31.5996 75.0004<209.26 297.394>
LayerCount: 2
Fore
SplineSet
211.6 181.6 m 0x80
 224.973 178.794 238.321 175.75 251.879 174.055 c 0
 265.438 172.359 279.351 172.258 292.6 175.6 c 0
 309.156 179.777 324.134 189.493 335.252 202.452 c 0
 346.371 215.411 353.987 231.161 358.6 247.6 c 0
 362.439 261.279 364.219 275.653 362.623 289.77 c 0
 361.027 303.888 355.746 317.728 346.6 328.6 c 0
 334.821 342.602 317.017 350.788 298.827 352.77 c 0
 280.637 354.753 262.279 351.319 244.6 346.6 c 0
 209.337 337.188 173.527 326.98 142.6 307.6 c 0
 132.61 301.34 123.393 293.578 116.726 283.855 c 0
 110.059 274.133 106.166 262.381 106.6 250.6 c 0
 107.018 239.23 111.474 228.137 118.628 219.29 c 0
 125.783 210.443 135.422 203.835 145.759 199.08 c 0
 166.431 189.569 189.33 186.274 211.6 181.6 c 0x80
  Spiro
    211.6 181.6 o
    292.6 175.6 o
    358.6 247.6 o
    346.6 328.6 o
    244.6 346.6 o
    142.6 307.6 o
    106.6 250.6 o
    0 0 z
  EndSpiro
19.5996 -190.4 m 0xc0
 17.0547 -176.459 18.0869 -162.092 20.3574 -148.104 c 0
 22.627 -134.116 26.0156 -120.334 28.5996 -106.4 c 0
 32.5361 -85.1748 34.2305 -63.541 33.5186 -41.9658 c 0
 32.8066 -20.3906 30.2021 1.07227 28.5996 22.5996 c 0
 24.959 71.5195 29.6104 120.585 31.5996 169.6 c 0x90
 33.9541 227.577 30.3369 285.732 34.5996 343.6 c 0
 37.9141 388.58 42.4697 433.762 37.5996 478.6 c 0
 35.4668 498.24 32.1934 517.788 31.4531 537.529 c 0xa0
 30.7139 557.271 32.9863 577.371 40.5996 595.6 c 0
 49.209 616.212 63.9189 634.354 82.5996 646.6 c 0
 94.167 654.183 107.786 659.285 121.6 658.6 c 0
 132.777 658.046 143.716 653.533 152.007 646.016 c 0
 160.298 638.5 165.842 628.252 168.728 617.439 c 0
 174.499 595.814 170.288 572.972 169.6 550.6 c 0
 169.193 537.35 170.034 523.979 173.379 511.152 c 0
 176.724 498.325 182.541 486.125 190.6 475.6 c 0
 203.747 458.431 222.732 446.119 243.371 439.666 c 0
 264.01 433.213 286.009 432.408 307.6 433.6 c 0
 327.798 434.715 347.916 437.401 368.144 437.578 c 0
 388.372 437.755 408.837 435.161 427.6 427.6 c 0
 455.715 416.27 478.688 393.99 493.6 367.6 c 0
 508.969 340.4 516.779 308.766 514.6 277.6 c 0
 512.08 241.561 495.176 207.115 469.6 181.6 c 0
 445.283 157.341 414.188 141.092 382.6 127.6 c 0
 343.41 110.862 302.643 96.2334 268.6 70.5996 c 0
 243.251 51.5127 222.199 27.0439 205.6 0 c 0
 196.484 -14.8525 188.56 -30.4229 181.6 -46.4004 c 0
 166.634 -80.7559 158.201 -117.512 151.6 -154.4 c 0
 148.859 -169.718 145.821 -185.137 139.6 -199.4 c 0
 134.029 -212.172 125.706 -223.946 114.488 -232.211 c 0
 103.27 -240.476 89.2119 -244.984 75.3037 -244.127 c 0
 61.3975 -243.271 47.9453 -237.031 38.0996 -227.171 c 0
 28.2549 -217.311 22.1025 -204.107 19.5996 -190.4 c 0xc0
  Spiro
    19.6 -190.4 o
    28.6 -106.4 o
    28.6 22.6 o
    31.6 169.6 o
    34.6 343.6 o
    37.6 478.6 o
    40.6 595.6 o
    82.6 646.6 o
    121.6 658.6 o
    169.6 550.6 o
    190.6 475.6 o
    307.6 433.6 o
    427.6 427.6 o
    493.6 367.6 o
    514.6 277.6 o
    469.6 181.6 o
    382.6 127.6 o
    268.6 70.6 o
    205.6 0 o
    181.6 -46.4 o
    151.6 -154.4 o
    139.6 -199.4 o
    0 0 z
  EndSpiro
EndSplineSet
Validated: 33
EndChar

StartChar: multiply
Encoding: 215 215 68
Width: 693
VWidth: 0
Flags: W
LayerCount: 2
Fore
SplineSet
288.318 463.6 m 28
 318.459 469.01 320.929 498.688 342.318 520.6 c 24
 368.902 547.832 382.084 565.237 411.318 589.6 c 24
 431.518 606.432 442.403 630.042 468.318 625.6 c 24
 496.091 620.839 518.929 599.656 516.318 571.6 c 24
 512.85 534.303 480.814 524.938 456.318 496.6 c 24
 421.114 455.874 383.901 444.342 363.318 394.6 c 24
 352.135 367.572 371.516 348.899 384.318 322.6 c 24
 415.064 259.447 440 227.884 474.318 166.6 c 24
 489.149 140.117 519.917 126.395 510.318 97.5996 c 24
 501.039 69.7627 470.416 63.8047 441.318 67.5996 c 24
 408.813 71.8398 394.432 91.4014 372.318 115.6 c 24
 331.582 160.18 321.619 195.75 282.318 241.6 c 24
 264.955 261.857 254.688 287.657 228.318 283.6 c 24
 194.782 278.44 190.508 246.332 165.318 223.6 c 24
 142.519 203.024 129.982 190.899 105.318 172.6 c 24
 93.5449 163.865 85.4307 148.044 72.3184 154.6 c 24
 42.6826 169.418 22.4229 185.237 15.3184 217.6 c 24
 9.70898 243.153 27.666 258.292 45.3184 277.6 c 24
 66.3398 300.592 89.6113 300.254 111.318 322.6 c 24
 130.333 342.174 150.826 355.538 147.318 382.6 c 24
 141.461 427.792 111.894 444.461 90.3184 484.6 c 24
 61.5781 538.07 21.3008 561.969 18.3184 622.6 c 24
 16.8359 652.758 51.125 667.6 81.3184 667.6 c 24
 117.456 667.6 138.801 650.038 162.318 622.6 c 24
 197.394 581.679 191.845 541.841 225.318 499.6 c 24
 242.895 477.421 260.465 458.601 288.318 463.6 c 28
EndSplineSet
Validated: 33
EndChar

